<svg width="36" height="36" viewBox="0 0 36 36" fill="none" xmlns="http://www.w3.org/2000/svg">
<path opacity="0.3" d="M33 25.395C33.0068 26.0208 32.7922 26.6289 32.3943 27.1119C31.9963 27.595 31.4405 27.9219 30.825 28.035C26.7847 28.6915 22.8723 29.9771 19.23 31.845C18.4419 32.1684 17.5581 32.1684 16.77 31.845C13.1351 29.9976 9.24864 28.6937 5.23501 27.975C4.60978 27.8718 4.04165 27.5495 3.6322 27.0658C3.22274 26.5822 2.99866 25.9687 3.00001 25.335V6.71999C2.99993 6.33114 3.08384 5.94686 3.24601 5.59343C3.40818 5.24001 3.64478 4.92578 3.93961 4.67225C4.23445 4.41872 4.58057 4.23186 4.9543 4.12447C5.32803 4.01707 5.72055 3.99167 6.10501 4.04999C9.86292 4.62332 13.4802 5.89524 16.77 7.79999C17.1384 8.03174 17.5648 8.15469 18 8.15469C18.4352 8.15469 18.8616 8.03174 19.23 7.79999C22.5096 5.89888 26.1001 4.59372 29.835 3.94499C30.2235 3.87969 30.6216 3.89973 31.0017 4.00373C31.3817 4.10773 31.7345 4.29319 32.0357 4.54724C32.3368 4.80129 32.5791 5.11783 32.7456 5.4749C32.9121 5.83197 32.9989 6.221 33 6.61499V25.395Z" fill="black"/>
<path d="M29.835 3.94499C26.1001 4.59372 22.5096 5.89888 19.23 7.79999C18.8587 8.024 18.4336 8.14323 18 8.14499V32.145C18.4228 32.1583 18.8432 32.0762 19.23 31.905C22.8722 30.0371 26.7847 28.7515 30.825 28.095C31.4509 27.9803 32.0149 27.6446 32.4141 27.149C32.8133 26.6535 33.0212 26.031 33 25.395V6.61499C32.9989 6.221 32.9121 5.83197 32.7456 5.4749C32.579 5.11783 32.3368 4.80129 32.0357 4.54724C31.7345 4.29319 31.3817 4.10773 31.0017 4.00373C30.6216 3.89973 30.2235 3.87969 29.835 3.94499Z" fill="black"/>
<path d="M11.61 13.5H8.20496C7.90659 13.5 7.62044 13.3815 7.40946 13.1705C7.19848 12.9595 7.07996 12.6734 7.07996 12.375C7.07996 12.0766 7.19848 11.7905 7.40946 11.5795C7.62044 11.3685 7.90659 11.25 8.20496 11.25H11.61C11.9083 11.25 12.1945 11.3685 12.4055 11.5795C12.6164 11.7905 12.735 12.0766 12.735 12.375C12.735 12.6734 12.6164 12.9595 12.4055 13.1705C12.1945 13.3815 11.9083 13.5 11.61 13.5Z" fill="black"/>
<path d="M12.75 18H8.25C7.95163 18 7.66548 17.8815 7.4545 17.6705C7.24353 17.4595 7.125 17.1734 7.125 16.875C7.125 16.5766 7.24353 16.2905 7.4545 16.0795C7.66548 15.8685 7.95163 15.75 8.25 15.75H12.75C13.0484 15.75 13.3345 15.8685 13.5455 16.0795C13.7565 16.2905 13.875 16.5766 13.875 16.875C13.875 17.1734 13.7565 17.4595 13.5455 17.6705C13.3345 17.8815 13.0484 18 12.75 18Z" fill="black"/>
</svg>
