<svg width="24" height="24" viewBox="0 0 24 24" fill="none" xmlns="http://www.w3.org/2000/svg">
<path d="M19.7999 12.75H4.19995C4.00104 12.75 3.81027 12.671 3.66962 12.5303C3.52897 12.3897 3.44995 12.1989 3.44995 12C3.44995 11.8011 3.52897 11.6103 3.66962 11.4697C3.81027 11.329 4.00104 11.25 4.19995 11.25H19.7999C19.9989 11.25 20.1896 11.329 20.3303 11.4697C20.4709 11.6103 20.5499 11.8011 20.5499 12C20.5499 12.1989 20.4709 12.3897 20.3303 12.5303C20.1896 12.671 19.9989 12.75 19.7999 12.75Z" fill="black"/>
<path d="M17.5 19.5601H6.5C6.30109 19.5601 6.11032 19.481 5.96967 19.3404C5.82902 19.1997 5.75 19.009 5.75 18.8101C5.75 18.6111 5.82902 18.4204 5.96967 18.2797C6.11032 18.1391 6.30109 18.0601 6.5 18.0601H17.5C17.6989 18.0601 17.8897 18.1391 18.0303 18.2797C18.171 18.4204 18.25 18.6111 18.25 18.8101C18.25 19.009 18.171 19.1997 18.0303 19.3404C17.8897 19.481 17.6989 19.5601 17.5 19.5601Z" fill="black"/>
<path d="M17.5 5.93994H6.5C6.30109 5.93994 6.11032 5.86092 5.96967 5.72027C5.82902 5.57962 5.75 5.38885 5.75 5.18994C5.75 4.99103 5.82902 4.80026 5.96967 4.65961C6.11032 4.51896 6.30109 4.43994 6.5 4.43994H17.5C17.6989 4.43994 17.8897 4.51896 18.0303 4.65961C18.171 4.80026 18.25 4.99103 18.25 5.18994C18.25 5.38885 18.171 5.57962 18.0303 5.72027C17.8897 5.86092 17.6989 5.93994 17.5 5.93994Z" fill="black"/>
</svg>
