<svg width="18" height="16" viewBox="0 0 18 16" fill="none" xmlns="http://www.w3.org/2000/svg">
<path d="M16.8 8.75H1.20001C1.0011 8.75 0.810334 8.67098 0.669682 8.53033C0.52903 8.38968 0.450012 8.19891 0.450012 8C0.450012 7.80109 0.52903 7.61032 0.669682 7.46967C0.810334 7.32902 1.0011 7.25 1.20001 7.25H16.8C16.9989 7.25 17.1897 7.32902 17.3303 7.46967C17.471 7.61032 17.55 7.80109 17.55 8C17.55 8.19891 17.471 8.38968 17.3303 8.53033C17.1897 8.67098 16.9989 8.75 16.8 8.75Z" fill="black"/>
<path d="M14.5 15.56H3.5C3.30109 15.56 3.11032 15.481 2.96967 15.3403C2.82902 15.1997 2.75 15.0089 2.75 14.81C2.75 14.6111 2.82902 14.4203 2.96967 14.2797C3.11032 14.139 3.30109 14.06 3.5 14.06H14.5C14.6989 14.06 14.8897 14.139 15.0303 14.2797C15.171 14.4203 15.25 14.6111 15.25 14.81C15.25 15.0089 15.171 15.1997 15.0303 15.3403C14.8897 15.481 14.6989 15.56 14.5 15.56Z" fill="black"/>
<path d="M14.5 1.94H3.5C3.30109 1.94 3.11032 1.86098 2.96967 1.72033C2.82902 1.57968 2.75 1.38891 2.75 1.19C2.75 0.99109 2.82902 0.800325 2.96967 0.659672C3.11032 0.51902 3.30109 0.440002 3.5 0.440002H14.5C14.6989 0.440002 14.8897 0.51902 15.0303 0.659672C15.171 0.800325 15.25 0.99109 15.25 1.19C15.25 1.38891 15.171 1.57968 15.0303 1.72033C14.8897 1.86098 14.6989 1.94 14.5 1.94Z" fill="black"/>
</svg>
