<svg width="47" height="47" viewBox="0 0 47 47" fill="none" xmlns="http://www.w3.org/2000/svg">
<rect width="47" height="47" rx="23.5" fill="#EA5E20"/>
<rect x="9.5918" y="6.2666" width="27.8163" height="33.4222" rx="13.9082" fill="#EA5E20"/>
<path d="M32.78 34.7498H15.22C15.0184 34.7498 14.8251 34.6698 14.6826 34.5272C14.54 34.3847 14.46 34.1914 14.46 33.9898C14.46 33.7883 14.54 33.595 14.6826 33.4524C14.8251 33.3099 15.0184 33.2298 15.22 33.2298H32.78C32.9815 33.2298 33.1748 33.3099 33.3174 33.4524C33.4599 33.595 33.54 33.7883 33.54 33.9898C33.54 34.1914 33.4599 34.3847 33.3174 34.5272C33.1748 34.6698 32.9815 34.7498 32.78 34.7498ZM24 31.6998H23C22.4898 31.6945 22.0025 31.4875 21.6446 31.124C21.2867 30.7604 21.0873 30.27 21.09 29.7598V19.4798C21.0873 18.9697 21.2867 18.4792 21.6446 18.1157C22.0025 17.7521 22.4898 17.5451 23 17.5398H24C24.5101 17.5451 24.9974 17.7521 25.3553 18.1157C25.7132 18.4792 25.9126 18.9697 25.91 19.4798V29.7598C25.9126 30.27 25.7132 30.7604 25.3553 31.124C24.9974 31.4875 24.5101 31.6945 24 31.6998ZM23 19.0698C22.892 19.0724 22.7892 19.1164 22.7129 19.1927C22.6365 19.2691 22.5925 19.3719 22.59 19.4798V29.7598C22.5899 29.8695 22.6328 29.9748 22.7094 30.0533C22.786 30.1318 22.8903 30.1772 23 30.1798H24C24.0547 30.1798 24.1088 30.1689 24.1592 30.1477C24.2096 30.1265 24.2553 30.0954 24.2935 30.0562C24.3317 30.0171 24.3617 29.9707 24.3817 29.9198C24.4017 29.8689 24.4113 29.8145 24.41 29.7598V19.4798C24.41 19.3711 24.3668 19.2668 24.2899 19.1899C24.213 19.113 24.1087 19.0698 24 19.0698H23ZM30 31.6998H29.23C28.9622 31.6999 28.6971 31.6463 28.4505 31.5421C28.2038 31.4378 27.9806 31.2851 27.7941 31.093C27.6076 30.9009 27.4615 30.6732 27.3646 30.4236C27.2677 30.174 27.2219 29.9075 27.23 29.6398V15.3798C27.2219 15.1122 27.2677 14.8456 27.3646 14.596C27.4615 14.3464 27.6076 14.1188 27.7941 13.9267C27.9806 13.7345 28.2038 13.5818 28.4505 13.4776C28.6971 13.3734 28.9622 13.3197 29.23 13.3198H30C30.2677 13.3197 30.5328 13.3734 30.7794 13.4776C31.0261 13.5818 31.2493 13.7345 31.4358 13.9267C31.6223 14.1188 31.7684 14.3464 31.8653 14.596C31.9622 14.8456 32.008 15.1122 32 15.3798V29.6398C32.008 29.9075 31.9622 30.174 31.8653 30.4236C31.7684 30.6732 31.6223 30.9009 31.4358 31.093C31.2493 31.2851 31.0261 31.4378 30.7794 31.5421C30.5328 31.6463 30.2677 31.6999 30 31.6998ZM29.25 14.8398C29.1804 14.8411 29.1117 14.8561 29.0479 14.884C28.9841 14.9118 28.9264 14.952 28.8781 15.0021C28.8298 15.0522 28.7919 15.1114 28.7665 15.1762C28.741 15.241 28.7286 15.3102 28.73 15.3798V29.6398C28.7286 29.7094 28.741 29.7786 28.7665 29.8434C28.7919 29.9082 28.8298 29.9674 28.8781 30.0175C28.9264 30.0677 28.9841 30.1078 29.0479 30.1357C29.1117 30.1635 29.1804 30.1785 29.25 30.1798H30C30.0696 30.1785 30.1382 30.1635 30.202 30.1357C30.2658 30.1078 30.3235 30.0677 30.3718 30.0175C30.4201 29.9674 30.4581 29.9082 30.4835 29.8434C30.5089 29.7786 30.5213 29.7094 30.52 29.6398V15.3798C30.5213 15.3102 30.5089 15.241 30.4835 15.1762C30.4581 15.1114 30.4201 15.0522 30.3718 15.0021C30.3235 14.952 30.2658 14.9118 30.202 14.884C30.1382 14.8561 30.0696 14.8411 30 14.8398H29.25ZM18 31.6998H17C16.747 31.6985 16.4967 31.6472 16.2636 31.5489C16.0305 31.4506 15.8192 31.3072 15.6417 31.1269C15.4642 30.9466 15.3241 30.733 15.2294 30.4984C15.1347 30.2638 15.0873 30.0128 15.09 29.7598V24.3398C15.0873 24.0868 15.1347 23.8358 15.2294 23.6012C15.3241 23.3666 15.4642 23.1531 15.6417 22.9728C15.8192 22.7925 16.0305 22.6491 16.2636 22.5507C16.4967 22.4524 16.747 22.4011 17 22.3998H18C18.2529 22.4011 18.5032 22.4524 18.7363 22.5507C18.9694 22.6491 19.1808 22.7925 19.3582 22.9728C19.5357 23.1531 19.6759 23.3666 19.7705 23.6012C19.8652 23.8358 19.9126 24.0868 19.91 24.3398V29.7598C19.9126 30.0128 19.8652 30.2638 19.7705 30.4984C19.6759 30.733 19.5357 30.9466 19.3582 31.1269C19.1808 31.3072 18.9694 31.4506 18.7363 31.5489C18.5032 31.6472 18.2529 31.6985 18 31.6998ZM17 23.9298C16.8912 23.9298 16.7869 23.973 16.71 24.0499C16.6332 24.1268 16.59 24.2311 16.59 24.3398V29.7598C16.5886 29.8145 16.5982 29.8689 16.6183 29.9198C16.6383 29.9707 16.6682 30.0171 16.7065 30.0562C16.7447 30.0954 16.7903 30.1265 16.8407 30.1477C16.8911 30.1689 16.9453 30.1798 17 30.1798H18C18.0547 30.1798 18.1088 30.1689 18.1592 30.1477C18.2096 30.1265 18.2553 30.0954 18.2935 30.0562C18.3317 30.0171 18.3617 29.9707 18.3817 29.9198C18.4017 29.8689 18.4113 29.8145 18.41 29.7598V24.3398C18.41 24.2311 18.3668 24.1268 18.2899 24.0499C18.213 23.973 18.1087 23.9298 18 23.9298H17Z" fill="white"/>
</svg>
