<svg width="47" height="47" viewBox="0 0 47 47" fill="none" xmlns="http://www.w3.org/2000/svg">
<rect width="47" height="47" rx="23.5" fill="#EA5E20"/>
<rect x="9.5918" y="6.2666" width="27.8163" height="33.4222" rx="13.9082" fill="#EA5E20"/>
<path d="M31.7999 24.75H16.2C16.001 24.75 15.8103 24.671 15.6696 24.5303C15.529 24.3897 15.45 24.1989 15.45 24C15.45 23.8011 15.529 23.6103 15.6696 23.4697C15.8103 23.329 16.001 23.25 16.2 23.25H31.7999C31.9989 23.25 32.1896 23.329 32.3303 23.4697C32.4709 23.6103 32.5499 23.8011 32.5499 24C32.5499 24.1989 32.4709 24.3897 32.3303 24.5303C32.1896 24.671 31.9989 24.75 31.7999 24.75Z" fill="white"/>
<path d="M29.5 31.5601H18.5C18.3011 31.5601 18.1103 31.481 17.9697 31.3404C17.829 31.1997 17.75 31.009 17.75 30.8101C17.75 30.6111 17.829 30.4204 17.9697 30.2797C18.1103 30.1391 18.3011 30.0601 18.5 30.0601H29.5C29.6989 30.0601 29.8897 30.1391 30.0303 30.2797C30.171 30.4204 30.25 30.6111 30.25 30.8101C30.25 31.009 30.171 31.1997 30.0303 31.3404C29.8897 31.481 29.6989 31.5601 29.5 31.5601Z" fill="white"/>
<path d="M29.5 17.9399H18.5C18.3011 17.9399 18.1103 17.8609 17.9697 17.7203C17.829 17.5796 17.75 17.3889 17.75 17.1899C17.75 16.991 17.829 16.8003 17.9697 16.6596C18.1103 16.519 18.3011 16.4399 18.5 16.4399H29.5C29.6989 16.4399 29.8897 16.519 30.0303 16.6596C30.171 16.8003 30.25 16.991 30.25 17.1899C30.25 17.3889 30.171 17.5796 30.0303 17.7203C29.8897 17.8609 29.6989 17.9399 29.5 17.9399Z" fill="white"/>
</svg>
