<svg width="22" height="22" viewBox="0 0 22 22" fill="none" xmlns="http://www.w3.org/2000/svg">
<path d="M18.86 6.68H3.14C2.50613 6.68 1.89823 6.4282 1.45001 5.97999C1.0018 5.53177 0.75 4.92387 0.75 4.29V3.14C0.75 2.50613 1.0018 1.89823 1.45001 1.45001C1.89823 1.0018 2.50613 0.75 3.14 0.75H18.86C19.4939 0.75 20.1018 1.0018 20.55 1.45001C20.9982 1.89823 21.25 2.50613 21.25 3.14V4.29C21.25 4.92387 20.9982 5.53177 20.55 5.97999C20.1018 6.4282 19.4939 6.68 18.86 6.68ZM3.14 2.25C2.90396 2.25 2.67758 2.34377 2.51067 2.51067C2.34377 2.67758 2.25 2.90396 2.25 3.14V4.29C2.25 4.52604 2.34377 4.75242 2.51067 4.91932C2.67758 5.08623 2.90396 5.18 3.14 5.18H18.86C18.9769 5.18 19.0926 5.15698 19.2006 5.11225C19.3086 5.06753 19.4067 5.00197 19.4893 4.91932C19.572 4.83668 19.6375 4.73857 19.6823 4.63059C19.727 4.52261 19.75 4.40688 19.75 4.29V3.14C19.75 3.02312 19.727 2.90739 19.6823 2.79941C19.6375 2.69143 19.572 2.59332 19.4893 2.51067C19.4067 2.42803 19.3086 2.36247 19.2006 2.31775C19.0926 2.27302 18.9769 2.25 18.86 2.25H3.14ZM5.34 21.25H3.14C2.50613 21.25 1.89823 20.9982 1.45001 20.55C1.0018 20.1018 0.75 19.4939 0.75 18.86V10.6C0.75 9.96613 1.0018 9.35823 1.45001 8.91002C1.89823 8.4618 2.50613 8.21 3.14 8.21H5.34C5.97213 8.21265 6.57747 8.46562 7.02352 8.91354C7.46958 9.36147 7.72001 9.96786 7.72 10.6V18.86C7.72001 19.4921 7.46958 20.0985 7.02352 20.5465C6.57747 20.9944 5.97213 21.2474 5.34 21.25ZM3.14 9.71C2.90396 9.71 2.67758 9.80377 2.51067 9.97067C2.34377 10.1376 2.25 10.364 2.25 10.6V18.86C2.25 18.9769 2.27302 19.0926 2.31775 19.2006C2.36247 19.3086 2.42803 19.4067 2.51067 19.4893C2.59332 19.572 2.69143 19.6375 2.79941 19.6823C2.90739 19.727 3.02312 19.75 3.14 19.75H5.34C5.57431 19.7474 5.79812 19.6524 5.96287 19.4858C6.12762 19.3192 6.22001 19.0943 6.22 18.86V10.6C6.22001 10.3657 6.12762 10.1408 5.96287 9.97418C5.79812 9.80756 5.57431 9.71263 5.34 9.71H3.14ZM18.83 21.25H11.66C11.019 21.2474 10.405 20.9916 9.95171 20.5383C9.49844 20.085 9.24263 19.471 9.24 18.83V10.64C9.23999 9.99725 9.49464 9.38068 9.94819 8.92526C10.4017 8.46983 11.0173 8.21265 11.66 8.21H18.83C19.4727 8.21265 20.0883 8.46983 20.5418 8.92526C20.9954 9.38068 21.25 9.99725 21.25 10.64V18.83C21.2474 19.471 20.9916 20.085 20.5383 20.5383C20.085 20.9916 19.471 21.2474 18.83 21.25ZM11.66 9.71C11.4151 9.71263 11.1811 9.81178 11.0088 9.9859C10.8366 10.16 10.74 10.3951 10.74 10.64V18.83C10.74 19.074 10.8369 19.308 11.0095 19.4805C11.182 19.6531 11.416 19.75 11.66 19.75H18.83C19.074 19.75 19.308 19.6531 19.4805 19.4805C19.6531 19.308 19.75 19.074 19.75 18.83V10.64C19.75 10.3951 19.6534 10.16 19.4812 9.9859C19.3089 9.81178 19.0749 9.71263 18.83 9.71H11.66Z" fill="black"/>
</svg>
