<svg width="47" height="47" viewBox="0 0 47 47" fill="none" xmlns="http://www.w3.org/2000/svg">
<rect width="47" height="47" rx="23.5" fill="white"/>
<rect x="9.5918" y="6.2666" width="27.8163" height="33.4222" rx="13.9082" fill="white"/>
<path d="M33.78 34.64H19.59C17.9093 34.6374 16.2983 33.9685 15.1099 32.7801C13.9215 31.5917 13.2526 29.9807 13.25 28.3V14.06C13.25 13.8452 13.3353 13.6391 13.4872 13.4872C13.6391 13.3353 13.8452 13.25 14.06 13.25C14.2748 13.25 14.4809 13.3353 14.6328 13.4872C14.7847 13.6391 14.87 13.8452 14.87 14.06V28.3C14.8779 29.5475 15.3784 30.7414 16.2624 31.6217C17.1464 32.502 18.3424 32.9974 19.59 33H33.78C33.9948 33 34.2009 33.0853 34.3528 33.2372C34.5047 33.3891 34.59 33.5952 34.59 33.81C34.59 34.0248 34.5047 34.2309 34.3528 34.3828C34.2009 34.5347 33.9948 34.62 33.78 34.62V34.64ZM33.9 30.64V23.64C33.8777 23.4394 33.7823 23.2541 33.6319 23.1195C33.4816 22.9848 33.2868 22.9104 33.085 22.9104C32.8832 22.9104 32.6884 22.9848 32.5381 23.1195C32.3877 23.2541 32.2923 23.4394 32.27 23.64V30.64C32.2923 30.8406 32.3877 31.0259 32.5381 31.1605C32.6884 31.2952 32.8832 31.3696 33.085 31.3696C33.2868 31.3696 33.4816 31.2952 33.6319 31.1605C33.7823 31.0259 33.8777 30.8406 33.9 30.64ZM21.64 24.07L26 19.68C26.5502 19.1266 27.2047 18.6879 27.9257 18.3892C28.6466 18.0906 29.4196 17.9379 30.2 17.94C30.7304 17.94 31.2391 18.1507 31.6142 18.5258C31.9893 18.9009 32.2 19.4096 32.2 19.94C32.1961 20.0516 32.2141 20.1629 32.2532 20.2676C32.2923 20.3722 32.3516 20.4681 32.4277 20.5498C32.5815 20.7149 32.7946 20.812 33.02 20.82C33.1316 20.8239 33.2429 20.8059 33.3476 20.7668C33.4522 20.7277 33.5481 20.6684 33.6298 20.5923C33.7949 20.4385 33.892 20.2254 33.9 20C33.8974 19.0284 33.5095 18.0975 32.8216 17.4114C32.1336 16.7253 31.2016 16.34 30.23 16.34C29.2377 16.3352 28.2545 16.5282 27.3376 16.9077C26.4208 17.2871 25.5887 17.8454 24.89 18.55L20.49 22.94C20.1619 23.2698 19.751 23.5051 19.3006 23.6212C18.8501 23.7374 18.3767 23.73 17.93 23.6H17.82C17.6131 23.5417 17.3916 23.5679 17.204 23.6729C17.0165 23.7779 16.8783 23.9531 16.82 24.16C16.7617 24.3669 16.7879 24.5884 16.8929 24.776C16.9979 24.9635 17.1731 25.1017 17.38 25.16H17.49C17.8667 25.271 18.2573 25.3282 18.65 25.33C19.2068 25.3271 19.7575 25.2143 20.2706 24.9981C20.7837 24.7819 21.2491 24.4665 21.64 24.07Z" fill="black"/>
</svg>
