<svg width="47" height="47" viewBox="0 0 47 47" fill="none" xmlns="http://www.w3.org/2000/svg">
<rect width="47" height="47" rx="23.5" fill="white"/>
<rect x="9.5918" y="6.2666" width="27.8163" height="33.4222" rx="13.9082" fill="white"/>
<path d="M31.8 24.75H16.2C16.0011 24.75 15.8103 24.671 15.6697 24.5303C15.529 24.3897 15.45 24.1989 15.45 24C15.45 23.8011 15.529 23.6103 15.6697 23.4697C15.8103 23.329 16.0011 23.25 16.2 23.25H31.8C31.9989 23.25 32.1897 23.329 32.3303 23.4697C32.471 23.6103 32.55 23.8011 32.55 24C32.55 24.1989 32.471 24.3897 32.3303 24.5303C32.1897 24.671 31.9989 24.75 31.8 24.75Z" fill="black"/>
<path d="M29.5 31.5599H18.5C18.3011 31.5599 18.1103 31.4809 17.9697 31.3403C17.829 31.1996 17.75 31.0088 17.75 30.8099C17.75 30.611 17.829 30.4203 17.9697 30.2796C18.1103 30.139 18.3011 30.0599 18.5 30.0599H29.5C29.6989 30.0599 29.8897 30.139 30.0303 30.2796C30.171 30.4203 30.25 30.611 30.25 30.8099C30.25 31.0088 30.171 31.1996 30.0303 31.3403C29.8897 31.4809 29.6989 31.5599 29.5 31.5599Z" fill="black"/>
<path d="M29.5 17.9399H18.5C18.3011 17.9399 18.1103 17.8609 17.9697 17.7203C17.829 17.5796 17.75 17.3889 17.75 17.1899C17.75 16.991 17.829 16.8003 17.9697 16.6596C18.1103 16.519 18.3011 16.4399 18.5 16.4399H29.5C29.6989 16.4399 29.8897 16.519 30.0303 16.6596C30.171 16.8003 30.25 16.991 30.25 17.1899C30.25 17.3889 30.171 17.5796 30.0303 17.7203C29.8897 17.8609 29.6989 17.9399 29.5 17.9399Z" fill="black"/>
</svg>
