<svg width="47" height="47" viewBox="0 0 47 47" fill="none" xmlns="http://www.w3.org/2000/svg">
<rect x="0.5" y="0.5" width="46" height="46" rx="23" fill="#D5FFE4" stroke="#17C653"/>
<path d="M31.86 19.68H16.14C15.5061 19.68 14.8982 19.4282 14.45 18.98C14.0018 18.5318 13.75 17.9239 13.75 17.29V16.14C13.75 15.5061 14.0018 14.8982 14.45 14.45C14.8982 14.0018 15.5061 13.75 16.14 13.75H31.86C32.4939 13.75 33.1018 14.0018 33.55 14.45C33.9982 14.8982 34.25 15.5061 34.25 16.14V17.29C34.25 17.9239 33.9982 18.5318 33.55 18.98C33.1018 19.4282 32.4939 19.68 31.86 19.68ZM16.14 15.25C15.904 15.25 15.6776 15.3438 15.5107 15.5107C15.3438 15.6776 15.25 15.904 15.25 16.14V17.29C15.25 17.526 15.3438 17.7524 15.5107 17.9193C15.6776 18.0862 15.904 18.18 16.14 18.18H31.86C31.9769 18.18 32.0926 18.157 32.2006 18.1123C32.3086 18.0675 32.4067 18.002 32.4893 17.9193C32.572 17.8367 32.6375 17.7386 32.6823 17.6306C32.727 17.5226 32.75 17.4069 32.75 17.29V16.14C32.75 16.0231 32.727 15.9074 32.6823 15.7994C32.6375 15.6914 32.572 15.5933 32.4893 15.5107C32.4067 15.428 32.3086 15.3625 32.2006 15.3177C32.0926 15.273 31.9769 15.25 31.86 15.25H16.14ZM18.34 34.25H16.14C15.5061 34.25 14.8982 33.9982 14.45 33.55C14.0018 33.1018 13.75 32.4939 13.75 31.86V23.6C13.75 22.9661 14.0018 22.3582 14.45 21.91C14.8982 21.4618 15.5061 21.21 16.14 21.21H18.34C18.9721 21.2126 19.5775 21.4656 20.0235 21.9135C20.4696 22.3615 20.72 22.9679 20.72 23.6V31.86C20.72 32.4921 20.4696 33.0985 20.0235 33.5465C19.5775 33.9944 18.9721 34.2474 18.34 34.25ZM16.14 22.71C15.904 22.71 15.6776 22.8038 15.5107 22.9707C15.3438 23.1376 15.25 23.364 15.25 23.6V31.86C15.25 31.9769 15.273 32.0926 15.3177 32.2006C15.3625 32.3086 15.428 32.4067 15.5107 32.4893C15.5933 32.572 15.6914 32.6375 15.7994 32.6823C15.9074 32.727 16.0231 32.75 16.14 32.75H18.34C18.5743 32.7474 18.7981 32.6524 18.9629 32.4858C19.1276 32.3192 19.22 32.0943 19.22 31.86V23.6C19.22 23.3657 19.1276 23.1408 18.9629 22.9742C18.7981 22.8076 18.5743 22.7126 18.34 22.71H16.14ZM31.83 34.25H24.66C24.019 34.2474 23.405 33.9916 22.9517 33.5383C22.4984 33.085 22.2426 32.471 22.24 31.83V23.64C22.24 22.9973 22.4946 22.3807 22.9482 21.9253C23.4017 21.4698 24.0173 21.2126 24.66 21.21H31.83C32.4727 21.2126 33.0883 21.4698 33.5418 21.9253C33.9954 22.3807 34.25 22.9973 34.25 23.64V31.83C34.2474 32.471 33.9916 33.085 33.5383 33.5383C33.085 33.9916 32.471 34.2474 31.83 34.25ZM24.66 22.71C24.4151 22.7126 24.1811 22.8118 24.0088 22.9859C23.8366 23.16 23.74 23.3951 23.74 23.64V31.83C23.74 32.074 23.8369 32.308 24.0095 32.4805C24.182 32.6531 24.416 32.75 24.66 32.75H31.83C32.074 32.75 32.308 32.6531 32.4805 32.4805C32.6531 32.308 32.75 32.074 32.75 31.83V23.64C32.75 23.3951 32.6534 23.16 32.4812 22.9859C32.3089 22.8118 32.0749 22.7126 31.83 22.71H24.66Z" fill="#17C653"/>
</svg>
