<svg width="24" height="24" viewBox="0 0 24 24" fill="none" xmlns="http://www.w3.org/2000/svg">
<path d="M12.76 21.75C12.0883 21.7507 11.4183 21.6837 10.76 21.55C9.38048 21.2758 8.07539 20.7102 6.93201 19.8911C5.78864 19.0719 4.83335 18.0181 4.13003 16.8C3.39207 15.5503 2.93499 14.1549 2.79051 12.7108C2.64604 11.2667 2.81764 9.8084 3.2934 8.43726C3.76916 7.06612 4.53768 5.81497 5.54558 4.7707C6.55348 3.72642 7.77661 2.91405 9.13002 2.39C9.50939 2.24788 9.92176 2.21852 10.3174 2.30546C10.7131 2.3924 11.0752 2.59194 11.36 2.88C11.6325 3.15168 11.8208 3.49619 11.9024 3.87222C11.984 4.24825 11.9554 4.63983 11.82 5C11.3696 6.09142 11.2111 7.28133 11.3601 8.45261C11.5091 9.62388 11.9606 10.7362 12.67 11.68C13.3924 12.6509 14.3578 13.4143 15.4691 13.8936C16.5803 14.3728 17.7981 14.5509 19 14.41C19.388 14.3607 19.7818 14.4298 20.1297 14.6083C20.4777 14.7867 20.7637 15.0662 20.95 15.41C21.156 15.7594 21.2553 16.1614 21.2357 16.5664C21.2162 16.9715 21.0786 17.3621 20.84 17.69C20.2589 18.4929 19.5573 19.2012 18.76 19.79C17.0241 21.074 14.9192 21.7616 12.76 21.75ZM9.91002 3.75C9.84075 3.73572 9.7693 3.73572 9.70002 3.75C8.54684 4.19232 7.5039 4.88064 6.6438 5.76705C5.7837 6.65345 5.12711 7.71665 4.71973 8.88264C4.31235 10.0486 4.16396 11.2894 4.28491 12.5186C4.40585 13.7477 4.79321 14.9358 5.42003 16C6.0261 17.033 6.84317 17.9267 7.81793 18.6226C8.79269 19.3186 9.90322 19.8012 11.0771 20.039C12.2509 20.2768 13.4617 20.2644 14.6305 20.0027C15.7993 19.7409 16.8997 19.2357 17.86 18.52C18.5322 18.0145 19.1283 17.4151 19.63 16.74C19.6941 16.6456 19.7283 16.5341 19.7283 16.42C19.7283 16.3059 19.6941 16.1944 19.63 16.1C19.5873 16.0148 19.5191 15.9449 19.4349 15.9001C19.3507 15.8553 19.2546 15.8378 19.16 15.85C17.7222 16.0221 16.2643 15.8169 14.9299 15.2545C13.5954 14.6921 12.4304 13.7919 11.5495 12.6426C10.6686 11.4932 10.1021 10.1343 9.9058 8.69959C9.70951 7.26485 9.89018 5.80372 10.43 4.46C10.4658 4.37062 10.4744 4.27269 10.4549 4.17844C10.4353 4.08418 10.3884 3.99777 10.32 3.93C10.267 3.87433 10.2035 3.82974 10.1331 3.79884C10.0627 3.76794 9.98688 3.75134 9.91002 3.75Z" fill="black"/>
</svg>
