<svg width="48" height="48" viewBox="0 0 48 48" fill="none" xmlns="http://www.w3.org/2000/svg">
<rect x="0.810059" y="0.5" width="47" height="47" rx="23.5" fill="white"/>
<rect x="10.4019" y="6.7666" width="27.8163" height="33.4222" rx="13.9082" fill="white"/>
<path d="M25.57 33.7498C24.8983 33.7505 24.2282 33.6835 23.57 33.5498C22.1904 33.2756 20.8853 32.71 19.742 31.8909C18.5986 31.0717 17.6433 30.0179 16.94 28.7998C16.202 27.5501 15.7449 26.1547 15.6005 24.7106C15.456 23.2665 15.6276 21.8082 16.1033 20.4371C16.5791 19.0659 17.3476 17.8148 18.3555 16.7705C19.3634 15.7262 20.5865 14.9139 21.94 14.3898C22.3193 14.2477 22.7317 14.2183 23.1274 14.3053C23.523 14.3922 23.8851 14.5918 24.17 14.8798C24.4424 15.1515 24.6308 15.496 24.7124 15.872C24.794 16.2481 24.7653 16.6396 24.63 16.9998C24.1795 18.0912 24.021 19.2811 24.17 20.4524C24.3191 21.6237 24.7705 22.736 25.48 23.6798C26.2024 24.6507 27.1678 25.4141 28.279 25.8934C29.3902 26.3726 30.608 26.5508 31.81 26.4098C32.1979 26.3605 32.5917 26.4297 32.9397 26.6081C33.2877 26.7866 33.5736 27.066 33.76 27.4098C33.9659 27.7592 34.0652 28.1612 34.0457 28.5663C34.0261 28.9713 33.8886 29.3619 33.65 29.6898C33.0688 30.4927 32.3672 31.201 31.57 31.7898C29.834 33.0738 27.7291 33.7614 25.57 33.7498ZM22.72 15.7498C22.6507 15.7355 22.5792 15.7355 22.51 15.7498C21.3568 16.1921 20.3138 16.8805 19.4537 17.7669C18.5936 18.6533 17.937 19.7165 17.5297 20.8825C17.1223 22.0484 16.9739 23.2892 17.0948 24.5184C17.2158 25.7475 17.6031 26.9356 18.23 27.9998C18.836 29.0329 19.6531 29.9265 20.6279 30.6224C21.6026 31.3184 22.7132 31.801 23.887 32.0388C25.0609 32.2766 26.2717 32.2642 27.4404 32.0025C28.6092 31.7408 29.7096 31.2355 30.67 30.5198C31.3422 30.0143 31.9383 29.4149 32.44 28.7398C32.504 28.6454 32.5383 28.5339 32.5383 28.4198C32.5383 28.3057 32.504 28.1942 32.44 28.0998C32.3972 28.0146 32.329 27.9447 32.2448 27.8999C32.1606 27.8551 32.0646 27.8376 31.97 27.8498C30.5321 28.0219 29.0742 27.8167 27.7398 27.2543C26.4054 26.6919 25.2404 25.7917 24.3594 24.6424C23.4785 23.4931 22.912 22.1341 22.7157 20.6994C22.5194 19.2647 22.7001 17.8035 23.24 16.4598C23.2757 16.3704 23.2844 16.2725 23.2648 16.1783C23.2452 16.084 23.1983 15.9976 23.13 15.9298C23.077 15.8741 23.0134 15.8296 22.943 15.7987C22.8726 15.7678 22.7968 15.7512 22.72 15.7498Z" fill="black"/>
</svg>
