<svg width="36" height="36" viewBox="0 0 36 36" fill="none" xmlns="http://www.w3.org/2000/svg">
<path opacity="0.3" d="M32.1 12.525L28.875 15.765L20.235 7.12501L23.475 3.90001C23.7548 3.60966 24.0903 3.37872 24.4614 3.22098C24.8326 3.06323 25.2317 2.98193 25.635 2.98193C26.0382 2.98193 26.4373 3.06323 26.8085 3.22098C27.1796 3.37872 27.5151 3.60966 27.795 3.90001L32.1 8.20501C32.3903 8.48486 32.6212 8.82038 32.779 9.1915C32.9367 9.56263 33.018 9.96175 33.018 10.365C33.018 10.7683 32.9367 11.1674 32.779 11.5385C32.6212 11.9096 32.3903 12.2452 32.1 12.525ZM5.53495 32.895L14.835 29.805L6.19495 21.165L3.10495 30.465C2.9917 30.8035 2.97504 31.1669 3.05685 31.5143C3.13866 31.8617 3.3157 32.1795 3.56809 32.4319C3.82048 32.6843 4.13823 32.8613 4.48567 32.9431C4.8331 33.0249 5.19646 33.0083 5.53495 32.895Z" fill="black"/>
<path d="M8.35495 31.95L5.53495 32.895C5.19646 33.0083 4.8331 33.0249 4.48567 32.9431C4.13823 32.8613 3.82048 32.6843 3.56809 32.4319C3.3157 32.1795 3.13866 31.8617 3.05685 31.5143C2.97504 31.1669 2.9917 30.8035 3.10495 30.465L4.04995 27.645L8.35495 31.95ZM6.19495 21.165L14.835 29.805L28.875 15.765L20.235 7.125L6.19495 21.165Z" fill="black"/>
</svg>
