<svg width="36" height="36" viewBox="0 0 36 36" fill="none" xmlns="http://www.w3.org/2000/svg">
<path d="M27.615 21.78V26.565C27.6186 27.5881 27.3144 28.5887 26.742 29.4367C26.1695 30.2847 25.3552 30.9409 24.405 31.32L20.085 33C18.8721 33.4873 17.5178 33.4873 16.305 33L11.64 31.26C10.6801 30.8853 9.85573 30.2294 9.27492 29.3783C8.69411 28.5272 8.38391 27.5204 8.38495 26.49V21.855L14.1 25.65C15.2682 26.4361 16.6443 26.856 18.0525 26.856C19.4606 26.856 20.8367 26.4361 22.005 25.65L27.615 21.78ZM29.88 9.36001L20.385 3.36001C19.5888 2.85954 18.6643 2.60157 17.7241 2.61755C16.7838 2.63353 15.8686 2.92278 15.09 3.45001L5.99995 9.58501C5.34408 10.0254 4.80664 10.6204 4.43502 11.3175C4.0634 12.0146 3.86902 12.7925 3.86902 13.5825C3.86902 14.3725 4.0634 15.1504 4.43502 15.8475C4.80664 16.5446 5.34408 17.1396 5.99995 17.58L15.315 23.775C16.1119 24.3148 17.0524 24.6033 18.015 24.6033C18.9775 24.6033 19.918 24.3148 20.715 23.775L29.715 17.625V22.335C29.715 22.6334 29.8335 22.9195 30.0445 23.1305C30.2554 23.3415 30.5416 23.46 30.84 23.46C31.1383 23.46 31.4245 23.3415 31.6354 23.1305C31.8464 22.9195 31.965 22.6334 31.965 22.335V14.52C32.1943 13.5499 32.1169 12.5325 31.7435 11.6083C31.37 10.684 30.7189 9.89846 29.88 9.36001Z" fill="black"/>
</svg>
