<svg width="20" height="20" viewBox="0 0 20 20" fill="none" xmlns="http://www.w3.org/2000/svg">
<path d="M10.57 19.7503C9.89827 19.751 9.22822 19.684 8.56996 19.5503C7.19042 19.2761 5.88532 18.7105 4.74195 17.8914C3.59858 17.0722 2.64329 16.0184 1.93996 14.8003C1.20201 13.5506 0.744924 12.1552 0.600451 10.7111C0.455979 9.26697 0.627581 7.8087 1.10334 6.43756C1.5791 5.06642 2.34761 3.81528 3.35551 2.771C4.36341 1.72673 5.58654 0.914359 6.93996 0.390308C7.31932 0.248186 7.7317 0.218826 8.12737 0.305767C8.52304 0.392709 8.88512 0.592241 9.16996 0.880308C9.44244 1.15198 9.63077 1.49649 9.71236 1.87252C9.79395 2.24855 9.76534 2.64013 9.62996 3.00031C9.17951 4.09173 9.021 5.28163 9.17004 6.45291C9.31908 7.62419 9.77053 8.73648 10.48 9.68031C11.2024 10.6512 12.1678 11.4146 13.279 11.8939C14.3902 12.3731 15.608 12.5512 16.81 12.4103C17.1979 12.361 17.5917 12.4301 17.9397 12.6086C18.2877 12.787 18.5736 13.0665 18.76 13.4103C18.9659 13.7597 19.0652 14.1617 19.0457 14.5667C19.0261 14.9718 18.8886 15.3624 18.65 15.6903C18.0688 16.4932 17.3672 17.2015 16.57 17.7903C14.834 19.0743 12.7291 19.7619 10.57 19.7503ZM7.71996 1.75031C7.65069 1.73603 7.57923 1.73603 7.50996 1.75031C6.35677 2.19263 5.31384 2.88094 4.45374 3.76735C3.59364 4.65376 2.93705 5.71696 2.52967 6.88294C2.12229 8.04893 1.9739 9.28969 2.09484 10.5189C2.21578 11.748 2.60314 12.9361 3.22996 14.0003C3.83604 15.0333 4.65311 15.927 5.62787 16.6229C6.60262 17.3189 7.71316 17.8015 8.88702 18.0393C10.0609 18.2771 11.2717 18.2647 12.4404 18.003C13.6092 17.7412 14.7096 17.236 15.67 16.5203C16.3422 16.0148 16.9383 15.4154 17.44 14.7403C17.504 14.6459 17.5383 14.5344 17.5383 14.4203C17.5383 14.3062 17.504 14.1947 17.44 14.1003C17.3972 14.0151 17.329 13.9452 17.2448 13.9004C17.1606 13.8556 17.0646 13.8381 16.97 13.8503C15.5321 14.0224 14.0742 13.8172 12.7398 13.2548C11.4054 12.6924 10.2404 11.7922 9.35943 10.6429C8.4785 9.49354 7.91202 8.13463 7.71573 6.69989C7.51944 5.26515 7.70011 3.80403 8.23996 2.46031C8.27572 2.37093 8.28435 2.273 8.26479 2.17874C8.24522 2.08448 8.19833 1.99808 8.12996 1.93031C8.07696 1.87463 8.01342 1.83005 7.94303 1.79915C7.87265 1.76825 7.79682 1.75164 7.71996 1.75031Z" fill="black"/>
</svg>
