<svg width="19" height="23" viewBox="0 0 19 23" fill="none" xmlns="http://www.w3.org/2000/svg">
<path d="M18.7701 3.69043V6.09043C18.7678 6.50981 18.6777 6.92406 18.5054 7.30644C18.3332 7.68882 18.0827 8.03085 17.7701 8.31043L16.6201 9.31043C16.4716 9.44304 16.2765 9.51121 16.0777 9.49996C15.8789 9.48871 15.6927 9.39895 15.5601 9.25043C15.4275 9.10191 15.3593 8.90679 15.3706 8.708C15.3818 8.50922 15.4716 8.32304 15.6201 8.19043L16.7601 7.19043C16.9143 7.05166 17.0376 6.88202 17.122 6.69252C17.2064 6.50302 17.2501 6.29788 17.2501 6.09043V3.69043C17.2501 3.30321 17.0963 2.93186 16.8225 2.65805C16.5487 2.38425 16.1773 2.23043 15.7901 2.23043H3.0601C2.67288 2.23043 2.30153 2.38425 2.02772 2.65805C1.75392 2.93186 1.6001 3.30321 1.6001 3.69043V6.18043C1.60751 6.55511 1.75775 6.91282 2.0201 7.18043L5.7801 10.9904C6.63365 11.8485 7.11197 13.0101 7.1101 14.2204V19.5004C7.1149 19.7311 7.18145 19.9562 7.30282 20.1523C7.4242 20.3485 7.59595 20.5085 7.80018 20.6157C8.00442 20.723 8.23367 20.7735 8.46406 20.762C8.69445 20.7505 8.91754 20.6774 9.1101 20.5504L10.4701 19.5504C10.5509 19.4933 10.6421 19.4526 10.7386 19.4308C10.835 19.4089 10.9349 19.4063 11.0324 19.423C11.1299 19.4397 11.2231 19.4754 11.3068 19.5282C11.3905 19.5809 11.463 19.6497 11.5201 19.7304C11.5772 19.8112 11.6179 19.9024 11.6398 19.9989C11.6616 20.0954 11.6643 20.1952 11.6476 20.2927C11.6308 20.3902 11.5951 20.4835 11.5423 20.5671C11.4896 20.6508 11.4209 20.7233 11.3401 20.7804L9.9701 21.7804C9.5526 22.0647 9.06579 22.2302 8.56157 22.2595C8.05735 22.2887 7.55465 22.1806 7.10709 21.9465C6.65953 21.7125 6.28389 21.3613 6.02025 20.9305C5.75661 20.4998 5.61485 20.0055 5.6101 19.5004V14.2504C5.61012 13.4334 5.28652 12.6495 4.7101 12.0704L1.0001 8.26043C0.439673 7.71144 0.116593 6.96477 0.100098 6.18043V3.69043C0.100098 2.89478 0.416168 2.13172 0.978777 1.56911C1.54139 1.0065 2.30445 0.69043 3.1001 0.69043H15.8101C16.5988 0.700947 17.3516 1.02165 17.9056 1.58313C18.4596 2.1446 18.7702 2.90166 18.7701 3.69043ZM17.6301 14.0904L16.8601 14.8704L14.2701 17.5004C14.0728 17.6992 13.8231 17.8379 13.5501 17.9004L12.4901 18.1204C12.3903 18.1303 12.2899 18.1303 12.1901 18.1204C11.8152 18.114 11.4571 17.9636 11.1901 17.7004C11.0189 17.5329 10.8918 17.3256 10.8203 17.097C10.7487 16.8684 10.7349 16.6257 10.7801 16.3904L10.9801 15.3304C11.0283 15.0537 11.1611 14.7987 11.3601 14.6004L14.7101 11.1704C14.8552 11.0237 15.0281 10.9075 15.2187 10.8285C15.4093 10.7495 15.6138 10.7094 15.8201 10.7104C16.2356 10.7148 16.6333 10.8796 16.9301 11.1704L17.5801 11.8104C17.7358 11.9552 17.8609 12.1298 17.9479 12.3238C18.035 12.5178 18.0822 12.7273 18.0869 12.9399C18.0915 13.1524 18.0535 13.3638 17.9751 13.5614C17.8966 13.7591 17.7793 13.9389 17.6301 14.0904ZM15.7601 12.2604L15.1801 12.8604C15.2425 13.0456 15.355 13.21 15.505 13.3353C15.655 13.4606 15.8367 13.542 16.0301 13.5704L16.5501 13.0404C16.5501 13.0404 16.5501 12.9604 16.5501 12.9204L15.9001 12.2804C15.8737 12.2748 15.8465 12.2748 15.8201 12.2804L15.7601 12.2604ZM14.8901 14.7404C14.5682 14.5481 14.2946 14.2847 14.0901 13.9704L12.4101 15.6904L12.2301 16.6904L13.2301 16.4304L14.8901 14.7404Z" fill="#EA5E20"/>
</svg>
