<svg width="22" height="23" viewBox="0 0 22 23" fill="none" xmlns="http://www.w3.org/2000/svg">
<path d="M15.0509 22.25H7.0009C5.22476 22.2474 3.52213 21.5406 2.26621 20.2847C1.01029 19.0288 0.303546 17.3261 0.300901 15.55V7.5C0.295632 6.61631 0.464971 5.74028 0.799194 4.92222C1.13342 4.10416 1.62594 3.36017 2.24849 2.73298C2.87104 2.10578 3.61134 1.60774 4.4269 1.26745C5.24245 0.927149 6.1172 0.751301 7.0009 0.75H15.1009C16.877 0.765851 18.5744 1.48528 19.821 2.75059C21.0675 4.01589 21.7616 5.72383 21.7509 7.5V15.6C21.7351 17.3675 21.0226 19.0573 19.7681 20.3024C18.5135 21.5476 16.8184 22.2474 15.0509 22.25ZM7.0009 2.25C6.3096 2.24332 5.62391 2.37455 4.98394 2.63603C4.34396 2.8975 3.76255 3.28396 3.2737 3.7728C2.78486 4.26165 2.3984 4.84306 2.13693 5.48304C1.87546 6.12301 1.74422 6.8087 1.7509 7.5V15.6C1.75744 16.2829 1.89842 16.9578 2.1658 17.5862C2.43318 18.2146 2.82172 18.7842 3.30923 19.2624C3.79675 19.7406 4.37368 20.1181 5.0071 20.3734C5.64052 20.6286 6.31802 20.7566 7.0009 20.75H15.1009C16.4792 20.7474 17.8003 20.1987 18.7749 19.224C19.7496 18.2494 20.2983 16.9283 20.3009 15.55V7.5C20.2983 6.12169 19.7496 4.80058 18.7749 3.82596C17.8003 2.85135 16.4792 2.30264 15.1009 2.3L7.0009 2.25ZM17.6709 7.42C17.6709 7.22109 17.5919 7.03032 17.4512 6.88967C17.3106 6.74902 17.1198 6.67 16.9209 6.67H5.0809C4.88199 6.67 4.69122 6.74902 4.55057 6.88967C4.40992 7.03032 4.3309 7.22109 4.3309 7.42C4.3309 7.61891 4.40992 7.80968 4.55057 7.95033C4.69122 8.09098 4.88199 8.17 5.0809 8.17H16.9209C17.119 8.16741 17.3083 8.08756 17.4484 7.94747C17.5885 7.80737 17.6683 7.61811 17.6709 7.42ZM17.6709 11.42C17.6709 11.2211 17.5919 11.0303 17.4512 10.8897C17.3106 10.749 17.1198 10.67 16.9209 10.67H5.0809C4.88199 10.67 4.69122 10.749 4.55057 10.8897C4.40992 11.0303 4.3309 11.2211 4.3309 11.42C4.3309 11.6189 4.40992 11.8097 4.55057 11.9503C4.69122 12.091 4.88199 12.17 5.0809 12.17H16.9209C17.119 12.1674 17.3083 12.0876 17.4484 11.9475C17.5885 11.8074 17.6683 11.6181 17.6709 11.42ZM17.6709 15.47C17.6709 15.2711 17.5919 15.0803 17.4512 14.9397C17.3106 14.799 17.1198 14.72 16.9209 14.72H5.0809C4.88199 14.72 4.69122 14.799 4.55057 14.9397C4.40992 15.0803 4.3309 15.2711 4.3309 15.47C4.3309 15.6689 4.40992 15.8597 4.55057 16.0003C4.69122 16.141 4.88199 16.22 5.0809 16.22H16.9209C17.114 16.2177 17.299 16.142 17.4383 16.0083C17.5776 15.8746 17.6608 15.6928 17.6709 15.5V15.47Z" fill="white"/>
</svg>
