<svg width="24" height="24" viewBox="0 0 24 24" fill="none" xmlns="http://www.w3.org/2000/svg">
<path d="M12.2598 23.2471C11.1624 23.2479 10.0988 22.8925 9.25062 22.2416L3.99892 18.2305C3.45347 17.8157 3.01419 17.2921 2.71327 16.698C2.41235 16.1039 2.25741 15.4544 2.25979 14.797V6.93529C2.26028 6.08593 2.52141 5.25454 3.0122 4.53977C3.50299 3.825 4.20283 3.25687 5.02866 2.9028L10.2804 0.656591C10.9004 0.386841 11.5759 0.24707 12.2598 0.24707C12.9436 0.24707 13.6192 0.386841 14.2392 0.656591L19.4909 2.9028C20.3167 3.25687 21.0165 3.825 21.5073 4.53977C21.9981 5.25454 22.2593 6.08593 22.2597 6.93529V14.797C22.2621 15.4544 22.1072 16.1039 21.8063 16.698C21.5053 17.2921 21.0661 17.8157 20.5206 18.2305L15.2689 22.2416C14.4207 22.8925 13.3571 23.2479 12.2598 23.2471ZM12.2598 1.85457C11.8245 1.85756 11.3951 1.94879 11.0012 2.12198L5.74949 4.35749C5.22153 4.58413 4.77399 4.94728 4.45974 5.40407C4.14548 5.86086 3.97764 6.39219 3.97604 6.93529V14.797C3.98611 15.2104 4.09392 15.6166 4.29173 15.9865C4.48955 16.3564 4.77247 16.6807 5.1202 16.9363L10.3719 20.9474C10.9149 21.3609 11.5938 21.5867 12.2941 21.5867C12.9944 21.5867 13.6733 21.3609 14.2163 20.9474L19.468 16.9363C19.8157 16.6807 20.0986 16.3564 20.2964 15.9865C20.4943 15.6166 20.6021 15.2104 20.6121 14.797V6.93529C20.6105 6.39219 20.4427 5.86086 20.1284 5.40407C19.8142 4.94728 19.3666 4.58413 18.8387 4.35749L13.5183 2.12198C13.1244 1.94879 12.695 1.85756 12.2598 1.85457ZM11.3444 14.4975L16.127 10.1442C16.2877 9.99375 16.378 9.78985 16.378 9.57726C16.378 9.36467 16.2877 9.16078 16.127 9.01036C15.9661 8.86013 15.748 8.77575 15.5206 8.77575C15.2932 8.77575 15.0751 8.86013 14.9142 9.01036L10.7609 12.8182L9.61675 11.7486C9.5502 11.6478 9.46059 11.562 9.35437 11.4974C9.24814 11.4329 9.12794 11.3911 9.00238 11.3751C8.87683 11.3591 8.74905 11.3693 8.62821 11.4049C8.50738 11.4406 8.39649 11.5008 8.30351 11.5813C8.21053 11.6618 8.13778 11.7605 8.09046 11.8704C8.04315 11.9803 8.02246 12.0986 8.02987 12.2169C8.03729 12.3351 8.07262 12.4504 8.13334 12.5544C8.19406 12.6583 8.27866 12.7484 8.38106 12.8182L10.1316 14.4975C10.212 14.5748 10.3081 14.6363 10.4141 14.6786C10.5202 14.7208 10.6342 14.7429 10.7495 14.7436C10.8611 14.7412 10.9711 14.7183 11.0732 14.6761C11.1753 14.6339 11.2675 14.5732 11.3444 14.4975Z" fill="#17C653"/>
</svg>
