<svg width="57" height="57" viewBox="0 0 57 57" fill="none" xmlns="http://www.w3.org/2000/svg">
<path d="M24.3672 56.5869C21.761 56.5888 19.2349 55.7448 17.2205 54.199L4.74768 44.6726C3.45223 43.6874 2.40895 42.4438 1.69426 41.0328C0.979573 39.6218 0.611584 38.0792 0.617252 36.5181V17.8464C0.618403 15.8292 1.23859 13.8546 2.40422 12.1571C3.56984 10.4595 5.23196 9.11019 7.19332 8.26928L19.6661 2.93453C21.1386 2.29387 22.7431 1.96191 24.3672 1.96191C25.9913 1.96191 27.5958 2.29387 29.0683 2.93453L41.541 8.26928C43.5024 9.11019 45.1645 10.4595 46.3302 12.1571C47.4958 13.8546 48.116 15.8292 48.1171 17.8464V36.5181C48.1228 38.0792 47.7548 39.6218 47.0401 41.0328C46.3254 42.4438 45.2821 43.6874 43.9867 44.6726L31.5139 54.199C29.4995 55.7448 26.9734 56.5888 24.3672 56.5869ZM24.3672 5.77973C23.3334 5.78682 22.3136 6.0035 21.3781 6.41482L8.90527 11.7242C7.65138 12.2624 6.58848 13.1249 5.84212 14.2098C5.09576 15.2947 4.69713 16.5566 4.69333 17.8464V36.5181C4.71725 37.4999 4.9733 38.4646 5.44311 39.3431C5.91293 40.2215 6.58486 40.9918 7.41071 41.5988L19.8835 51.1251C21.1731 52.1072 22.7854 52.6434 24.4487 52.6434C26.112 52.6434 27.7244 52.1072 29.0139 51.1251L41.4867 41.5988C42.3126 40.9918 42.9845 40.2215 43.4543 39.3431C43.9241 38.4646 44.1802 37.4999 44.2041 36.5181V17.8464C44.2003 16.5566 43.8017 15.2947 43.0553 14.2098C42.3089 13.1249 41.246 12.2624 39.9921 11.7242L27.3563 6.41482C26.4208 6.0035 25.401 5.78682 24.3672 5.77973ZM22.1933 35.8068L33.5519 25.4675C33.9336 25.1103 34.148 24.626 34.148 24.1211C34.148 23.6162 33.9336 23.132 33.5519 22.7747C33.1698 22.4179 32.6518 22.2175 32.1117 22.2175C31.5716 22.2175 31.0536 22.4179 30.6715 22.7747L20.8074 31.8184L18.09 29.278C17.932 29.0386 17.7191 28.8349 17.4669 28.6815C17.2146 28.5282 16.9291 28.4289 16.6309 28.3909C16.3327 28.3529 16.0292 28.3772 15.7422 28.4619C15.4553 28.5465 15.1919 28.6896 14.9711 28.8807C14.7503 29.0719 14.5775 29.3064 14.4651 29.5674C14.3527 29.8284 14.3036 30.1094 14.3212 30.3902C14.3388 30.6711 14.4227 30.9448 14.5669 31.1917C14.7111 31.4387 14.9121 31.6527 15.1553 31.8184L19.3129 35.8068C19.5038 35.9902 19.7319 36.1364 19.9838 36.2367C20.2357 36.337 20.5064 36.3895 20.7802 36.3911C21.0453 36.3856 21.3067 36.3311 21.5492 36.2309C21.7917 36.1306 22.0106 35.9865 22.1933 35.8068Z" fill="#17C653"/>
</svg>
