<svg width="22" height="22" viewBox="0 0 22 22" fill="none" xmlns="http://www.w3.org/2000/svg">
<path d="M10.49 12.2401C11.6177 12.2401 12.7202 11.9055 13.6577 11.2788C14.5953 10.652 15.3259 9.76119 15.757 8.71907C16.1881 7.67695 16.3004 6.53036 16.0797 5.42439C15.8589 4.31843 15.3151 3.3028 14.5169 2.50604C13.7188 1.70929 12.7022 1.1672 11.5958 0.948398C10.4895 0.729593 9.34308 0.843899 8.30172 1.27685C7.26035 1.70981 6.37083 2.44195 5.74571 3.38062C5.12059 4.3193 4.78797 5.42231 4.78995 6.55009C4.78995 7.29815 4.93746 8.03888 5.22403 8.72987C5.51061 9.42087 5.93062 10.0486 6.46005 10.5771C6.98947 11.1056 7.61791 11.5245 8.30941 11.8098C9.00091 12.0952 9.74189 12.2414 10.49 12.2401V12.2401ZM10.49 2.35009C11.3206 2.35009 12.1327 2.59642 12.8233 3.05792C13.514 3.51942 14.0524 4.17537 14.3702 4.94282C14.6881 5.71027 14.7713 6.55475 14.6092 7.36947C14.4472 8.18419 14.0472 8.93256 13.4598 9.51994C12.8724 10.1073 12.1241 10.5073 11.3093 10.6694C10.4946 10.8314 9.65013 10.7483 8.88268 10.4304C8.11523 10.1125 7.45928 9.57417 6.99778 8.88349C6.53628 8.1928 6.28995 7.38077 6.28995 6.55009C6.28995 5.43618 6.73245 4.36789 7.5201 3.58024C8.30775 2.79259 9.37604 2.35009 10.49 2.35009V2.35009ZM16.43 11.7301C15.7855 11.7288 15.1478 11.8614 14.5573 12.1197C13.9669 12.3779 13.4365 12.756 13 13.2301C12.174 13.0349 11.3286 12.9343 10.4799 12.9301C5.69995 12.9301 1.56995 16.0401 0.869951 20.1801C0.852772 20.2767 0.854976 20.3757 0.876433 20.4715C0.897891 20.5672 0.938174 20.6577 0.994938 20.7378C1.0517 20.8178 1.12382 20.8857 1.20708 20.9376C1.29035 20.9895 1.3831 21.0244 1.47995 21.0401H1.60995C1.78602 21.0385 1.95607 20.9758 2.09104 20.8627C2.22601 20.7496 2.31752 20.5932 2.34995 20.4201C2.91995 17.0001 6.41995 14.4201 10.4799 14.4201C11.0232 14.4254 11.565 14.4755 12.1 14.5701C11.8425 15.1564 11.7096 15.7898 11.71 16.4301C11.71 17.3616 11.9862 18.2723 12.5037 19.0468C13.0213 19.8214 13.7569 20.4251 14.6175 20.7816C15.4782 21.1381 16.4252 21.2313 17.3388 21.0496C18.2525 20.8679 19.0917 20.4193 19.7504 19.7606C20.4091 19.1019 20.8577 18.2626 21.0394 17.349C21.2212 16.4353 21.1279 15.4883 20.7714 14.6277C20.4149 13.767 19.8112 13.0314 19.0367 12.5139C18.2621 11.9963 17.3515 11.7201 16.42 11.7201L16.43 11.7301ZM16.43 19.6501C15.7947 19.6521 15.173 19.4655 14.6439 19.114C14.1147 18.7625 13.7017 18.2618 13.4572 17.6754C13.2127 17.0891 13.1477 16.4433 13.2704 15.82C13.3931 15.1967 13.6981 14.6238 14.1466 14.1738C14.5951 13.7239 15.1671 13.4172 15.79 13.2925C16.413 13.1679 17.0589 13.2308 17.646 13.4735C18.2332 13.7162 18.7351 14.1276 19.0883 14.6557C19.4414 15.1838 19.6299 15.8048 19.6299 16.4401C19.63 17.2897 19.2931 18.1047 18.6933 18.7064C18.0935 19.3081 17.2796 19.6474 16.43 19.6501ZM18.43 14.8901C18.5746 15.0095 18.6677 15.1799 18.69 15.3661C18.7124 15.5523 18.6622 15.7399 18.5499 15.8901L16.87 18.0401C16.7991 18.129 16.7095 18.2011 16.6075 18.2512C16.5054 18.3014 16.3936 18.3283 16.28 18.3301C16.1675 18.3297 16.0566 18.3033 15.956 18.253C15.8554 18.2027 15.7677 18.1298 15.7 18.0401L14.4799 16.4901C14.3712 16.3378 14.3241 16.1501 14.3482 15.9645C14.3724 15.779 14.4659 15.6095 14.61 15.4901C14.7601 15.3778 14.9478 15.3277 15.134 15.35C15.3201 15.3724 15.4906 15.4655 15.61 15.6101L16.24 16.4201L17.3799 15.0001C17.5034 14.8477 17.6822 14.7505 17.8772 14.7299C18.0722 14.7093 18.2674 14.7669 18.42 14.8901H18.43Z" fill="#17C653"/>
</svg>
