<svg width="65" height="65" viewBox="0 0 65 65" fill="none" xmlns="http://www.w3.org/2000/svg">
<path d="M31.1186 35.8579C34.173 35.8579 37.1587 34.9518 39.698 33.2543C42.2373 31.5568 44.2159 29.1442 45.3835 26.3218C46.5512 23.4994 46.8553 20.3941 46.2574 17.3987C45.6596 14.4034 44.1866 11.6528 42.0249 9.49488C39.8632 7.33699 37.11 5.86885 34.1136 5.27625C31.1173 4.68365 28.0125 4.99323 25.1921 6.16581C22.3717 7.3384 19.9626 9.32127 18.2696 11.8635C16.5765 14.4058 15.6757 17.3931 15.6811 20.4475C15.6811 22.4735 16.0806 24.4796 16.8567 26.3511C17.6328 28.2225 18.7704 29.9226 20.2042 31.3539C21.6381 32.7852 23.3401 33.9198 25.2129 34.6926C27.0857 35.4655 29.0926 35.8615 31.1186 35.8579V35.8579ZM31.1186 9.0725C33.3683 9.0725 35.5676 9.73963 37.4382 10.9895C39.3088 12.2394 40.7668 14.016 41.6277 16.0945C42.4886 18.173 42.7139 20.4601 42.275 22.6667C41.8361 24.8732 40.7527 26.9 39.1619 28.4908C37.5711 30.0817 35.5443 31.165 33.3377 31.6039C31.1312 32.0428 28.8441 31.8176 26.7655 30.9566C24.687 30.0957 22.9105 28.6377 21.6606 26.7671C20.4107 24.8965 19.7436 22.6973 19.7436 20.4475C19.7436 17.4307 20.942 14.5374 23.0752 12.4042C25.2085 10.2709 28.1017 9.0725 31.1186 9.0725V9.0725ZM47.2061 34.4767C45.4607 34.4731 43.7336 34.8324 42.1344 35.5318C40.5352 36.2311 39.0989 37.2552 37.9165 38.5392C35.6796 38.0106 33.3899 37.738 31.0915 37.7267C18.1457 37.7267 6.96024 46.1496 5.0644 57.3621C5.01788 57.6237 5.02385 57.892 5.08196 58.1513C5.14008 58.4106 5.24917 58.6557 5.40291 58.8725C5.55665 59.0892 5.75196 59.2732 5.97747 59.4138C6.20298 59.5544 6.45419 59.6487 6.71649 59.6912H7.06857C7.54543 59.6869 8.00597 59.517 8.37151 59.2108C8.73705 58.9045 8.98491 58.4808 9.07274 58.0121C10.6165 48.7496 20.0957 41.7621 31.0915 41.7621C32.5627 41.7764 34.0302 41.9123 35.479 42.1683C34.7816 43.7562 34.4219 45.4716 34.4227 47.2058C34.4227 49.7288 35.1709 52.1951 36.5726 54.2928C37.9742 56.3906 39.9665 58.0256 42.2974 58.9911C44.6283 59.9566 47.1931 60.2092 49.6676 59.717C52.1421 59.2248 54.415 58.0099 56.199 56.2259C57.983 54.4419 59.1979 52.1689 59.6901 49.6945C60.1823 47.22 59.9297 44.6551 58.9642 42.3242C57.9987 39.9933 56.3637 38.0011 54.266 36.5994C52.1682 35.1977 49.7019 34.4496 47.179 34.4496L47.2061 34.4767ZM47.2061 55.9267C45.4855 55.932 43.802 55.4267 42.3687 54.4747C40.9355 53.5227 39.817 52.1668 39.1548 50.5787C38.4926 48.9906 38.3166 47.2417 38.649 45.5535C38.9814 43.8653 39.8072 42.3137 41.022 41.0951C42.2368 39.8766 43.7858 39.0459 45.4729 38.7083C47.1601 38.3706 48.9095 38.5412 50.4997 39.1984C52.0898 39.8556 53.4492 40.9699 54.4057 42.4001C55.3622 43.8304 55.8727 45.5123 55.8727 47.2329C55.8727 49.534 54.9605 51.7412 53.336 53.3708C51.7114 55.0004 49.5071 55.9195 47.2061 55.9267ZM52.6227 43.035C53.0144 43.3583 53.2666 43.8199 53.3271 44.3241C53.3876 44.8284 53.2518 45.3365 52.9477 45.7433L48.3977 51.5662C48.2059 51.807 47.9631 52.0023 47.6868 52.1381C47.4105 52.2739 47.1076 52.3468 46.7998 52.3517C46.4952 52.3506 46.1949 52.2792 45.9224 52.1429C45.6499 52.0067 45.4126 51.8093 45.229 51.5662L41.9248 47.3683C41.6302 46.956 41.5028 46.4474 41.5681 45.9449C41.6334 45.4424 41.8867 44.9833 42.2769 44.66C42.6837 44.356 43.1919 44.2201 43.6961 44.2806C44.2003 44.3411 44.6619 44.5934 44.9852 44.985L46.6915 47.1787L49.779 43.3329C50.1132 42.9202 50.5976 42.657 51.1257 42.6012C51.6538 42.5453 52.1825 42.7013 52.5957 43.035H52.6227Z" fill="#17C653"/>
</svg>
