<svg width="15" height="19" viewBox="0 0 15 19" fill="none" xmlns="http://www.w3.org/2000/svg">
<path d="M14.6478 15.6278C14.6518 15.7209 14.6367 15.8138 14.6034 15.9006C14.5701 15.9874 14.5193 16.066 14.4544 16.1314L11.9747 18.6406C11.918 18.7015 11.8498 18.7501 11.7743 18.7832C11.6987 18.8164 11.6173 18.8335 11.5351 18.8335C11.4528 18.8335 11.3714 18.8164 11.2959 18.7832C11.2203 18.7501 11.1521 18.7015 11.0954 18.6406L8.82681 16.1854C8.70745 16.0567 8.6409 15.8861 8.6409 15.7087C8.6409 15.5313 8.70745 15.3607 8.82681 15.2321C8.88208 15.1687 8.94982 15.118 9.02559 15.0833C9.10135 15.0485 9.18344 15.0306 9.26647 15.0306C9.34949 15.0306 9.43158 15.0485 9.50735 15.0833C9.58312 15.118 9.65085 15.1687 9.70612 15.2321L10.9108 16.5271V1.52599C10.906 1.35336 10.9679 1.18576 11.0831 1.0595C11.1984 0.93325 11.3576 0.858512 11.5263 0.851483C11.6958 0.85617 11.8568 0.928351 11.975 1.05266C12.0933 1.17696 12.1594 1.34357 12.1594 1.517V16.6081L13.5926 15.1511C13.6486 15.089 13.7166 15.0394 13.7923 15.0055C13.8679 14.9716 13.9497 14.954 14.0323 14.954C14.1149 14.954 14.1966 14.9716 14.2723 15.0055C14.348 15.0394 14.4159 15.089 14.4719 15.1511C14.5308 15.2146 14.5767 15.2894 14.6069 15.3713C14.6371 15.4531 14.651 15.5403 14.6478 15.6278ZM4.07858 1.03135C4.02265 0.969077 3.95471 0.919341 3.87903 0.885285C3.80336 0.85123 3.72161 0.833596 3.63893 0.833496C3.5551 0.834463 3.47229 0.852451 3.3953 0.886416C3.31832 0.920381 3.2487 0.969646 3.19049 1.03135L0.816369 3.57651C0.708225 3.70017 0.648437 3.86027 0.648438 4.02618C0.648437 4.1921 0.708225 4.35219 0.816369 4.47586C0.873686 4.53566 0.942094 4.58317 1.01759 4.6156C1.09308 4.64803 1.17414 4.66473 1.25602 4.66472C1.33887 4.66575 1.42096 4.64862 1.4968 4.6145C1.57263 4.58037 1.64044 4.53003 1.69567 4.46686L2.94428 3.1718V18.1639C2.94428 18.3333 3.01006 18.4957 3.12714 18.6154C3.24422 18.7352 3.40301 18.8025 3.56859 18.8025C3.73416 18.8025 3.89296 18.7352 4.01004 18.6154C4.12712 18.4957 4.19289 18.3333 4.19289 18.1639V3.0369L5.4415 4.37693C5.49881 4.43675 5.56721 4.48428 5.64271 4.51672C5.7182 4.54917 5.79926 4.56588 5.88115 4.56588C5.96304 4.56588 6.0441 4.54917 6.1196 4.51672C6.19509 4.48428 6.26349 4.43675 6.3208 4.37693C6.42717 4.25239 6.48579 4.09262 6.48579 3.92725C6.48579 3.76188 6.42717 3.60212 6.3208 3.47758L4.07858 1.03135Z" fill="#95A1BC"/>
</svg>
