<svg width="22" height="23" viewBox="0 0 22 23" fill="none" xmlns="http://www.w3.org/2000/svg">
<path d="M15.0499 22.25H6.99992C5.22379 22.2474 3.52115 21.5406 2.26523 20.2847C1.00931 19.0288 0.302569 17.3261 0.299924 15.55V7.5C0.294655 6.61631 0.463994 5.74028 0.798218 4.92222C1.13244 4.10416 1.62497 3.36017 2.24751 2.73298C2.87006 2.10578 3.61036 1.60774 4.42592 1.26745C5.24148 0.927149 6.11622 0.751301 6.99992 0.75H15.0999C16.8761 0.765851 18.5734 1.48528 19.82 2.75059C21.0666 4.01589 21.7606 5.72383 21.7499 7.5V15.6C21.7341 17.3675 21.0216 19.0573 19.7671 20.3024C18.5126 21.5476 16.8174 22.2474 15.0499 22.25ZM6.99992 2.25C6.30863 2.24332 5.62294 2.37455 4.98296 2.63603C4.34298 2.8975 3.76157 3.28396 3.27273 3.7728C2.78388 4.26165 2.39742 4.84306 2.13595 5.48304C1.87448 6.12301 1.74324 6.8087 1.74992 7.5V15.6C1.75646 16.2829 1.89744 16.9578 2.16482 17.5862C2.4322 18.2146 2.82074 18.7842 3.30825 19.2624C3.79577 19.7406 4.37271 20.1181 5.00613 20.3734C5.63955 20.6286 6.31704 20.7566 6.99992 20.75H15.0999C16.4782 20.7474 17.7993 20.1987 18.774 19.224C19.7486 18.2494 20.2973 16.9283 20.2999 15.55V7.5C20.2973 6.12169 19.7486 4.80058 18.774 3.82596C17.7993 2.85135 16.4782 2.30264 15.0999 2.3L6.99992 2.25ZM17.6699 7.42C17.6699 7.22109 17.5909 7.03032 17.4503 6.88967C17.3096 6.74902 17.1188 6.67 16.9199 6.67H5.07992C4.88101 6.67 4.69025 6.74902 4.54959 6.88967C4.40894 7.03032 4.32992 7.22109 4.32992 7.42C4.32992 7.61891 4.40894 7.80968 4.54959 7.95033C4.69025 8.09098 4.88101 8.17 5.07992 8.17H16.9199C17.118 8.16741 17.3073 8.08756 17.4474 7.94747C17.5875 7.80737 17.6673 7.61811 17.6699 7.42ZM15.6699 11.67C15.6699 11.4711 15.5909 11.2803 15.4503 11.1397C15.3096 10.999 15.1188 10.92 14.9199 10.92H7.07992C6.88101 10.92 6.69025 10.999 6.54959 11.1397C6.40894 11.2803 6.32992 11.4711 6.32992 11.67C6.32992 11.8689 6.40894 12.0597 6.54959 12.2003C6.69025 12.341 6.88101 12.42 7.07992 12.42H14.9199C15.118 12.4174 15.3073 12.3376 15.4474 12.1975C15.5875 12.0574 15.6673 11.8681 15.6699 11.67ZM12.8799 15.92C12.8799 15.7211 12.8009 15.5303 12.6603 15.3897C12.5196 15.249 12.3288 15.17 12.1299 15.17H9.86992C9.67101 15.17 9.48025 15.249 9.33959 15.3897C9.19894 15.5303 9.11992 15.7211 9.11992 15.92C9.11992 16.1189 9.19894 16.3097 9.33959 16.4503C9.48025 16.591 9.67101 16.67 9.86992 16.67H12.1299C12.328 16.6674 12.5173 16.5876 12.6574 16.4475C12.7975 16.3074 12.8773 16.1181 12.8799 15.92Z" fill="#EA5E20"/>
</svg>
