<svg width="32" height="33" viewBox="0 0 32 33" fill="none" xmlns="http://www.w3.org/2000/svg">
<path d="M25.08 17.0733C25.1525 16.9119 25.19 16.737 25.19 16.56C25.19 16.383 25.1525 16.2081 25.08 16.0467C25.015 15.8877 24.92 15.7429 24.8 15.62L16.88 7.7C16.625 7.48157 16.2969 7.36743 15.9613 7.38039C15.6257 7.39335 15.3074 7.53246 15.0699 7.76992C14.8325 8.00738 14.6934 8.3257 14.6804 8.66127C14.6674 8.99683 14.7816 9.32494 15 9.58L20.64 15.1667H8.00002C7.6464 15.1667 7.30726 15.3071 7.05721 15.5572C6.80716 15.8072 6.66669 16.1464 6.66669 16.5C6.66669 16.8536 6.80716 17.1928 7.05721 17.4428C7.30726 17.6929 7.6464 17.8333 8.00002 17.8333H20.6134L14.9734 23.4733C14.7223 23.7226 14.5805 24.0615 14.5793 24.4153C14.578 24.7691 14.7174 25.1089 14.9667 25.36C15.216 25.6111 15.5548 25.7528 15.9086 25.7541C16.2625 25.7553 16.6023 25.616 16.8534 25.3667L24.7734 17.4467C24.8975 17.3419 25.0014 17.2154 25.08 17.0733Z" fill="#EA5E20"/>
</svg>
