<svg width="24" height="23" viewBox="0 0 24 23" fill="none" xmlns="http://www.w3.org/2000/svg">
<path d="M16.2486 0.545532H6.8221C5.00434 0.568669 3.26925 1.27423 1.99245 2.50947C0.715637 3.74471 -0.000161533 5.41024 6.67905e-08 7.14553V15.9455C-0.000251893 17.6771 0.712375 19.3393 1.98424 20.574C3.2561 21.8086 4.98531 22.5167 6.79905 22.5455H16.2486C18.0623 22.5167 19.7915 21.8086 21.0634 20.574C22.3352 19.3393 23.0479 17.6771 23.0476 15.9455V7.14553C23.0479 5.414 22.3352 3.75172 21.0634 2.51709C19.7915 1.28247 18.0623 0.574391 16.2486 0.545532ZM8.47 12.8435L6.52248 15.8795C6.45398 15.9828 6.3629 16.0706 6.25549 16.1371C6.14807 16.2035 6.02687 16.247 5.90019 16.2645H5.76191C5.54373 16.2657 5.3334 16.1869 5.17419 16.0445L3.61848 14.7355C3.44261 14.5818 3.33507 14.3696 3.31793 14.1425C3.30078 13.9155 3.37534 13.6908 3.52629 13.5145C3.60246 13.4297 3.69548 13.36 3.79998 13.3096C3.90447 13.2593 4.01838 13.2291 4.13514 13.2209C4.2519 13.2127 4.3692 13.2267 4.48029 13.262C4.59137 13.2973 4.69404 13.3532 4.78238 13.4265L5.566 14.0975L6.98343 11.8975C7.10231 11.7198 7.28797 11.5923 7.50229 11.5411C7.7166 11.49 7.9433 11.5191 8.13581 11.6225C8.24424 11.6794 8.33938 11.7568 8.41542 11.85C8.49147 11.9431 8.54682 12.0501 8.57809 12.1644C8.60937 12.2787 8.61592 12.3978 8.59733 12.5146C8.57875 12.6314 8.53542 12.7433 8.47 12.8435ZM8.47 6.57353L6.52248 9.60953C6.45398 9.71275 6.3629 9.8006 6.25549 9.86706C6.14807 9.93352 6.02687 9.977 5.90019 9.99453H5.76191C5.54373 9.99567 5.3334 9.91693 5.17419 9.77453L3.61848 8.45453C3.4434 8.30266 3.33619 8.09235 3.31903 7.86712C3.30187 7.64189 3.37607 7.41899 3.52629 7.24453C3.60165 7.15888 3.69405 7.08833 3.79813 7.03695C3.90222 6.98557 4.01594 6.95437 4.13272 6.94517C4.2495 6.93597 4.36704 6.94893 4.47855 6.98332C4.59005 7.01771 4.69332 7.07284 4.78238 7.14553L5.566 7.82753L6.98343 5.62753C7.10231 5.4498 7.28797 5.32226 7.50229 5.27112C7.7166 5.21997 7.9433 5.24911 8.13581 5.35253C8.24424 5.40942 8.33938 5.48682 8.41542 5.57998C8.49147 5.67315 8.54682 5.78013 8.57809 5.8944C8.60937 6.00867 8.61592 6.12783 8.59733 6.2446C8.57875 6.36136 8.53542 6.47329 8.47 6.57353ZM18.4496 15.3735H11.5238C11.3217 15.3417 11.138 15.2424 11.0055 15.0933C10.8729 14.9442 10.8002 14.7551 10.8002 14.5595C10.8002 14.364 10.8729 14.1748 11.0055 14.0257C11.138 13.8767 11.3217 13.7774 11.5238 13.7455H18.4381C18.6673 13.7455 18.8872 13.8325 19.0492 13.9872C19.2113 14.1419 19.3024 14.3517 19.3024 14.5705C19.3024 14.7893 19.2113 14.9992 19.0492 15.1539C18.8872 15.3086 18.6673 15.3955 18.4381 15.3955L18.4496 15.3735ZM18.4381 9.34553H11.5238C11.2946 9.34553 11.0748 9.25861 10.9127 9.1039C10.7506 8.94918 10.6595 8.73934 10.6595 8.52053C10.6595 8.30173 10.7506 8.09189 10.9127 7.93717C11.0748 7.78245 11.2946 7.69553 11.5238 7.69553H18.4381C18.6673 7.69553 18.8872 7.78245 19.0492 7.93717C19.2113 8.09189 19.3024 8.30173 19.3024 8.52053C19.3024 8.73934 19.2113 8.94918 19.0492 9.1039C18.8872 9.25861 18.6673 9.34553 18.4381 9.34553Z" fill="#FDFDFD"/>
</svg>
