<svg width="52" height="52" viewBox="0 0 52 52" fill="none" xmlns="http://www.w3.org/2000/svg">
<rect width="52" height="52" rx="26" fill="#FFE1D4"/>
<path d="M34.5066 30.1333H29.48V23.96C30.6746 23.1692 31.5827 22.0145 32.0697 20.6671C32.5567 19.3198 32.5966 17.8514 32.1837 16.4795C31.7708 15.1076 30.9268 13.9053 29.777 13.0506C28.6272 12.1959 27.2326 11.7344 25.8 11.7344C24.3673 11.7344 22.9727 12.1959 21.8229 13.0506C20.6731 13.9053 19.8292 15.1076 19.4162 16.4795C19.0033 17.8514 19.0433 19.3198 19.5303 20.6671C20.0172 22.0145 20.9253 23.1692 22.12 23.96V30.12H21.0933C21.0702 29.8736 20.9565 29.6444 20.7743 29.477C20.592 29.3095 20.3541 29.2156 20.1066 29.2133H19.0933C18.8463 29.2128 18.6083 29.3061 18.4276 29.4745C18.2468 29.6428 18.1369 29.8736 18.12 30.12H17.4933C16.3994 30.1235 15.3515 30.5606 14.5792 31.3353C13.8069 32.1101 13.3733 33.1594 13.3733 34.2533V36.12C13.3733 37.2127 13.8074 38.2606 14.58 39.0333C15.3527 39.8059 16.4006 40.24 17.4933 40.24H34.5066C35.5993 40.24 36.6473 39.8059 37.4199 39.0333C38.1926 38.2606 38.6266 37.2127 38.6266 36.12V34.2667C38.6266 33.1727 38.193 32.1234 37.4207 31.3487C36.6484 30.5739 35.6005 30.1369 34.5066 30.1333ZM22.12 21.24C21.4813 20.4311 21.1338 19.4306 21.1333 18.4C21.1333 17.1623 21.625 15.9753 22.5001 15.1002C23.3753 14.225 24.5623 13.7333 25.8 13.7333C27.0376 13.7333 28.2246 14.225 29.0998 15.1002C29.975 15.9753 30.4666 17.1623 30.4666 18.4C30.4662 19.4306 30.1186 20.4311 29.48 21.24C29.0482 21.8066 28.4915 22.2658 27.8532 22.5819C27.2149 22.898 26.5123 23.0624 25.8 23.0624C25.0877 23.0624 24.385 22.898 23.7467 22.5819C23.1084 22.2658 22.5517 21.8066 22.12 21.24ZM27.4533 24.8267V30.16H24.12V24.8267C25.2171 25.1467 26.3828 25.1467 27.48 24.8267H27.4533ZM36.6666 36.1333C36.6666 36.6956 36.4433 37.2348 36.0457 37.6324C35.6481 38.03 35.1089 38.2533 34.5466 38.2533H17.4933C17.2115 38.2587 16.9316 38.2077 16.6697 38.1036C16.4079 37.9994 16.1694 37.8441 15.9683 37.6467C15.7672 37.4493 15.6074 37.2138 15.4984 36.954C15.3894 36.6941 15.3332 36.4151 15.3333 36.1333V34.2667C15.3333 33.7032 15.5562 33.1626 15.9534 32.7629C16.3506 32.3632 16.8898 32.1369 17.4533 32.1333H34.5066C34.789 32.1298 35.0693 32.1824 35.3312 32.288C35.5931 32.3936 35.8315 32.5502 36.0324 32.7487C36.2333 32.9471 36.3928 33.1835 36.5017 33.4441C36.6106 33.7047 36.6666 33.9843 36.6666 34.2667V36.1333ZM24.6666 17.9067C24.425 17.9226 24.1842 17.8658 23.9751 17.7437C23.766 17.6216 23.5983 17.4398 23.4934 17.2215C23.3885 17.0033 23.3513 16.7587 23.3866 16.5191C23.4219 16.2796 23.528 16.0561 23.6914 15.8774C23.8547 15.6987 24.0678 15.5729 24.3032 15.5163C24.5386 15.4596 24.7856 15.4747 25.0123 15.5596C25.2391 15.6445 25.4353 15.7953 25.5756 15.9926C25.716 16.1898 25.7941 16.4246 25.8 16.6667C25.8035 16.8282 25.7748 16.9889 25.7154 17.1392C25.656 17.2895 25.5672 17.4264 25.4541 17.5419C25.3411 17.6574 25.2062 17.7492 25.0572 17.8118C24.9082 17.8745 24.7482 17.9067 24.5866 17.9067H24.6666Z" fill="#EA5E20"/>
</svg>
