<svg width="26" height="27" viewBox="0 0 26 27" fill="none" xmlns="http://www.w3.org/2000/svg">
<path d="M9.45746 14.4594C9.27581 14.4615 9.09886 14.5173 8.94886 14.6198C8.79886 14.7223 8.68252 14.8668 8.61448 15.0352C8.54645 15.2037 8.52975 15.3885 8.56649 15.5664C8.60324 15.7443 8.69178 15.9074 8.82098 16.0351C8.95019 16.1628 9.11427 16.2494 9.29259 16.284C9.47092 16.3187 9.65551 16.2998 9.82314 16.2298C9.99077 16.1598 10.1339 16.0418 10.2347 15.8906C10.3354 15.7394 10.3891 15.5619 10.3891 15.3802C10.3891 15.2584 10.365 15.1377 10.318 15.0253C10.2711 14.9129 10.2023 14.8109 10.1156 14.7252C10.0289 14.6396 9.92615 14.572 9.81317 14.5263C9.7002 14.4807 9.57929 14.4579 9.45746 14.4594ZM12.935 14.4594C12.7533 14.4615 12.5764 14.5173 12.4264 14.6198C12.2764 14.7223 12.16 14.8668 12.092 15.0352C12.0239 15.2037 12.0072 15.3885 12.044 15.5664C12.0807 15.7443 12.1693 15.9074 12.2985 16.0351C12.4277 16.1628 12.5918 16.2494 12.7701 16.284C12.9484 16.3187 13.133 16.2998 13.3006 16.2298C13.4683 16.1598 13.6114 16.0418 13.7122 15.8906C13.8129 15.7394 13.8666 15.5619 13.8666 15.3802C13.8666 15.2584 13.8425 15.1377 13.7955 15.0253C13.7486 14.9129 13.6798 14.8109 13.5931 14.7252C13.5064 14.6396 13.4036 14.572 13.2907 14.5263C13.1777 14.4807 13.0568 14.4579 12.935 14.4594ZM9.44663 17.926C9.26498 17.9282 9.08802 17.984 8.93802 18.0865C8.78803 18.1889 8.67169 18.3335 8.60365 18.5019C8.53561 18.6704 8.51892 18.8552 8.55566 19.0331C8.5924 19.211 8.68095 19.374 8.81015 19.5017C8.93935 19.6294 9.10344 19.716 9.28176 19.7507C9.46008 19.7854 9.64467 19.7665 9.8123 19.6965C9.97993 19.6265 10.1231 19.5085 10.2238 19.3573C10.3245 19.2061 10.3783 19.0285 10.3783 18.8469C10.3842 18.7214 10.3644 18.5961 10.3201 18.4786C10.2758 18.3611 10.2079 18.2539 10.1207 18.1636C10.0334 18.0733 9.9286 18.0018 9.81268 17.9535C9.69677 17.9052 9.5722 17.8811 9.44663 17.8827V17.926ZM19.0016 4.09186V2.47769C18.9795 2.29356 18.8907 2.12393 18.7519 2.00086C18.6132 1.8778 18.4342 1.80984 18.2487 1.80984C18.0633 1.80984 17.8842 1.8778 17.7455 2.00086C17.6068 2.12393 17.5179 2.29356 17.4958 2.47769V3.85353H17.1491H13.9641V2.47769C13.9641 2.27657 13.8842 2.08369 13.742 1.94147C13.5998 1.79926 13.4069 1.71936 13.2058 1.71936C13.0047 1.71936 12.8118 1.79926 12.6696 1.94147C12.5274 2.08369 12.4475 2.27657 12.4475 2.47769V3.83186H8.85079H8.50413V2.47769C8.482 2.29356 8.39317 2.12393 8.25443 2.00086C8.11569 1.8778 7.93666 1.80984 7.75121 1.80984C7.56576 1.80984 7.38673 1.8778 7.24799 2.00086C7.10925 2.12393 7.02042 2.29356 6.99829 2.47769V4.09186C5.60691 4.4932 4.38349 5.33555 3.51212 6.49216C2.64076 7.64877 2.16858 9.05708 2.16663 10.5052V18.3485C2.17236 20.1223 2.88175 21.8213 4.13902 23.0724C5.3963 24.3236 7.09871 25.0247 8.87246 25.0219H17.1708C18.937 25.0133 20.6283 24.3071 21.8763 23.0572C23.1242 21.8072 23.8276 20.1148 23.8333 18.3485V10.5052C23.8313 9.05708 23.3592 7.64877 22.4878 6.49216C21.6164 5.33555 20.393 4.4932 19.0016 4.09186ZM6.99829 5.68436V6.56186C7.02042 6.74599 7.10925 6.91563 7.24799 7.03869C7.38673 7.16176 7.56576 7.22972 7.75121 7.22972C7.93666 7.22972 8.11569 7.16176 8.25443 7.03869C8.39317 6.91563 8.482 6.74599 8.50413 6.56186V5.37019C8.62329 5.37019 8.73163 5.37019 8.85079 5.37019H12.4475V6.56186C12.4475 6.76298 12.5274 6.95587 12.6696 7.09808C12.8118 7.2403 13.0047 7.32019 13.2058 7.32019C13.4069 7.32019 13.5998 7.2403 13.742 7.09808C13.8842 6.95587 13.9641 6.76298 13.9641 6.56186V5.33769H17.1491C17.2683 5.33769 17.3766 5.33769 17.4958 5.33769V6.52936C17.5179 6.71349 17.6068 6.88313 17.7455 7.00619C17.8842 7.12926 18.0633 7.19722 18.2487 7.19722C18.4342 7.19722 18.6132 7.12926 18.7519 7.00619C18.8907 6.88313 18.9795 6.71349 19.0016 6.52936V5.68436C19.853 6.01552 20.6019 6.56557 21.1725 7.2789C21.7432 7.99223 22.1154 8.84356 22.2516 9.74686H3.72663C3.86479 8.84117 4.24028 7.98821 4.81492 7.27466C5.38956 6.56111 6.14288 6.01242 6.99829 5.68436ZM22.3491 18.3485C22.3434 19.7229 21.7927 21.0389 20.8178 22.0077C19.8429 22.9764 18.5235 23.5189 17.1491 23.516H8.85079C7.47641 23.5189 6.15702 22.9764 5.18214 22.0077C4.20726 21.0389 3.65653 19.7229 3.65079 18.3485V11.2094H22.3491V18.3485Z" fill="#EA5E20"/>
</svg>
