<svg width="22" height="22" viewBox="0 0 22 22" fill="none" xmlns="http://www.w3.org/2000/svg">
<path d="M16.6923 9.41417C16.6508 9.56036 16.5633 9.68928 16.4428 9.78177C16.3222 9.87425 16.175 9.92536 16.0231 9.9275H15.8489L11.5406 8.8275C11.373 8.76732 11.2343 8.64599 11.1523 8.48783C11.0704 8.32967 11.0513 8.14639 11.0989 7.97473C11.1464 7.80308 11.2571 7.65575 11.4087 7.5623C11.5604 7.46884 11.7417 7.43617 11.9164 7.47083L16.2248 8.58C16.3957 8.63119 16.5401 8.74683 16.6273 8.90249C16.7145 9.05816 16.7378 9.24164 16.6923 9.41417Z" fill="#EA5E20"/>
<path d="M14.0251 12.54C13.9824 12.6854 13.8945 12.8136 13.7742 12.9058C13.654 12.9981 13.5075 13.0498 13.3559 13.0533H13.1817L10.6334 12.3842C10.5466 12.3627 10.4649 12.3243 10.393 12.2712C10.3211 12.2181 10.2603 12.1513 10.2143 12.0746C10.1683 11.9979 10.1379 11.9129 10.1249 11.8245C10.1119 11.736 10.1165 11.6458 10.1384 11.5592C10.1838 11.3831 10.297 11.2322 10.4533 11.1395C10.6096 11.0467 10.7963 11.0196 10.9726 11.0642L13.5301 11.7333C13.7002 11.7788 13.8464 11.8878 13.9385 12.0379C14.0306 12.188 14.0616 12.3677 14.0251 12.54Z" fill="#EA5E20"/>
<path d="M20.3407 5.01417C20.0096 4.41048 19.562 3.87845 19.0239 3.4489C18.4857 3.01934 17.8678 2.70079 17.2057 2.51167L14.0432 1.59501C13.002 1.28606 11.89 1.31284 10.8649 1.67154C9.83984 2.03024 8.95374 2.70264 8.33236 3.59334C8.18718 3.61602 8.04336 3.64662 7.90152 3.68501L4.74819 4.60167C3.41731 5.00246 2.29954 5.91442 1.63976 7.13776C0.979977 8.3611 0.83198 9.79609 1.22819 11.1283L2.93319 16.8667C3.12964 17.5272 3.45436 18.1425 3.88878 18.6774C4.32321 19.2123 4.85881 19.6564 5.46498 19.9841C6.07114 20.3119 6.73596 20.517 7.42144 20.5876C8.10691 20.6583 8.79959 20.5931 9.45986 20.3958L12.6132 19.4792C13.2787 19.2974 13.9018 18.9859 14.4465 18.5625C15.5282 18.4978 16.5634 18.1001 17.4102 17.424C18.257 16.7479 18.874 15.8264 19.1765 14.7858L20.8265 9.05667C21.0234 8.38505 21.0818 7.68046 20.9983 6.98558C20.9148 6.29071 20.6911 5.62002 20.3407 5.01417ZM9.06569 19.0758C8.08595 19.3701 7.02955 19.2642 6.12764 18.7815C5.22574 18.2988 4.55176 17.4784 4.25319 16.5L2.54819 10.7617C2.40161 10.2754 2.35248 9.7649 2.40361 9.25955C2.45473 8.75421 2.60511 8.26393 2.84612 7.81683C3.08713 7.36973 3.41403 6.9746 3.80807 6.65411C4.20211 6.33361 4.65554 6.09406 5.14236 5.94917L7.53486 5.23417L5.89402 10.9083C5.69915 11.5704 5.63714 12.2645 5.71155 12.9506C5.78595 13.6367 5.99531 14.3013 6.32758 14.9062C6.65984 15.5111 7.10845 16.0443 7.64759 16.4752C8.18673 16.906 8.80575 17.226 9.46902 17.4167L12.1182 18.1867L9.06569 19.0758ZM19.4607 8.62584L17.8015 14.355C17.6651 14.8427 17.4326 15.2982 17.1178 15.6949C16.803 16.0916 16.4121 16.4214 15.9682 16.665C15.0696 17.1599 14.0116 17.2786 13.0257 16.995L9.86319 16.0783C9.37494 15.9371 8.9193 15.701 8.52234 15.3836C8.12538 15.0661 7.79486 14.6736 7.54968 14.2283C7.30451 13.7831 7.14948 13.2939 7.09346 12.7888C7.03743 12.2836 7.08152 11.7723 7.22319 11.2842L8.87319 5.55501C9.11278 4.76645 9.5974 4.07475 10.2567 3.58026C10.916 3.08577 11.7158 2.81422 12.5399 2.80501C12.9059 2.80599 13.2701 2.85845 13.6215 2.96084L16.784 3.87751C17.2723 4.01876 17.7279 4.25485 18.1249 4.57228C18.5218 4.88971 18.8524 5.28226 19.0975 5.7275C19.3427 6.17273 19.4977 6.66192 19.5538 7.16709C19.6098 7.67227 19.5657 8.18354 19.424 8.67167L19.4607 8.62584Z" fill="#EA5E20"/>
</svg>
