<svg width="20" height="20" viewBox="0 0 20 20" fill="none" xmlns="http://www.w3.org/2000/svg">
<path d="M10.0002 19.8542C8.0512 19.8542 6.146 19.2762 4.52549 18.1935C2.90498 17.1107 1.64194 15.5717 0.896104 13.771C0.150266 11.9704 -0.0448796 9.98908 0.335346 8.07756C0.715571 6.16604 1.65409 4.4102 3.03222 3.03207C4.41035 1.65394 6.16619 0.715418 8.07771 0.335193C9.98924 -0.0450322 11.9706 0.150113 13.7712 0.895952C15.5718 1.64179 17.1108 2.90482 18.1936 4.52533C19.2764 6.14584 19.8543 8.05104 19.8543 10C19.8519 12.6128 18.8129 15.1178 16.9654 16.9653C15.1179 18.8128 12.6129 19.8518 10.0002 19.8542ZM10.0002 1.52085C8.32315 1.52085 6.68379 2.01814 5.28939 2.94985C3.895 3.88155 2.80821 5.20581 2.16644 6.75518C1.52467 8.30454 1.35675 10.0094 1.68393 11.6542C2.0111 13.299 2.81866 14.8099 4.00449 15.9957C5.19032 17.1815 6.70117 17.9891 8.34596 18.3163C9.99076 18.6434 11.6956 18.4755 13.245 17.8337C14.7944 17.192 16.1186 16.1052 17.0503 14.7108C17.982 13.3164 18.4793 11.677 18.4793 10C18.4769 7.75195 17.5828 5.59665 15.9932 4.00702C14.4035 2.41739 12.2482 1.52327 10.0002 1.52085Z" fill="#EA5E20"/>
<path d="M10.0002 11.2833C10.2433 11.2833 10.4764 11.1868 10.6483 11.0149C10.8203 10.843 10.9168 10.6098 10.9168 10.3667V6.09501C10.9168 5.8519 10.8203 5.61874 10.6483 5.44683C10.4764 5.27492 10.2433 5.17834 10.0002 5.17834C9.75705 5.17834 9.52389 5.27492 9.35198 5.44683C9.18007 5.61874 9.0835 5.8519 9.0835 6.09501V10.3667C9.0835 10.6098 9.18007 10.843 9.35198 11.0149C9.52389 11.1868 9.75705 11.2833 10.0002 11.2833Z" fill="#EA5E20"/>
<path d="M10.0003 14.8217C10.6332 14.8217 11.1462 14.3087 11.1462 13.6759C11.1462 13.043 10.6332 12.53 10.0003 12.53C9.3675 12.53 8.85449 13.043 8.85449 13.6759C8.85449 14.3087 9.3675 14.8217 10.0003 14.8217Z" fill="#EA5E20"/>
</svg>
