<svg width="52" height="52" viewBox="0 0 52 52" fill="none" xmlns="http://www.w3.org/2000/svg">
<rect width="52" height="52" rx="26" fill="#FFE1D4"/>
<path d="M31.3333 32.0134C31.3519 32.2603 31.2729 32.5047 31.1134 32.6942C30.9539 32.8836 30.7265 33.003 30.48 33.0267H20.5066C20.2661 32.9876 20.0473 32.8641 19.8895 32.6785C19.7316 32.4928 19.6449 32.2571 19.6449 32.0134C19.6449 31.7697 19.7316 31.5339 19.8895 31.3483C20.0473 31.1626 20.2661 31.0392 20.5066 31H30.4666C30.7156 31.0205 30.9463 31.1384 31.1086 31.3282C31.271 31.518 31.3517 31.7643 31.3333 32.0134ZM20.8 27.5734H25.0133C25.2797 27.5699 25.5341 27.4616 25.7212 27.2719C25.9084 27.0823 26.0133 26.8265 26.0133 26.56C26.0134 26.2923 25.9089 26.0351 25.7221 25.8434C25.5353 25.6516 25.2809 25.5403 25.0133 25.5334H20.7866C20.6536 25.5351 20.5221 25.5631 20.3998 25.6156C20.2776 25.6681 20.1668 25.7442 20.074 25.8396C19.9811 25.9349 19.9079 26.0476 19.8586 26.1712C19.8093 26.2949 19.7849 26.427 19.7866 26.56C19.7849 26.6925 19.8094 26.824 19.8589 26.9468C19.9084 27.0697 19.9817 27.1815 20.0748 27.2758C20.1678 27.3701 20.2786 27.4449 20.4008 27.496C20.523 27.5471 20.6542 27.5734 20.7866 27.5734H20.8ZM40.3466 23.96C40.3542 23.8936 40.3542 23.8265 40.3466 23.76C40.3903 23.5917 40.39 23.415 40.3456 23.2469C40.3012 23.0788 40.2143 22.9249 40.0933 22.8L29.4266 11.96C29.3427 11.8784 29.2429 11.8148 29.1333 11.7734H29.0533C28.9604 11.7608 28.8662 11.7608 28.7733 11.7734H20.12C17.8693 11.7943 15.7171 12.6996 14.128 14.2936C12.539 15.8876 11.6405 18.0426 11.6266 20.2934V31.7067C11.6124 33.9759 12.4984 36.1582 14.0905 37.7753C15.6826 39.3923 17.8508 40.3123 20.12 40.3334H31.88C34.1491 40.3123 36.3174 39.3923 37.9094 37.7753C39.5015 36.1582 40.3875 33.9759 40.3733 31.7067L40.3466 23.96ZM29.68 15.1334L36.9333 22.5067H33.04C32.1393 22.4962 31.2794 22.1301 30.6475 21.4882C30.0156 20.8463 29.6631 19.9807 29.6666 19.08L29.68 15.1334ZM31.8933 38.3067H20.12C19.2602 38.2997 18.4103 38.1235 17.6187 37.788C16.8271 37.4526 16.1093 36.9645 15.5063 36.3516C14.9034 35.7387 14.427 35.0131 14.1045 34.2161C13.782 33.4191 13.6196 32.5664 13.6266 31.7067V20.2934C13.6196 19.4337 13.782 18.581 14.1045 17.784C14.427 16.987 14.9034 16.2614 15.5063 15.6485C16.1093 15.0356 16.8271 14.5475 17.6187 14.2121C18.4103 13.8766 19.2602 13.7004 20.12 13.6934H27.6666V19.0267C27.6594 20.4545 28.2152 21.8277 29.2136 22.8485C30.2119 23.8693 31.5723 24.4555 33 24.48H38.3333V31.6534C38.3474 32.5142 38.1916 33.3694 37.8747 34.17C37.5579 34.9705 37.0862 35.7007 36.4868 36.3187C35.8874 36.9367 35.1719 37.4304 34.3814 37.7716C33.5909 38.1127 32.7409 38.2946 31.88 38.3067H31.8933Z" fill="#EA5E20"/>
</svg>
