<svg width="158" height="158" viewBox="0 0 158 158" fill="none" xmlns="http://www.w3.org/2000/svg">
<path d="M23.5833 150.376H134.417C143.161 150.376 150.25 143.287 150.25 134.543V23.7096C150.25 14.965 143.161 7.87622 134.417 7.87622H23.5833C14.8388 7.87622 7.75 14.965 7.75 23.7096V134.543C7.75 143.287 14.8388 150.376 23.5833 150.376ZM23.5833 150.376L110.667 63.2929L150.25 102.876M63.1667 51.4179C63.1667 57.9763 57.85 63.2929 51.2917 63.2929C44.7333 63.2929 39.4167 57.9763 39.4167 51.4179C39.4167 44.8595 44.7333 39.5429 51.2917 39.5429C57.85 39.5429 63.1667 44.8595 63.1667 51.4179Z" stroke="#FFA983" stroke-width="14" stroke-linecap="round" stroke-linejoin="round"/>
</svg>
