<svg width="32" height="32" viewBox="0 0 32 32" fill="none" xmlns="http://www.w3.org/2000/svg">
<path d="M29.5467 11.8533C29.5359 10.9774 29.3057 10.1182 28.8771 9.35415C28.4485 8.59016 27.8353 7.9458 27.0934 7.48L18.6667 2.10667C17.794 1.56089 16.7821 1.2793 15.7529 1.29586C14.7237 1.31242 13.7214 1.62643 12.8667 2.2L4.77336 7.69334C4.05344 8.17502 3.46453 8.82808 3.05956 9.59378C2.6546 10.3595 2.44629 11.2138 2.45336 12.08C2.46004 12.948 2.6785 13.8013 3.08977 14.5658C3.50104 15.3302 4.0927 15.9827 4.81336 16.4667L6.45336 17.56V23.5467C6.44866 24.6655 6.78402 25.7593 7.41502 26.6831C8.04602 27.607 8.94286 28.3174 9.98669 28.72L14.12 30.3333C15.4388 30.8574 16.908 30.8574 18.2267 30.3333L22.0534 28.7867C23.084 28.3748 23.967 27.6625 24.5876 26.7423C25.2082 25.8221 25.5377 24.7366 25.5334 23.6267V17.4667L26.4267 16.8533V19.8267C26.4267 20.0919 26.5321 20.3462 26.7196 20.5338C26.9071 20.7213 27.1615 20.8267 27.4267 20.8267C27.6919 20.8267 27.9463 20.7213 28.1338 20.5338C28.3213 20.3462 28.4267 20.0919 28.4267 19.8267V15.1733C29.1633 14.2244 29.5579 13.0546 29.5467 11.8533ZM23.5334 23.6133C23.5403 24.3215 23.3342 25.0154 22.9419 25.605C22.5496 26.1947 21.9892 26.6528 21.3334 26.92L17.5067 28.4667C16.6498 28.804 15.6969 28.804 14.84 28.4667L10.6667 26.8533C9.99621 26.5999 9.4195 26.1471 9.01423 25.5559C8.60896 24.9646 8.39461 24.2634 8.40003 23.5467V18.88L13.04 21.9733C13.9097 22.569 14.9392 22.8877 15.9934 22.8877C17.0475 22.8877 18.077 22.569 18.9467 21.9733L23.4934 18.8667L23.5334 23.6133ZM17.8667 20.28C17.3264 20.6486 16.6874 20.8458 16.0334 20.8458C15.3793 20.8458 14.7404 20.6486 14.2 20.28L5.92003 14.8C5.4675 14.503 5.09551 14.0987 4.83723 13.623C4.57894 13.1473 4.44239 12.6151 4.43975 12.0738C4.43711 11.5326 4.56846 10.999 4.8221 10.5209C5.07573 10.0427 5.44376 9.63473 5.89336 9.33334L13.9734 3.84C14.5088 3.48453 15.1373 3.29493 15.78 3.29493C16.4228 3.29493 17.0512 3.48453 17.5867 3.84L26.0267 9.17334C26.4816 9.45665 26.8587 9.84879 27.1241 10.3144C27.3895 10.7799 27.5347 11.3043 27.5467 11.84C27.5668 12.3933 27.4465 12.9426 27.197 13.4369C26.9476 13.9311 26.5771 14.3542 26.12 14.6667L17.8667 20.28Z" fill="#EA5E20"/>
</svg>
