<svg width="27" height="29" viewBox="0 0 27 29" fill="none" xmlns="http://www.w3.org/2000/svg">
<path d="M17.9902 26.6875H14.3108C13.1671 26.6875 12.0207 26.1918 10.9966 25.2547C10.993 25.2511 10.9894 25.2484 10.9867 25.2448L9.20769 23.6642C8.52075 23.0462 7.98425 22.2686 7.65438 21.4131L5.82828 16.3744C5.59357 15.7246 5.889 15.015 6.51613 14.7223C7.49488 14.2737 8.68569 14.6906 9.17688 15.6412L10.5852 18.8548C10.7719 18.5711 10.8761 18.2349 10.8761 17.8878V5.84375C10.8761 5.59363 11.0791 5.39062 11.3292 5.39062C11.5793 5.39062 11.7823 5.59363 11.7823 5.84375V17.8878C11.7823 18.7252 11.3818 19.5218 10.7112 20.0193C10.6006 20.1018 10.4592 20.1281 10.3251 20.0936C10.1919 20.0583 10.0813 19.9631 10.026 19.8372L8.35853 16.0309C8.10116 15.537 7.43688 15.2959 6.89585 15.5452C6.70282 15.6358 6.60675 15.866 6.68016 16.0672L8.50172 21.0968C8.78175 21.8209 9.2231 22.4608 9.81035 22.9891L11.5929 24.5732C11.5984 24.5787 11.6038 24.5832 11.6093 24.5886C12.4765 25.3798 13.3855 25.7812 14.3108 25.7812H17.9902C19.7737 25.7812 21.2862 24.5071 21.5853 22.7508C21.6949 22.1001 21.7511 21.6225 21.7511 21.3316V15.3594C21.7511 14.8591 21.3442 14.4531 20.8448 14.4531C20.3455 14.4531 19.9386 14.8591 19.9386 15.3594C19.9386 15.6095 19.7356 15.8125 19.4855 15.8125C19.2353 15.8125 19.0323 15.6095 19.0323 15.3594V14.4531C19.0323 13.9529 18.6254 13.5469 18.1261 13.5469C17.6268 13.5469 17.2198 13.9529 17.2198 14.4531C17.2198 14.7032 17.0168 14.9062 16.7667 14.9062C16.5166 14.9062 16.3136 14.7032 16.3136 14.4531V14C16.3136 13.4998 15.9067 13.0938 15.4073 13.0938C14.908 13.0938 14.5011 13.4998 14.5011 14C14.5011 14.2501 14.2981 14.4531 14.048 14.4531C13.7978 14.4531 13.5948 14.2501 13.5948 14V5.84375C13.5948 5.3435 13.1879 4.9375 12.6886 4.9375C12.4385 4.9375 12.2355 4.7345 12.2355 4.48438C12.2355 4.23425 12.4385 4.03125 12.6886 4.03125C13.6882 4.03125 14.5011 4.84416 14.5011 5.84375V12.4313C14.7675 12.2763 15.0775 12.1875 15.4073 12.1875C16.0653 12.1875 16.6426 12.54 16.9607 13.0666C17.276 12.801 17.6829 12.6406 18.1261 12.6406C18.9154 12.6406 19.5888 13.1481 19.8371 13.8541C20.1253 13.6602 20.4724 13.5469 20.8448 13.5469C21.8444 13.5469 22.6573 14.3598 22.6573 15.3594V21.3316C22.6573 21.6778 22.5993 22.1916 22.4788 22.9021C22.1045 25.0961 20.2168 26.6875 17.9902 26.6875ZM10.1248 3.734C10.0088 3.734 9.89282 3.68959 9.804 3.60169L9.16328 2.96097C8.98657 2.78425 8.98657 2.49697 9.16328 2.32025C9.34 2.14353 9.62728 2.14353 9.804 2.32025L10.4447 2.96097C10.6214 3.13769 10.6214 3.42497 10.4447 3.60169C10.3568 3.68959 10.2408 3.734 10.1248 3.734ZM12.6886 2.67188C12.4385 2.67188 12.2355 2.46887 12.2355 2.21875V1.3125C12.2355 1.06238 12.4385 0.859375 12.6886 0.859375C12.9387 0.859375 13.1417 1.06238 13.1417 1.3125V2.21875C13.1417 2.46887 12.9387 2.67188 12.6886 2.67188ZM15.2524 3.734C15.1364 3.734 15.0204 3.68959 14.9316 3.60169C14.7548 3.42497 14.7548 3.13769 14.9316 2.96097L15.5723 2.32025C15.749 2.14353 16.0363 2.14353 16.213 2.32025C16.3897 2.49697 16.3897 2.78425 16.213 2.96097L15.5723 3.60169C15.4835 3.68959 15.3684 3.734 15.2524 3.734ZM17.2198 6.29688H16.3136C16.0635 6.29688 15.8605 6.09387 15.8605 5.84375C15.8605 5.59363 16.0635 5.39062 16.3136 5.39062H17.2198C17.47 5.39062 17.673 5.59363 17.673 5.84375C17.673 6.09387 17.47 6.29688 17.2198 6.29688ZM9.0636 6.29688H8.15735C7.90722 6.29688 7.70422 6.09387 7.70422 5.84375C7.70422 5.59363 7.90722 5.39062 8.15735 5.39062H9.0636C9.31372 5.39062 9.51672 5.59363 9.51672 5.84375C9.51672 6.09387 9.31372 6.29688 9.0636 6.29688Z" fill="#455A64"/>
<path d="M17.9882 26.6875H14.3088C13.1651 26.6875 12.0187 26.1918 10.9947 25.2547C10.9911 25.2511 10.9874 25.2484 10.9847 25.2448L9.20574 23.6642C8.5188 23.0462 7.9823 22.2686 7.65242 21.4131L5.82633 16.3744C5.59161 15.7246 5.88705 15.015 6.51418 14.7223C7.49293 14.2737 8.68374 14.6906 9.17493 15.6412L10.5832 18.8548C10.7699 18.5711 10.8741 18.2349 10.8741 17.8878V5.84375C10.8741 5.59363 11.0771 5.39062 11.3273 5.39062C11.5774 5.39062 11.7804 5.59363 11.7804 5.84375V17.8878C11.7804 18.7252 11.3798 19.5218 10.7092 20.0193C10.5986 20.1018 10.4573 20.1281 10.3231 20.0936C10.1899 20.0583 10.0794 19.9631 10.0241 19.8372L8.35658 16.0309C8.09921 15.537 7.43493 15.2959 6.89389 15.5452C6.70086 15.6358 6.6048 15.866 6.67821 16.0672L8.49977 21.0968C8.7798 21.8209 9.22114 22.4608 9.80839 22.9891L11.591 24.5732C11.5964 24.5787 11.6019 24.5832 11.6073 24.5886C12.4746 25.3798 13.3835 25.7812 14.3088 25.7812H17.9882C19.7717 25.7812 21.2842 24.5071 21.5833 22.7508C21.693 22.1001 21.7491 21.6225 21.7491 21.3316V15.3594C21.7491 14.8591 21.3422 14.4531 20.8429 14.4531C20.3435 14.4531 19.9366 14.8591 19.9366 15.3594C19.9366 15.6095 19.7336 15.8125 19.4835 15.8125C19.2334 15.8125 19.0304 15.6095 19.0304 15.3594V14.4531C19.0304 13.9529 18.6235 13.5469 18.1241 13.5469C17.6248 13.5469 17.2179 13.9529 17.2179 14.4531C17.2179 14.7032 17.0149 14.9062 16.7648 14.9062C16.5146 14.9062 16.3116 14.7032 16.3116 14.4531V14C16.3116 13.4998 15.9047 13.0938 15.4054 13.0938C14.906 13.0938 14.4991 13.4998 14.4991 14C14.4991 14.2501 14.2961 14.4531 14.046 14.4531C13.7959 14.4531 13.5929 14.2501 13.5929 14V5.84375C13.5929 5.3435 13.186 4.9375 12.6866 4.9375C12.4365 4.9375 12.2335 4.7345 12.2335 4.48438C12.2335 4.23425 12.4365 4.03125 12.6866 4.03125C13.6862 4.03125 14.4991 4.84416 14.4991 5.84375V12.4313C14.7656 12.2763 15.0755 12.1875 15.4054 12.1875C16.0633 12.1875 16.6406 12.54 16.9587 13.0666C17.2741 12.801 17.681 12.6406 18.1241 12.6406C18.9135 12.6406 19.5868 13.1481 19.8351 13.8541C20.1233 13.6602 20.4704 13.5469 20.8429 13.5469C21.8425 13.5469 22.6554 14.3598 22.6554 15.3594V21.3316C22.6554 21.6778 22.5974 22.1916 22.4769 22.9021C22.1026 25.0961 20.2149 26.6875 17.9882 26.6875ZM10.1229 3.734C10.0069 3.734 9.89086 3.68959 9.80205 3.60169L9.16133 2.96097C8.98461 2.78425 8.98461 2.49697 9.16133 2.32025C9.33805 2.14353 9.62533 2.14353 9.80205 2.32025L10.4428 2.96097C10.6195 3.13769 10.6195 3.42497 10.4428 3.60169C10.3549 3.68959 10.2389 3.734 10.1229 3.734ZM12.6866 2.67188C12.4365 2.67188 12.2335 2.46887 12.2335 2.21875V1.3125C12.2335 1.06238 12.4365 0.859375 12.6866 0.859375C12.9368 0.859375 13.1398 1.06238 13.1398 1.3125V2.21875C13.1398 2.46887 12.9368 2.67188 12.6866 2.67188ZM15.2504 3.734C15.1344 3.734 15.0184 3.68959 14.9296 3.60169C14.7529 3.42497 14.7529 3.13769 14.9296 2.96097L15.5703 2.32025C15.747 2.14353 16.0343 2.14353 16.211 2.32025C16.3878 2.49697 16.3878 2.78425 16.211 2.96097L15.5703 3.60169C15.4815 3.68959 15.3664 3.734 15.2504 3.734ZM17.2179 6.29688H16.3116C16.0615 6.29688 15.8585 6.09387 15.8585 5.84375C15.8585 5.59363 16.0615 5.39062 16.3116 5.39062H17.2179C17.468 5.39062 17.671 5.59363 17.671 5.84375C17.671 6.09387 17.468 6.29688 17.2179 6.29688ZM9.06164 6.29688H8.15539C7.90527 6.29688 7.70227 6.09387 7.70227 5.84375C7.70227 5.59363 7.90527 5.39062 8.15539 5.39062H9.06164C9.31177 5.39062 9.51477 5.59363 9.51477 5.84375C9.51477 6.09387 9.31177 6.29688 9.06164 6.29688Z" fill="white"/>
<path d="M12.5107 8.24036C12.8772 8.9048 12.732 10.0719 12.6499 10.806C12.5734 11.4892 12.5107 12.1127 12.5107 12.8049C12.5107 13.6707 12.4754 14.5458 12.5305 15.4103C12.5459 15.6503 12.6846 17.2022 13.0029 17.2152C13.5491 17.2375 14.1727 16.0863 14.3703 15.7484C14.6249 15.3129 15.2579 14.0332 15.3249 13.5469C15.3658 13.2509 15.12 15.1402 15.126 15.1617C15.174 15.3323 15.6311 17.2198 15.8619 17.1506C16.6026 16.9284 16.6772 15.7331 17.3238 15.3904C17.5637 15.2633 18.1286 15.3469 18.2884 15.112C18.3268 15.0555 18.3282 14.988 18.3282 14.923C18.3282 14.6844 18.3282 15.4004 18.3282 15.639C18.3282 15.9847 18.1359 16.9129 18.5569 17.1208C19.1355 17.4065 20.4406 17.6676 20.7944 17.1506C20.8847 17.0186 20.6442 15.6932 20.4563 15.5992C20.2708 15.5065 20.1134 15.8325 19.9441 15.9523C19.5527 16.2293 19.1137 16.5034 18.6315 16.5838C17.9574 16.6961 17.8807 15.6438 17.8807 15.1766C17.8807 15.0578 17.8569 14.9135 17.8856 14.7987C17.9181 14.6688 17.9749 15.0577 17.9702 15.1915C17.9089 16.9159 17.0573 18.6943 16.379 20.2433C15.9216 21.2881 15.519 22.1468 14.3056 22.1974C13.1588 22.2452 13.4035 19.7844 13.5648 19.0898C13.7642 18.2305 15.4294 17.8553 16.0409 18.4633C16.511 18.9306 16.1349 19.8264 15.9514 20.3179C15.9209 20.3996 15.8183 20.6033 15.7873 20.5218C15.6879 20.2597 15.7757 19.8722 15.8321 19.6466C16.2366 18.0286 17.256 16.9365 18.1293 15.5992C18.2717 15.3811 18.2881 15.247 18.2436 15.0026C18.1542 14.5108 18.3539 15.9963 18.3978 16.4943C18.5756 18.5152 18.8047 20.5852 18.6215 22.6151C18.566 23.2308 18.4844 23.97 17.7116 23.9426C17.0543 23.9194 16.2064 23.629 15.6233 23.3261C15.3232 23.1702 14.8679 22.8607 14.9669 22.446C15.1297 21.7646 16.3568 21.8396 16.8613 21.8046C18.2077 21.7113 19.3989 21.4221 20.1977 20.1936C20.456 19.7964 20.894 18.4295 20.6502 17.9362C20.1314 16.8867 19.0789 16.0207 18.2784 15.1716C18.1577 15.0436 18.001 14.8657 17.9751 14.6844C17.9321 14.3834 18.1032 15.912 18.1193 15.997C18.4341 17.6616 19.4926 19.0932 19.7204 20.7604C19.8297 21.5605 19.8299 22.3857 19.8447 23.1918C19.8487 23.4135 19.5906 24.6016 19.7204 24.4219C20.2068 23.7483 21.7489 20.149 20.7944 21.5212C20.3861 22.1081 20.1587 22.8527 19.6905 23.3957C19.0392 24.1513 17.8847 24.9616 16.8763 25.1161C16.2957 25.2051 15.8383 24.924 15.3249 24.7133C14.7269 24.468 14.3763 24.8731 13.7542 24.7133C13.4823 24.6435 13.2115 24.1065 13.0477 23.9426C12.9214 23.8164 12.6644 23.8075 12.5107 23.6592C12.2232 23.3821 11.6259 23.5639 11.2378 23.3957C10.979 23.2836 11.3426 22.4918 11.1582 22.2869C9.84484 20.8276 8.77901 19.2832 7.80693 17.5334C7.64595 17.2437 7.32959 16.3136 7.52848 16.5788C7.92235 17.1039 8.11187 17.5719 8.59254 18.0854C9.38762 18.9348 10.311 19.6904 11.2378 20.3925C11.4489 20.5524 11.9768 20.5878 12.0781 20.3179C12.2141 19.9552 12.8954 19.6636 13.1968 19.4776C14.5583 18.6373 16.2327 17.9408 16.8464 16.3451C16.9607 16.0479 17.0549 15.6781 17.2044 15.4004C17.3406 15.1474 17.6045 14.9846 17.7464 14.7291C17.7613 14.7023 17.813 14.4944 17.8359 14.5402C17.9227 14.7137 17.8039 15.0766 17.7613 15.2214C17.5472 15.9485 17.1943 16.6216 16.9061 17.3196C16.6471 17.9469 16.4995 18.7631 15.9564 19.2141C14.9511 20.0489 13.7236 20.663 12.5902 21.2974C12.4557 21.3727 10.4712 22.473 10.0991 22.2869C9.73132 22.103 10.3273 21.1498 10.0991 20.8251C9.81845 20.4256 9.49448 20.9222 9.2192 20.5218C8.54175 19.5364 8.11861 17.5353 7.58815 16.4744" stroke="white" stroke-width="2.71875" stroke-linecap="round"/>
<path d="M12.5119 7.69217C12.2506 7.5452 12.2059 6.64474 12.3925 6.41928C12.6966 6.05182 12.2344 5.84005 12.2344 5.39062" stroke="white" stroke-width="2.71875" stroke-linecap="round"/>
<path d="M13.1383 17.817C12.8542 18.1011 12.511 18.6982 12.0841 18.712C11.8472 18.7197 12.0388 17.9747 12.2433 17.9065" stroke="white" stroke-width="0.90625" stroke-linecap="round"/>
<path d="M15.6445 13.5209C15.9117 13.6423 16.0557 14.0748 16.1815 14.3264" stroke="white" stroke-width="0.90625" stroke-linecap="round"/>
</svg>
