<svg width="177" height="53" viewBox="0 0 177 53" fill="none" xmlns="http://www.w3.org/2000/svg">
<rect x="0.5" y="0.5" width="176" height="52" rx="26" fill="#E20000"/>
<rect x="0.5" y="0.5" width="176" height="52" rx="26" stroke="#E20000"/>
<path d="M39 29.86C39 30.0578 38.9414 30.2511 38.8315 30.4156C38.7216 30.58 38.5654 30.7082 38.3827 30.7839C38.2 30.8596 37.9989 30.8794 37.8049 30.8408C37.6109 30.8022 37.4327 30.707 37.2929 30.5671C37.153 30.4273 37.0578 30.2491 37.0192 30.0551C36.9806 29.8611 37.0004 29.66 37.0761 29.4773C37.1518 29.2946 37.28 29.1384 37.4444 29.0285C37.6089 28.9186 37.8022 28.86 38 28.86C38.2652 28.86 38.5196 28.9654 38.7071 29.1529C38.8946 29.3404 39 29.5948 39 29.86ZM42 28.86C41.8022 28.86 41.6089 28.9186 41.4444 29.0285C41.28 29.1384 41.1518 29.2946 41.0761 29.4773C41.0004 29.66 40.9806 29.8611 41.0192 30.0551C41.0578 30.2491 41.153 30.4273 41.2929 30.5671C41.4327 30.707 41.6109 30.8022 41.8049 30.8408C41.9989 30.8794 42.2 30.8596 42.3827 30.7839C42.5654 30.7082 42.7216 30.58 42.8315 30.4156C42.9414 30.2511 43 30.0578 43 29.86C42.9974 29.5965 42.8908 29.3447 42.7036 29.1593C42.5163 28.974 42.2635 28.87 42 28.87V28.86ZM46 28.86C45.8022 28.86 45.6089 28.9186 45.4444 29.0285C45.28 29.1384 45.1518 29.2946 45.0761 29.4773C45.0004 29.66 44.9806 29.8611 45.0192 30.0551C45.0578 30.2491 45.153 30.4273 45.2929 30.5671C45.4327 30.707 45.6109 30.8022 45.8049 30.8408C45.9989 30.8794 46.2 30.8596 46.3827 30.7839C46.5654 30.7082 46.7216 30.58 46.8315 30.4156C46.9414 30.2511 47 30.0578 47 29.86C47 29.5948 46.8946 29.3404 46.7071 29.1529C46.5196 28.9654 46.2652 28.86 46 28.86ZM52.75 27.86V32.6C52.75 33.8359 52.259 35.0212 51.3851 35.8951C50.5112 36.769 49.3259 37.26 48.09 37.26H35.91C34.6741 37.26 33.4888 36.769 32.6149 35.8951C31.741 35.0212 31.25 33.8359 31.25 32.6V27.86C31.2542 26.6598 31.7212 25.5074 32.5539 24.6431C33.3867 23.7787 34.5208 23.2689 35.72 23.22V21.92C35.7253 20.4824 36.2994 19.1054 37.3168 18.0898C38.3343 17.0742 39.7124 16.5026 41.15 16.5H42.85C44.2893 16.5026 45.6689 17.0756 46.6867 18.0933C47.7044 19.1111 48.2774 20.4907 48.28 21.93V23.23C49.4775 23.2788 50.6102 23.7872 51.4426 24.6494C52.2751 25.5117 52.7433 26.6615 52.75 27.86ZM37.22 21.92V23.2H46.78V21.92C46.78 20.8777 46.3659 19.8781 45.6289 19.1411C44.8919 18.4041 43.8923 17.99 42.85 17.99H41.15C40.1077 17.99 39.1081 18.4041 38.3711 19.1411C37.6341 19.8781 37.22 20.8777 37.22 21.92ZM51.22 27.86C51.2174 27.0227 50.8836 26.2205 50.2915 25.6285C49.6995 25.0364 48.8973 24.7026 48.06 24.7H35.91C35.0727 24.7026 34.2705 25.0364 33.6785 25.6285C33.0864 26.2205 32.7526 27.0227 32.75 27.86V32.6C32.7526 33.4373 33.0864 34.2395 33.6785 34.8315C34.2705 35.4236 35.0727 35.7574 35.91 35.76H48.09C48.9273 35.7574 49.7295 35.4236 50.3215 34.8315C50.9136 34.2395 51.2474 33.4373 51.25 32.6L51.22 27.86Z" fill="white"/>
<path d="M66.1136 35V17.5455H68.2273V33.125H76.3409V35H66.1136ZM84.6591 35.2727C83.4773 35.2727 82.4403 34.9915 81.5483 34.429C80.6619 33.8665 79.9688 33.0795 79.4688 32.0682C78.9744 31.0568 78.7273 29.875 78.7273 28.5227C78.7273 27.1591 78.9744 25.9687 79.4688 24.9517C79.9688 23.9347 80.6619 23.1449 81.5483 22.5824C82.4403 22.0199 83.4773 21.7386 84.6591 21.7386C85.8409 21.7386 86.875 22.0199 87.7614 22.5824C88.6534 23.1449 89.3466 23.9347 89.8409 24.9517C90.3409 25.9687 90.5909 27.1591 90.5909 28.5227C90.5909 29.875 90.3409 31.0568 89.8409 32.0682C89.3466 33.0795 88.6534 33.8665 87.7614 34.429C86.875 34.9915 85.8409 35.2727 84.6591 35.2727ZM84.6591 33.4659C85.5568 33.4659 86.2955 33.2358 86.875 32.7756C87.4545 32.3153 87.8835 31.7102 88.1619 30.9602C88.4403 30.2102 88.5795 29.3977 88.5795 28.5227C88.5795 27.6477 88.4403 26.8324 88.1619 26.0767C87.8835 25.321 87.4545 24.7102 86.875 24.2443C86.2955 23.7784 85.5568 23.5455 84.6591 23.5455C83.7614 23.5455 83.0227 23.7784 82.4432 24.2443C81.8636 24.7102 81.4347 25.321 81.1562 26.0767C80.8778 26.8324 80.7386 27.6477 80.7386 28.5227C80.7386 29.3977 80.8778 30.2102 81.1562 30.9602C81.4347 31.7102 81.8636 32.3153 82.4432 32.7756C83.0227 33.2358 83.7614 33.4659 84.6591 33.4659ZM98.9794 35.2727C97.7521 35.2727 96.6953 34.983 95.8089 34.4034C94.9226 33.8239 94.2408 33.0256 93.7635 32.0085C93.2862 30.9915 93.0476 29.8295 93.0476 28.5227C93.0476 27.1932 93.2919 26.0199 93.7805 25.0028C94.2749 23.9801 94.9624 23.1818 95.843 22.608C96.7294 22.0284 97.7635 21.7386 98.9453 21.7386C99.8658 21.7386 100.695 21.9091 101.434 22.25C102.173 22.5909 102.778 23.0682 103.249 23.6818C103.721 24.2955 104.013 25.0114 104.127 25.8295H102.116C101.962 25.233 101.621 24.7045 101.093 24.2443C100.57 23.7784 99.8658 23.5455 98.9794 23.5455C98.1953 23.5455 97.5078 23.75 96.9169 24.1591C96.3317 24.5625 95.8743 25.1335 95.5447 25.8722C95.2209 26.6051 95.0589 27.4659 95.0589 28.4545C95.0589 29.4659 95.218 30.3466 95.5362 31.0966C95.8601 31.8466 96.3146 32.429 96.8999 32.8438C97.4908 33.2585 98.1839 33.4659 98.9794 33.4659C99.5021 33.4659 99.9766 33.375 100.403 33.1932C100.829 33.0114 101.19 32.75 101.485 32.4091C101.781 32.0682 101.991 31.6591 102.116 31.1818H104.127C104.013 31.9545 103.732 32.6506 103.283 33.2699C102.84 33.8835 102.252 34.3722 101.519 34.7358C100.792 35.0938 99.9453 35.2727 98.9794 35.2727ZM108.942 30.2273L108.908 27.7386H109.317L115.045 21.9091H117.533L111.431 28.0795H111.261L108.942 30.2273ZM107.067 35V17.5455H109.079V35H107.067ZM115.386 35L110.272 28.5227L111.704 27.125L117.942 35H115.386ZM125.072 35.2727C123.81 35.2727 122.722 34.9943 121.808 34.4375C120.898 33.875 120.197 33.0909 119.702 32.0852C119.214 31.0739 118.969 29.8977 118.969 28.5568C118.969 27.2159 119.214 26.0341 119.702 25.0114C120.197 23.983 120.884 23.1818 121.765 22.608C122.651 22.0284 123.685 21.7386 124.867 21.7386C125.549 21.7386 126.222 21.8523 126.887 22.0795C127.552 22.3068 128.157 22.6761 128.702 23.1875C129.248 23.6932 129.683 24.3636 130.006 25.1989C130.33 26.0341 130.492 27.0625 130.492 28.2841V29.1364H120.401V27.3977H128.447C128.447 26.6591 128.299 26 128.004 25.4205C127.714 24.8409 127.299 24.3835 126.759 24.0483C126.225 23.7131 125.594 23.5455 124.867 23.5455C124.066 23.5455 123.373 23.7443 122.788 24.142C122.208 24.5341 121.762 25.0455 121.45 25.6761C121.137 26.3068 120.981 26.983 120.981 27.7045V28.8636C120.981 29.8523 121.151 30.6903 121.492 31.3778C121.839 32.0597 122.319 32.5795 122.933 32.9375C123.546 33.2898 124.259 33.4659 125.072 33.4659C125.6 33.4659 126.077 33.392 126.504 33.2443C126.935 33.0909 127.308 32.8636 127.62 32.5625C127.933 32.2557 128.174 31.875 128.344 31.4205L130.288 31.9659C130.083 32.625 129.739 33.2045 129.256 33.7045C128.773 34.1989 128.177 34.5852 127.467 34.8636C126.756 35.1364 125.958 35.2727 125.072 35.2727ZM138.495 35.2727C137.404 35.2727 136.441 34.9972 135.606 34.446C134.771 33.8892 134.117 33.1051 133.646 32.0938C133.174 31.0767 132.938 29.875 132.938 28.4886C132.938 27.1136 133.174 25.9205 133.646 24.9091C134.117 23.8977 134.773 23.1165 135.614 22.5653C136.455 22.0142 137.427 21.7386 138.529 21.7386C139.381 21.7386 140.055 21.8807 140.549 22.1648C141.049 22.4432 141.43 22.7614 141.691 23.1193C141.958 23.4716 142.165 23.7614 142.313 23.9886H142.484V17.5455H144.495V35H142.552V32.9886H142.313C142.165 33.2273 141.955 33.5284 141.683 33.892C141.41 34.25 141.021 34.571 140.515 34.8551C140.009 35.1335 139.336 35.2727 138.495 35.2727ZM138.768 33.4659C139.575 33.4659 140.256 33.2557 140.813 32.8352C141.37 32.4091 141.793 31.821 142.083 31.071C142.373 30.3153 142.518 29.4432 142.518 28.4545C142.518 27.4773 142.376 26.6222 142.092 25.8892C141.808 25.1506 141.387 24.5767 140.83 24.1676C140.273 23.7528 139.586 23.5455 138.768 23.5455C137.915 23.5455 137.205 23.7642 136.637 24.2017C136.075 24.6335 135.651 25.2216 135.367 25.9659C135.089 26.7045 134.95 27.5341 134.95 28.4545C134.95 29.3864 135.092 30.233 135.376 30.9943C135.665 31.75 136.092 32.3523 136.654 32.8011C137.222 33.2443 137.927 33.4659 138.768 33.4659Z" fill="white"/>
</svg>
