<svg width="69" height="85" viewBox="0 0 69 85" fill="none" xmlns="http://www.w3.org/2000/svg">
<path d="M52.2148 32.0833V24.9167C52.2148 14.8833 44.6346 7 34.9872 7C25.3398 7 17.7596 14.8833 17.7596 24.9167V32.0833C11.9023 32.0833 7.4231 36.7417 7.4231 42.8333V67.9167C7.4231 74.0083 11.9023 78.6667 17.7596 78.6667H52.2148C58.0721 78.6667 62.5513 74.0083 62.5513 67.9167V42.8333C62.5513 36.7417 58.0721 32.0833 52.2148 32.0833ZM24.6507 24.9167C24.6507 18.825 29.1298 14.1667 34.9872 14.1667C40.8446 14.1667 45.3237 18.825 45.3237 24.9167V32.0833H24.6507V24.9167ZM38.7773 55.375L38.4327 55.7333V60.75C38.4327 62.9 37.0545 64.3333 34.9872 64.3333C32.9199 64.3333 31.5417 62.9 31.5417 60.75V55.7333C29.4744 53.5833 29.1298 50.3583 31.1971 48.2083C33.2644 46.0583 36.3654 45.7 38.4327 47.85C40.5 49.6417 40.8446 53.225 38.7773 55.375Z" fill="#D8D8D8"/>
</svg>
