<svg width="18" height="18" viewBox="0 0 18 18" fill="none" xmlns="http://www.w3.org/2000/svg">
<path opacity="0.3" d="M16.125 14.5649L13.7475 12.3149C13.2955 12.8969 12.7537 13.4033 12.1425 13.8149L14.5875 16.1399C14.6903 16.26 14.8174 16.3569 14.9605 16.4242C15.1035 16.4916 15.2592 16.5278 15.4172 16.5305C15.5753 16.5332 15.7321 16.5023 15.8773 16.44C16.0226 16.3776 16.153 16.2851 16.2598 16.1686C16.3667 16.0521 16.4476 15.9143 16.4973 15.7642C16.5469 15.6141 16.5642 15.4552 16.5479 15.298C16.5316 15.1408 16.4822 14.9888 16.4028 14.8521C16.3234 14.7154 16.216 14.597 16.0875 14.5049L16.125 14.5649Z" fill="#3F4254"/>
<path d="M8.355 1.5C7.01998 1.5 5.71493 1.89588 4.6049 2.63758C3.49487 3.37928 2.6297 4.43349 2.11881 5.66689C1.60792 6.90029 1.47425 8.25749 1.7347 9.56686C1.99515 10.8762 2.63802 12.079 3.58203 13.023C4.52603 13.967 5.72877 14.6099 7.03814 14.8703C8.34751 15.1308 9.70471 14.9971 10.9381 14.4862C12.1715 13.9753 13.2257 13.1101 13.9674 12.0001C14.7091 10.8901 15.105 9.58502 15.105 8.25C15.105 6.45979 14.3938 4.7429 13.128 3.47703C11.8621 2.21116 10.1452 1.5 8.355 1.5ZM8.355 13.02C7.41339 13.02 6.4929 12.7409 5.70988 12.2179C4.92685 11.6949 4.31643 10.9516 3.95574 10.0818C3.59506 9.21196 3.50031 8.25477 3.68347 7.33114C3.86662 6.40751 4.31946 5.5589 4.98476 4.89255C5.65006 4.22621 6.49795 3.77203 7.42129 3.58743C8.34463 3.40282 9.30198 3.49606 10.1723 3.85537C11.0427 4.21469 11.787 4.82394 12.3112 5.60614C12.8354 6.38835 13.116 7.30839 13.1175 8.25C13.1195 8.87633 12.9977 9.49688 12.7591 10.076C12.5206 10.6551 12.17 11.1814 11.7275 11.6247C11.2849 12.0679 10.7592 12.4193 10.1804 12.6588C9.60169 12.8982 8.98133 13.021 8.355 13.02Z" fill="#3F4254"/>
</svg>
