<svg width="52" height="52" viewBox="0 0 52 52" fill="none" xmlns="http://www.w3.org/2000/svg">
<rect width="52" height="52" rx="26" fill="#FFE1D4"/>
<path d="M26 40.3333C25.5002 40.3471 25.0032 40.2529 24.5431 40.0574C24.0829 39.8618 23.6703 39.5694 23.3333 39.2C22.6056 38.3349 22.2422 37.2211 22.32 36.0933V18H17.5466C16.5806 18.0549 15.6291 17.7457 14.88 17.1333C14.556 16.8415 14.2989 16.4831 14.1263 16.0826C13.9537 15.6822 13.8697 15.2492 13.88 14.8133C13.8668 14.3654 13.9533 13.9201 14.1331 13.5097C14.313 13.0993 14.5817 12.7339 14.92 12.44C15.6807 11.8531 16.6273 11.5596 17.5866 11.6133H34.4266C35.391 11.571 36.3381 11.8788 37.0933 12.48C37.4176 12.7744 37.6747 13.1352 37.8473 13.5378C38.0198 13.9404 38.1037 14.3754 38.0933 14.8133C38.1022 15.2535 38.0149 15.6903 37.8376 16.0933C37.6603 16.4963 37.3972 16.8558 37.0666 17.1466C36.3096 17.743 35.3626 18.0461 34.4 18H29.6V36.0933C29.6939 37.2138 29.3605 38.3284 28.6666 39.2133C28.3301 39.5824 27.9172 39.8738 27.4567 40.0672C26.9962 40.2606 26.4991 40.3514 26 40.3333ZM17.5466 13.6666C17.0758 13.6284 16.6059 13.7506 16.2133 14.0133C16.0914 14.1173 15.9962 14.2492 15.9359 14.3977C15.8755 14.5462 15.8518 14.707 15.8666 14.8666C15.8554 15.0227 15.8796 15.1793 15.9373 15.3247C15.995 15.4702 16.0848 15.6007 16.2 15.7066C16.5921 15.9703 17.0624 16.0926 17.5333 16.0533H24.32V36.0533C24.2597 36.6789 24.4304 37.3049 24.8 37.8133C24.9515 37.9741 25.136 38.1002 25.3408 38.1831C25.5456 38.2659 25.7659 38.3035 25.9866 38.2933C26.2024 38.3058 26.4183 38.2705 26.6189 38.1898C26.8194 38.1091 26.9996 37.9851 27.1466 37.8266C27.5069 37.3093 27.6723 36.681 27.6133 36.0533V16.0533H34.4133C34.8861 16.092 35.3576 15.9647 35.7466 15.6933C35.8656 15.5927 35.959 15.4653 36.0193 15.3216C36.0795 15.1779 36.1049 15.022 36.0933 14.8666C36.1127 14.7094 36.0964 14.5498 36.0456 14.3998C35.9949 14.2497 35.9109 14.1131 35.8 14C35.4061 13.7401 34.9372 13.6182 34.4666 13.6533L17.5466 13.6666Z" fill="#EA5E20"/>
</svg>
