<svg width="26" height="25" viewBox="0 0 26 25" fill="none" xmlns="http://www.w3.org/2000/svg">
<path d="M8.38898 0.638184C7.5391 0.638184 6.84375 1.29761 6.84375 2.10358V22.6191C6.84375 23.425 7.5391 24.0845 8.38898 24.0845H23.8412C24.6911 24.0845 25.3865 23.425 25.3865 22.6191V6.49975L19.2056 0.638184H8.38898Z" fill="#FDFDFD"/>
<path d="M20.7484 6.81909H25.384L19.2031 0.638184V5.27386C19.2031 6.12374 19.8985 6.81909 20.7484 6.81909Z" fill="#E4F0FF"/>
<path d="M25.3818 11.455L20.7461 6.81934H25.3818V11.455Z" fill="#CAD1D8"/>
<path d="M22.2935 21.4293C22.2935 21.9402 21.8755 22.3582 21.3646 22.3582H0.928895C0.418003 22.3582 0 21.9402 0 21.4293V12.1403C0 11.6294 0.418003 11.2114 0.928895 11.2114H21.3646C21.8755 11.2114 22.2935 11.6294 22.2935 12.1403V21.4293Z" fill="#F15642"/>
<path d="M4.26562 14.878C4.26562 14.6328 4.45884 14.3652 4.77002 14.3652H6.48569C7.45174 14.3652 8.32118 15.0117 8.32118 16.2509C8.32118 17.425 7.45174 18.079 6.48569 18.079H5.24561V19.0599C5.24561 19.3868 5.03847 19.5717 4.77094 19.5717C4.52572 19.5717 4.26655 19.3868 4.26655 19.0599V14.878H4.26562V14.878ZM5.24561 15.3006V17.151H6.48569C6.98357 17.151 7.37742 16.7116 7.37742 16.2509C7.37742 15.7316 6.98357 15.3006 6.48569 15.3006H5.24561Z" fill="white"/>
<path d="M9.26562 14.878C9.26562 14.6328 9.45884 14.3652 9.77094 14.3652H11.4866C12.4527 14.3652 13.3221 15.0117 13.3221 16.2509C13.3221 17.425 12.4527 18.079 11.4866 18.079H10.2465V19.0599C10.2465 19.3868 10.0385 19.5717 9.77094 19.5717C9.52572 19.5717 9.26562 19.3868 9.26562 19.0599V14.878V14.878ZM10.2456 15.3006V17.151H11.4857C11.9836 17.151 12.3774 16.7116 12.3774 16.2509C12.3774 15.7316 11.9836 15.3006 11.4857 15.3006H10.2456Z" fill="white"/>
<path d="M15.6604 15.3613H14.3618C13.7153 15.3613 13.7153 14.411 14.3618 14.411H17.874C18.5354 14.411 18.5354 15.3613 17.874 15.3613H16.6413V19.1122C16.6413 19.7577 15.6604 19.7735 15.6604 19.1122V15.3613Z" fill="white"/>
</svg>
