<svg width="20" height="25" viewBox="0 0 20 25" fill="none" xmlns="http://www.w3.org/2000/svg">
<path d="M19.1326 20.6202C19.1454 21.0657 19.0664 21.5092 18.9005 21.9229C18.7346 22.3366 18.4854 22.7118 18.1684 23.0252C17.5233 23.6654 16.6506 24.0238 15.7417 24.0218H4.26922C3.39299 24.0253 2.54967 23.6883 1.91708 23.082C1.28449 22.4757 0.912082 21.6474 0.878387 20.7718V20.2843C0.888176 19.3408 1.0957 18.4098 1.48755 17.5515C1.87941 16.6931 2.4469 15.9265 3.15339 15.301L6.08922 12.6577C6.13859 12.6203 6.17863 12.572 6.2062 12.5165C6.23377 12.4611 6.24812 12.4 6.24812 12.3381C6.24812 12.2762 6.23377 12.2151 6.2062 12.1596C6.17863 12.1042 6.13859 12.0559 6.08922 12.0185L3.14255 9.37517C3.00468 9.22851 2.92793 9.0348 2.92793 8.83351C2.92793 8.63222 3.00468 8.4385 3.14255 8.29184C3.2949 8.13968 3.50141 8.05422 3.71672 8.05422C3.93203 8.05422 4.13854 8.13968 4.29089 8.29184L7.18339 10.8377C7.3973 11.0248 7.56874 11.2554 7.6862 11.5142C7.80366 11.773 7.86442 12.0539 7.86442 12.3381C7.86442 12.6223 7.80366 12.9032 7.6862 13.162C7.56874 13.4207 7.3973 13.6514 7.18339 13.8385L4.24755 16.4818C3.70162 16.9498 3.26244 17.5295 2.95969 18.1818C2.65693 18.834 2.49763 19.5436 2.49255 20.2627V20.7285C2.50939 21.1855 2.70283 21.6181 3.03218 21.9353C3.36154 22.2526 3.80111 22.4296 4.25839 22.4293H15.7417C16.211 22.4265 16.6602 22.238 16.991 21.9051C17.3219 21.5723 17.5076 21.122 17.5076 20.6527V20.2843C17.5049 19.5617 17.3468 18.8482 17.0439 18.1921C16.7411 17.536 16.3007 16.9527 15.7526 16.4818L12.8167 13.8385C12.6059 13.6495 12.4373 13.4182 12.3218 13.1597C12.2064 12.9012 12.1467 12.6212 12.1467 12.3381C12.1467 12.055 12.2064 11.775 12.3218 11.5165C12.4373 11.258 12.6059 11.0267 12.8167 10.8377L15.7417 8.20517C16.2869 7.73414 16.7253 7.15234 17.028 6.49853C17.3306 5.84472 17.4904 5.13392 17.4967 4.41351V4.06684C17.4953 3.83637 17.4485 3.60843 17.359 3.39605C17.2695 3.18367 17.139 2.99099 16.975 2.82903C16.8111 2.66707 16.6168 2.53899 16.4033 2.45211C16.1899 2.36523 15.9614 2.32125 15.7309 2.32267H4.25839C4.02792 2.32125 3.79942 2.36523 3.58595 2.45211C3.37248 2.53899 3.17821 2.66707 3.01423 2.82903C2.85026 2.99099 2.71979 3.18367 2.63028 3.39605C2.54077 3.60843 2.49397 3.83637 2.49255 4.06684V4.41351C2.49255 4.62899 2.40695 4.83566 2.25458 4.98803C2.1022 5.1404 1.89554 5.22601 1.68005 5.22601C1.46457 5.22601 1.2579 5.1404 1.10553 4.98803C0.953156 4.83566 0.867554 4.62899 0.867554 4.41351V4.06684C0.876137 3.17516 1.23786 2.32325 1.87346 1.6978C2.50906 1.07236 3.36668 0.724397 4.25839 0.730173H15.7309C16.6226 0.724397 17.4802 1.07236 18.1158 1.6978C18.7514 2.32325 19.1131 3.17516 19.1217 4.06684V4.41351C19.1123 5.35393 18.9048 6.28182 18.5128 7.13671C18.1208 7.99161 17.5531 8.75432 16.8467 9.37517L13.9109 12.0185C13.8627 12.0577 13.8241 12.1073 13.7978 12.1636C13.7715 12.2199 13.7583 12.2814 13.7592 12.3435C13.7592 12.4039 13.7728 12.4636 13.7991 12.518C13.8253 12.5724 13.8636 12.6201 13.9109 12.6577L16.8467 15.301C17.5531 15.9219 18.1208 16.6846 18.5128 17.5395C18.9048 18.3944 19.1123 19.3222 19.1217 20.2627L19.1326 20.6202ZM5.54755 18.7027L8.16922 16.0485C8.67631 15.5581 9.35417 15.2839 10.0596 15.2839C10.7651 15.2839 11.443 15.5581 11.9501 16.0485L14.5609 18.7027C14.747 18.8869 14.8727 19.1234 14.9211 19.3808C14.9694 19.6382 14.9383 19.9043 14.8317 20.1435C14.7291 20.3774 14.561 20.5766 14.3476 20.717C14.1341 20.8573 13.8846 20.9328 13.6292 20.9343H6.49005C6.23071 20.9362 5.97663 20.8612 5.75996 20.7186C5.5433 20.5761 5.37379 20.3724 5.27289 20.1335C5.17198 19.8946 5.14422 19.6311 5.19312 19.3764C5.24201 19.1217 5.36536 18.8872 5.54755 18.7027ZM7.19422 19.3418H12.9251L10.7584 17.1752C10.5593 16.9955 10.3007 16.8961 10.0326 16.8961C9.76441 16.8961 9.50578 16.9955 9.30672 17.1752L7.19422 19.3418Z" fill="#EA5E20"/>
</svg>
