<svg width="22" height="25" viewBox="0 0 22 25" fill="none" xmlns="http://www.w3.org/2000/svg">
<path d="M7.45758 13.4594C7.27593 13.4615 7.09898 13.5173 6.94898 13.6198C6.79898 13.7223 6.68264 13.8668 6.61461 14.0352C6.54657 14.2037 6.52987 14.3885 6.56662 14.5664C6.60336 14.7443 6.69191 14.9074 6.82111 15.0351C6.95031 15.1628 7.11439 15.2494 7.29272 15.284C7.47104 15.3187 7.65563 15.2998 7.82326 15.2298C7.99089 15.1598 8.13407 15.0418 8.23478 14.8906C8.33549 14.7394 8.38924 14.5619 8.38925 14.3802C8.38926 14.2584 8.36508 14.1377 8.31813 14.0253C8.27118 13.9129 8.20238 13.8109 8.11572 13.7252C8.02907 13.6396 7.92627 13.572 7.8133 13.5263C7.70032 13.4807 7.57942 13.4579 7.45758 13.4594ZM10.9351 13.4594C10.7534 13.4615 10.5765 13.5173 10.4265 13.6198C10.2765 13.7223 10.1601 13.8668 10.0921 14.0352C10.0241 14.2037 10.0074 14.3885 10.0441 14.5664C10.0809 14.7443 10.1694 14.9074 10.2986 15.0351C10.4278 15.1628 10.5919 15.2494 10.7702 15.284C10.9485 15.3187 11.1331 15.2998 11.3008 15.2298C11.4684 15.1598 11.6116 15.0418 11.7123 14.8906C11.813 14.7394 11.8667 14.5619 11.8667 14.3802C11.8668 14.2584 11.8426 14.1377 11.7956 14.0253C11.7487 13.9129 11.6799 13.8109 11.5932 13.7252C11.5066 13.6396 11.4038 13.572 11.2908 13.5263C11.1778 13.4807 11.0569 13.4579 10.9351 13.4594ZM7.44675 16.926C7.2651 16.9282 7.08814 16.984 6.93815 17.0865C6.78815 17.1889 6.67181 17.3335 6.60377 17.5019C6.53573 17.6704 6.51904 17.8552 6.55578 18.0331C6.59253 18.211 6.68107 18.374 6.81027 18.5017C6.93948 18.6294 7.10356 18.716 7.28188 18.7507C7.46021 18.7854 7.6448 18.7665 7.81243 18.6965C7.98006 18.6265 8.12324 18.5085 8.22395 18.3573C8.32466 18.2061 8.3784 18.0285 8.37842 17.8469C8.38433 17.7214 8.36454 17.5961 8.32023 17.4786C8.27593 17.3611 8.20806 17.2539 8.1208 17.1636C8.03354 17.0733 7.92872 17.0018 7.81281 16.9535C7.69689 16.9052 7.57232 16.8811 7.44675 16.8827V16.926ZM17.0017 3.09186V1.47769C16.9796 1.29356 16.8908 1.12393 16.7521 1.00086C16.6133 0.877795 16.4343 0.809837 16.2488 0.809837C16.0634 0.809837 15.8844 0.877795 15.7456 1.00086C15.6069 1.12393 15.518 1.29356 15.4959 1.47769V2.85353H15.1492H11.9642V1.47769C11.9642 1.27657 11.8844 1.08369 11.7421 0.941471C11.5999 0.799256 11.407 0.71936 11.2059 0.71936C11.0048 0.71936 10.8119 0.799256 10.6697 0.941471C10.5275 1.08369 10.4476 1.27657 10.4476 1.47769V2.83186H6.85091H6.50425V1.47769C6.48212 1.29356 6.39329 1.12393 6.25455 1.00086C6.11581 0.877795 5.93679 0.809837 5.75133 0.809837C5.56588 0.809837 5.38685 0.877795 5.24811 1.00086C5.10937 1.12393 5.02054 1.29356 4.99841 1.47769V3.09186C3.60703 3.4932 2.38361 4.33555 1.51225 5.49216C0.640879 6.64877 0.168698 8.05708 0.166748 9.50519V17.3485C0.172486 19.1223 0.88187 20.8213 2.13915 22.0724C3.39642 23.3236 5.09883 24.0247 6.87258 24.0219H15.1709C16.9372 24.0133 18.6285 23.3071 19.8764 22.0572C21.1243 20.8072 21.8277 19.1148 21.8334 17.3485V9.50519C21.8315 8.05708 21.3593 6.64877 20.4879 5.49216C19.6166 4.33555 18.3931 3.4932 17.0017 3.09186ZM4.99841 4.68436V5.56186C5.02054 5.74599 5.10937 5.91563 5.24811 6.03869C5.38685 6.16176 5.56588 6.22972 5.75133 6.22972C5.93679 6.22972 6.11581 6.16176 6.25455 6.03869C6.39329 5.91563 6.48212 5.74599 6.50425 5.56186V4.37019C6.62341 4.37019 6.73175 4.37019 6.85091 4.37019H10.4476V5.56186C10.4476 5.76298 10.5275 5.95587 10.6697 6.09808C10.8119 6.2403 11.0048 6.32019 11.2059 6.32019C11.407 6.32019 11.5999 6.2403 11.7421 6.09808C11.8844 5.95587 11.9642 5.76298 11.9642 5.56186V4.33769H15.1492C15.2684 4.33769 15.3767 4.33769 15.4959 4.33769V5.52936C15.518 5.71349 15.6069 5.88313 15.7456 6.00619C15.8844 6.12926 16.0634 6.19722 16.2488 6.19722C16.4343 6.19722 16.6133 6.12926 16.7521 6.00619C16.8908 5.88313 16.9796 5.71349 17.0017 5.52936V4.68436C17.8531 5.01552 18.602 5.56557 19.1726 6.2789C19.7433 6.99223 20.1155 7.84356 20.2517 8.74686H1.72675C1.86491 7.84117 2.2404 6.98821 2.81504 6.27466C3.38969 5.56111 4.143 5.01242 4.99841 4.68436ZM20.3492 17.3485C20.3435 18.7229 19.7928 20.0389 18.8179 21.0077C17.843 21.9764 16.5236 22.5189 15.1492 22.516H6.85091C5.47653 22.5189 4.15714 21.9764 3.18226 21.0077C2.20738 20.0389 1.65665 18.7229 1.65091 17.3485V10.2094H20.3492V17.3485Z" fill="#EA5E20"/>
</svg>
