<svg width="24" height="21" viewBox="0 0 24 21" fill="none" xmlns="http://www.w3.org/2000/svg">
<path d="M18.084 0H5.916C4.34698 0 2.84222 0.681725 1.73276 1.8952C0.623291 3.10868 0 4.75451 0 6.47063V14.5294C0 16.2455 0.623291 17.8913 1.73276 19.1048C2.84222 20.3183 4.34698 21 5.916 21H18.084C18.8609 21 19.6302 20.8326 20.348 20.5075C21.0657 20.1823 21.7179 19.7057 22.2672 19.1048C22.8166 18.5039 23.2524 17.7906 23.5497 17.0056C23.847 16.2205 24 15.3791 24 14.5294V6.47063C24 5.62089 23.847 4.77948 23.5497 3.99442C23.2524 3.20937 22.8166 2.49606 22.2672 1.8952C21.7179 1.29435 21.0657 0.817726 20.348 0.492547C19.6302 0.167367 18.8609 0 18.084 0ZM14.484 11.6944L10.8 14.1619C10.6059 14.2908 10.3838 14.3605 10.1567 14.3638C9.92968 14.367 9.70596 14.3038 9.5088 14.1806C9.31165 14.0574 9.14824 13.8787 9.03556 13.663C8.92288 13.4474 8.86502 13.2027 8.868 12.9544V8.04563C8.86502 7.79728 8.92288 7.5526 9.03556 7.33697C9.14824 7.12135 9.31165 6.94265 9.5088 6.81942C9.70596 6.6962 9.92968 6.63295 10.1567 6.63624C10.3838 6.63953 10.6059 6.70924 10.8 6.83813L14.544 9.30563C14.7323 9.4302 14.8879 9.60608 14.9954 9.81608C15.103 10.0261 15.1589 10.263 15.1577 10.5037C15.1565 10.7444 15.0982 10.9807 14.9885 11.1894C14.8789 11.3981 14.7216 11.5721 14.532 11.6944H14.484Z" fill="#FDFDFD"/>
</svg>
