<svg width="52" height="52" viewBox="0 0 52 52" fill="none" xmlns="http://www.w3.org/2000/svg">
<rect width="52" height="52" rx="26" fill="#FFE1D4"/>
<path d="M23.9201 30.92C23.6027 30.9218 23.288 30.8606 22.9945 30.7399C22.7009 30.6193 22.4341 30.4416 22.2097 30.2171C21.9852 29.9927 21.8075 29.7259 21.6869 29.4323C21.5662 29.1387 21.505 28.8241 21.5067 28.5067V23.5067C21.5036 23.077 21.6153 22.6542 21.8302 22.2821C22.0451 21.91 22.3555 21.602 22.7293 21.3899C23.103 21.1779 23.5266 21.0695 23.9563 21.076C24.386 21.0824 24.8062 21.2035 25.1734 21.4267L29.3201 23.92C29.679 24.1357 29.976 24.4407 30.1822 24.8051C30.3885 25.1696 30.4968 25.5813 30.4968 26C30.4968 26.4188 30.3885 26.8305 30.1822 27.1949C29.976 27.5594 29.679 27.8643 29.3201 28.08L25.1734 30.5734C24.7961 30.8034 24.362 30.9234 23.9201 30.92ZM23.9201 23.08C23.8647 23.08 23.8098 23.0911 23.7588 23.1127C23.7077 23.1343 23.6616 23.166 23.623 23.2058C23.5844 23.2456 23.5543 23.2927 23.5343 23.3444C23.5143 23.3961 23.505 23.4513 23.5067 23.5067V28.5067C23.504 28.5809 23.5227 28.6542 23.5605 28.7181C23.5983 28.7819 23.6537 28.8335 23.7201 28.8667C23.7824 28.9043 23.8539 28.9242 23.9267 28.9242C23.9996 28.9242 24.071 28.9043 24.1334 28.8667L28.2934 26.36C28.354 26.3215 28.4039 26.2683 28.4384 26.2054C28.473 26.1425 28.4911 26.0718 28.4911 26C28.4911 25.9283 28.473 25.8576 28.4384 25.7947C28.4039 25.7318 28.354 25.6786 28.2934 25.64L24.1334 23.1334C24.0682 23.0973 23.9946 23.0789 23.9201 23.08ZM32.7601 37.6667H19.2401C17.2326 37.6632 15.3083 36.8641 13.8888 35.4446C12.4693 34.0251 11.6703 32.1009 11.6667 30.0934V21.9067C11.6703 19.8992 12.4693 17.975 13.8888 16.5554C15.3083 15.1359 17.2326 14.3369 19.2401 14.3334H32.7601C34.7676 14.3369 36.6918 15.1359 38.1113 16.5554C39.5309 17.975 40.3299 19.8992 40.3334 21.9067V30.0934C40.3299 32.1009 39.5309 34.0251 38.1113 35.4446C36.6918 36.8641 34.7676 37.6632 32.7601 37.6667ZM19.2401 16.3334C17.763 16.3369 16.3475 16.9252 15.303 17.9697C14.2586 19.0141 13.6703 20.4296 13.6667 21.9067V30.0934C13.6667 31.5715 14.2539 32.9891 15.2991 34.0343C16.3443 35.0795 17.7619 35.6667 19.2401 35.6667H32.7601C34.2382 35.6667 35.6558 35.0795 36.701 34.0343C37.7462 32.9891 38.3334 31.5715 38.3334 30.0934V21.9067C38.3299 20.4296 37.7416 19.0141 36.6971 17.9697C35.6527 16.9252 34.2371 16.3369 32.7601 16.3334H19.2401Z" fill="#EA5E20"/>
</svg>
