<svg width="20" height="25" viewBox="0 0 20 25" fill="none" xmlns="http://www.w3.org/2000/svg">
<path d="M19.1324 20.6202C19.1452 21.0657 19.0663 21.5092 18.9004 21.9229C18.7345 22.3366 18.4853 22.7118 18.1683 23.0252C17.5231 23.6654 16.6505 24.0238 15.7416 24.0218H4.2691C3.39287 24.0253 2.54954 23.6883 1.91696 23.082C1.28437 22.4757 0.911959 21.6474 0.878265 20.7718V20.2843C0.888054 19.3408 1.09557 18.4098 1.48743 17.5515C1.87929 16.6931 2.44678 15.9265 3.15326 15.301L6.0891 12.6577C6.13847 12.6203 6.17851 12.572 6.20608 12.5165C6.23365 12.4611 6.24799 12.4 6.24799 12.3381C6.24799 12.2762 6.23365 12.2151 6.20608 12.1596C6.17851 12.1042 6.13847 12.0559 6.0891 12.0185L3.14243 9.37517C3.00456 9.22851 2.92781 9.0348 2.92781 8.83351C2.92781 8.63222 3.00456 8.4385 3.14243 8.29184C3.29478 8.13968 3.50129 8.05422 3.7166 8.05422C3.93191 8.05422 4.13842 8.13968 4.29077 8.29184L7.18327 10.8377C7.39718 11.0248 7.56861 11.2554 7.68607 11.5142C7.80353 11.773 7.8643 12.0539 7.8643 12.3381C7.8643 12.6223 7.80353 12.9032 7.68607 13.162C7.56861 13.4207 7.39718 13.6514 7.18327 13.8385L4.24743 16.4818C3.70149 16.9498 3.26232 17.5295 2.95956 18.1818C2.65681 18.834 2.49751 19.5436 2.49243 20.2627V20.7285C2.50926 21.1855 2.70271 21.6181 3.03206 21.9353C3.36141 22.2526 3.80098 22.4296 4.25827 22.4293H15.7416C16.2109 22.4265 16.66 22.238 16.9909 21.9051C17.3217 21.5723 17.5074 21.122 17.5074 20.6527V20.2843C17.5047 19.5617 17.3466 18.8482 17.0438 18.1921C16.741 17.536 16.3006 16.9527 15.7524 16.4818L12.8166 13.8385C12.6058 13.6495 12.4371 13.4182 12.3217 13.1597C12.2062 12.9012 12.1466 12.6212 12.1466 12.3381C12.1466 12.055 12.2062 11.775 12.3217 11.5165C12.4371 11.258 12.6058 11.0267 12.8166 10.8377L15.7416 8.20517C16.2867 7.73414 16.7252 7.15234 17.0278 6.49853C17.3305 5.84472 17.4903 5.13392 17.4966 4.41351V4.06684C17.4952 3.83637 17.4484 3.60843 17.3589 3.39605C17.2694 3.18367 17.1389 2.99099 16.9749 2.82903C16.8109 2.66707 16.6167 2.53899 16.4032 2.45211C16.1897 2.36523 15.9612 2.32125 15.7308 2.32267H4.25827C4.02779 2.32125 3.7993 2.36523 3.58583 2.45211C3.37235 2.53899 3.17808 2.66707 3.01411 2.82903C2.85014 2.99099 2.71967 3.18367 2.63016 3.39605C2.54065 3.60843 2.49385 3.83637 2.49243 4.06684V4.41351C2.49243 4.62899 2.40683 4.83566 2.25446 4.98803C2.10208 5.1404 1.89542 5.22601 1.67993 5.22601C1.46444 5.22601 1.25778 5.1404 1.10541 4.98803C0.953034 4.83566 0.867432 4.62899 0.867432 4.41351V4.06684C0.876015 3.17516 1.23774 2.32325 1.87334 1.6978C2.50894 1.07236 3.36656 0.724397 4.25827 0.730173H15.7308C16.6225 0.724397 17.4801 1.07236 18.1157 1.6978C18.7513 2.32325 19.113 3.17516 19.1216 4.06684V4.41351C19.1122 5.35393 18.9047 6.28182 18.5127 7.13671C18.1207 7.99161 17.553 8.75432 16.8466 9.37517L13.9108 12.0185C13.8626 12.0577 13.8239 12.1073 13.7977 12.1636C13.7714 12.2199 13.7582 12.2814 13.7591 12.3435C13.7591 12.4039 13.7727 12.4636 13.799 12.518C13.8252 12.5724 13.8634 12.6201 13.9108 12.6577L16.8466 15.301C17.553 15.9219 18.1207 16.6846 18.5127 17.5395C18.9047 18.3944 19.1122 19.3222 19.1216 20.2627L19.1324 20.6202ZM5.54743 18.7027L8.1691 16.0485C8.67619 15.5581 9.35405 15.2839 10.0595 15.2839C10.765 15.2839 11.4428 15.5581 11.9499 16.0485L14.5608 18.7027C14.7469 18.8869 14.8726 19.1234 14.9209 19.3808C14.9693 19.6382 14.9382 19.9043 14.8316 20.1435C14.729 20.3774 14.5608 20.5766 14.3474 20.717C14.134 20.8573 13.8845 20.9328 13.6291 20.9343H6.48993C6.23059 20.9362 5.9765 20.8612 5.75984 20.7186C5.54318 20.5761 5.37367 20.3724 5.27277 20.1335C5.17186 19.8946 5.1441 19.6311 5.19299 19.3764C5.24189 19.1217 5.36523 18.8872 5.54743 18.7027ZM7.1941 19.3418H12.9249L10.7583 17.1752C10.5592 16.9955 10.3006 16.8961 10.0324 16.8961C9.76428 16.8961 9.50566 16.9955 9.3066 17.1752L7.1941 19.3418Z" fill="#EA5E20"/>
</svg>
