<svg width="229" height="225" viewBox="0 0 229 225" fill="none" xmlns="http://www.w3.org/2000/svg">
<path d="M195.076 219.366H1.47578C1.32991 219.366 1.19002 219.308 1.08687 219.205C0.983727 219.102 0.925781 218.963 0.925781 218.818C0.925781 218.672 0.983727 218.533 1.08687 218.43C1.19002 218.327 1.32991 218.27 1.47578 218.27H195.076C195.222 218.27 195.362 218.327 195.465 218.43C195.568 218.533 195.626 218.672 195.626 218.818C195.626 218.963 195.568 219.102 195.465 219.205C195.362 219.308 195.222 219.366 195.076 219.366Z" fill="#1D1D1B"/>
<path d="M171.926 113.011C166.294 113.011 162.765 112.329 162.71 112.318C162.637 112.306 162.567 112.28 162.504 112.241C162.441 112.202 162.387 112.15 162.345 112.09C162.303 112.029 162.273 111.961 162.258 111.889C162.243 111.816 162.242 111.742 162.257 111.669C162.271 111.597 162.3 111.528 162.342 111.467C162.384 111.406 162.437 111.354 162.5 111.315C162.562 111.275 162.632 111.248 162.705 111.236C162.778 111.224 162.853 111.226 162.925 111.244C163.016 111.263 172.261 113.038 184.773 110.739C196.304 108.621 213.057 102.506 227.382 85.4026C227.477 85.297 227.61 85.2323 227.752 85.2221C227.894 85.2119 228.034 85.257 228.143 85.3478C228.253 85.4387 228.323 85.5683 228.338 85.7093C228.353 85.8503 228.313 85.9918 228.226 86.104C221.805 93.776 214.363 99.9246 206.116 104.388C199.491 107.966 192.338 110.477 184.925 111.827C180.636 112.611 176.286 113.007 171.926 113.011Z" fill="#1D1D1B"/>
<path d="M48.2242 80.1738C48.2242 80.1738 50.9742 82.3658 50.6992 85.9278C50.4242 89.4898 38.3242 87.5718 38.3242 87.5718L48.2242 80.1738Z" fill="#FFCDB2"/>
<path d="M48.2238 80.1742C48.2238 80.1742 50.9738 82.3662 50.6988 85.9282C50.5668 87.6434 47.693 88.0873 44.7478 88.0873C42.5972 88.0619 40.4508 87.8898 38.3238 87.5722L48.2238 80.1742ZM48.2403 79.1357L47.7288 79.5166L37.8288 86.9146L36.2695 88.0791L38.1945 88.3832C40.3641 88.7098 42.5538 88.8856 44.7478 88.9093C46.3675 88.9093 51.2955 88.9093 51.521 85.9912C51.8263 82.0401 48.8645 79.6317 48.738 79.533L48.2403 79.1357Z" fill="#1D1D1B"/>
<path d="M32.0727 218.818C32.0727 218.818 27.5489 209.368 72.4262 197.172L150.939 217.037L150.752 218.818H32.0727Z" fill="#6C32AD"/>
<path d="M151.124 219.23H31.8129L31.7001 218.997C31.6781 218.95 31.1887 217.901 32.0082 216.103C33.6582 212.528 41.0832 205.267 72.3204 196.775L72.4249 196.748L72.5294 196.775L151.388 216.728L151.124 219.23ZM32.3849 218.408H150.382L150.492 217.347L72.4277 197.597C41.6029 205.987 34.3402 213.007 32.7562 216.446C32.3134 217.413 32.3299 218.079 32.3849 218.408Z" fill="#1D1F1C"/>
<path d="M33.7454 86.361L33.3549 91.1176C33.3549 91.1176 24.5549 94.9043 27.4837 107.533C30.4124 120.162 36.7292 146.304 79.4202 146.129C79.4202 146.129 62.7854 177.217 72.4269 197.172C96.9514 208.636 123.214 215.349 151.214 217.311C151.214 217.311 158.034 194.311 158.089 183.335C158.144 172.359 170.088 181.143 171.036 173.041C171.985 164.939 165.239 132.919 126.739 118.671C126.739 118.671 118.016 125.066 110.514 113.191C110.514 113.191 100.889 111.821 69.0692 120.784C59.8374 123.384 59.4442 117.465 60.6789 109.399C61.9137 101.332 59.6999 93.8302 50.9907 89.7421L50.7294 86.0596C50.7294 86.0596 46.5219 89.0955 33.7454 86.361Z" fill="#FFAD00"/>
<path d="M50.7302 86.0598L50.9914 89.7424C59.7007 93.8304 61.9089 101.333 60.6797 109.399C59.6512 116.156 59.7529 121.406 65.2392 121.406C66.5386 121.374 67.8274 121.164 69.0699 120.784C93.4432 113.934 104.792 113.112 108.772 113.112C109.354 113.101 109.936 113.126 110.515 113.186C114.126 118.904 118.02 120.387 121.089 120.387C123.1 120.372 125.064 119.774 126.74 118.666C165.24 132.914 171.986 164.947 171.037 173.036C170.088 181.124 158.145 172.353 158.09 183.33C158.035 194.306 151.215 217.306 151.215 217.306C123.196 215.391 96.9338 208.68 72.4277 197.172C62.7862 177.217 79.4209 146.129 79.4209 146.129H78.9947C36.6914 146.129 30.3912 120.118 27.4844 107.533C24.5667 94.9045 33.3557 91.1178 33.3557 91.1178L33.7462 86.3612C37.7144 87.2106 40.8522 87.5038 43.2969 87.5038C48.7282 87.5038 50.7219 86.0598 50.7219 86.0598H50.7302ZM51.4397 84.5254L50.2517 85.3803C50.1829 85.4268 48.2442 86.6735 43.2969 86.6735C40.1404 86.6248 36.9976 86.2483 33.9194 85.5501L33.0009 85.3529L32.9239 86.2872L32.5719 90.5863C31.027 91.4624 29.691 92.6617 28.6559 94.1017C26.8849 96.543 25.1029 100.889 26.6787 107.711C28.0537 113.709 30.3857 123.751 37.8519 132.097C41.9027 136.637 47.0754 140.18 53.2024 142.646C60.1434 145.425 68.5117 146.874 78.0817 146.962C75.4145 152.429 73.2176 158.112 71.5147 163.95C69.7822 169.978 68.8114 175.63 68.6272 180.757C68.3989 187.218 69.4274 192.865 71.6852 197.537L71.8117 197.811L72.0867 197.937C84.3731 203.678 97.1702 208.264 110.312 211.637C123.7 215.038 137.374 217.212 151.16 218.131L151.82 218.177L152.007 217.544C152.282 216.602 158.86 194.309 158.915 183.338C158.94 178.201 161.613 178.061 164.998 177.885C167.822 177.737 171.34 177.557 171.857 173.137C172.357 168.86 170.784 158.568 164.393 147.748C160.729 141.576 156.058 136.055 150.572 131.412C143.95 125.776 136.027 121.228 127.026 117.899L126.611 117.742L126.251 118.016C124.715 119.018 122.924 119.56 121.089 119.578C117.393 119.578 114.071 117.285 111.214 112.761L111.01 112.441L110.631 112.386C110.013 112.319 109.392 112.292 108.772 112.304C104.985 112.304 93.5174 113.052 68.8444 120.003C67.6745 120.359 66.4619 120.557 65.2392 120.592C63.8339 120.592 62.8274 120.214 62.1592 119.441C60.5312 117.556 60.9107 113.372 61.4964 109.531C62.9347 100.086 59.5714 93.0714 51.7807 89.2163L51.5524 86.0077L51.4479 84.5336L51.4397 84.5254Z" fill="#1D1D1B"/>
<path d="M51.6007 90.0377C51.4 89.9363 51.1965 89.8322 50.9875 89.7363L50.7262 86.0537C50.7262 86.0537 46.5187 89.0896 33.7422 86.3551L33.3517 91.1118C33.3517 91.1118 33.2142 91.1693 32.9805 91.2981C38.1477 92.838 46.0512 94.1093 51.6007 90.0377Z" fill="#E89D00"/>
<path d="M152.147 133.561C166.612 146.123 194.612 177.916 194.615 186.656C194.618 195.397 188.551 196.975 188.551 196.975L189.874 203.474L168.677 212.79L166.843 208.708C166.843 208.708 157.809 209.163 155.4 201.43C152.991 193.698 147.607 163.572 141.301 158.029" fill="#FFAD00"/>
<path d="M168.674 213.204C168.595 213.204 168.517 213.181 168.45 213.138C168.384 213.095 168.331 213.034 168.297 212.963L166.576 209.127C164.984 209.127 157.226 208.707 155.001 201.553C154.382 199.564 153.557 196.073 152.6 192.002C149.82 180.22 145.621 162.379 141.026 158.338C140.985 158.302 140.952 158.258 140.928 158.21C140.904 158.161 140.891 158.108 140.887 158.054C140.884 158 140.892 157.946 140.91 157.895C140.927 157.843 140.955 157.796 140.991 157.756C141.027 157.715 141.071 157.682 141.12 157.659C141.169 157.635 141.222 157.621 141.276 157.618C141.331 157.615 141.385 157.622 141.436 157.64C141.488 157.658 141.535 157.685 141.576 157.721C146.369 161.936 150.607 179.915 153.401 191.815C154.352 195.857 155.177 199.35 155.788 201.309C158.073 208.642 166.463 208.318 166.818 208.302C166.901 208.297 166.983 208.318 167.053 208.361C167.124 208.404 167.18 208.468 167.214 208.543L168.878 212.242L189.401 203.216L188.144 197.046C188.123 196.943 188.143 196.836 188.198 196.747C188.254 196.658 188.342 196.593 188.444 196.566C188.678 196.503 194.219 194.939 194.2 186.645C194.2 178.036 165.809 145.961 151.872 133.859C151.789 133.786 151.739 133.684 151.732 133.574C151.726 133.465 151.763 133.357 151.836 133.275C151.909 133.193 152.012 133.143 152.121 133.137C152.231 133.13 152.339 133.167 152.422 133.24C166.818 145.742 195.03 177.669 195.047 186.645C195.047 194.317 190.41 196.701 189.046 197.232L190.297 203.378C190.316 203.47 190.303 203.565 190.26 203.648C190.217 203.732 190.147 203.798 190.061 203.836L168.858 213.152C168.802 213.182 168.739 213.2 168.674 213.204Z" fill="#1D1D1B"/>
<path d="M188.202 196.953C188.54 196.85 188.867 196.716 189.179 196.55C183.89 195.868 171.777 195.81 166.879 208.299C167.093 208.299 167.217 208.299 167.217 208.299L168.988 212.245L189.481 203.233L188.202 196.953Z" fill="#E89D00"/>
<path d="M162.548 217.772C162.548 217.772 160.538 209.053 169.247 205.255C177.956 201.458 187.213 200.644 192.927 205.255C198.642 209.867 199.2 215.561 197.55 219.366C195.9 223.172 191.833 223.978 187.48 220.994C187.48 220.994 183.396 226.959 176.048 221.268C176.048 221.268 166.519 227.776 166.247 217.47L162.548 217.772Z" fill="#FFCDB2"/>
<path d="M182.801 202.104C186.684 202.104 190.206 203.069 192.926 205.263C198.649 209.867 199.199 215.56 197.549 219.366C196.586 221.602 194.774 222.805 192.558 222.805C191.012 222.805 189.258 222.219 187.478 220.994C187.478 220.994 185.606 223.734 182.119 223.734C180.452 223.734 178.42 223.109 176.047 221.268C176.047 221.268 173.077 223.295 170.409 223.295C168.294 223.295 166.367 222.024 166.246 217.47L162.541 217.783C162.541 217.783 160.531 209.064 169.24 205.266C173.805 203.277 178.519 202.107 182.795 202.107L182.801 202.104ZM182.795 201.373C178.571 201.373 173.781 202.488 168.946 204.595C164.164 206.68 162.478 210.204 161.906 212.79C161.53 214.486 161.502 216.24 161.824 217.947C161.861 218.109 161.952 218.253 162.083 218.356C162.213 218.459 162.375 218.515 162.541 218.514H162.602L165.55 218.268C165.913 223.005 168.36 224.022 170.409 224.022C172.661 224.022 175.037 222.742 176.011 222.153C178.106 223.682 180.161 224.457 182.119 224.457C183.159 224.445 184.185 224.217 185.132 223.787C186.079 223.358 186.926 222.737 187.619 221.964C189.288 222.994 190.982 223.534 192.547 223.534C195.088 223.534 197.153 222.12 198.214 219.651C199.168 217.364 199.336 214.827 198.693 212.434C197.945 209.571 196.105 206.897 193.374 204.691C190.644 202.485 187.077 201.367 182.784 201.367L182.795 201.373Z" fill="black"/>
<path d="M134.448 96.2169C134.448 96.2169 137.041 103.486 141.889 100.497C146.737 97.5074 157.05 91.0109 162.264 97.976C167.478 104.941 167.087 106.744 172.97 104.977C178.852 103.209 194.101 118.792 179.589 128.017C155.807 143.142 122.199 107.223 122.199 107.223L125.774 101.867L134.448 96.2169Z" fill="#6C32AD"/>
<path d="M179.677 107.382C185.292 111.917 189.791 121.534 179.594 128.017C163.861 138.023 143.828 125.691 132.069 116.194C128.594 113.413 125.298 110.417 122.202 107.223L125.777 101.866L134.45 96.2166C134.45 96.2166 135.385 98.8333 137.178 100.28C138.374 101.247 139.953 101.694 141.892 100.496C146.333 97.7565 155.367 92.071 160.867 96.5043C161.395 96.934 161.867 97.4284 162.272 97.9757C164.942 101.538 166.144 103.757 167.469 104.826C168.732 105.845 170.109 105.831 172.969 104.974C174.718 104.45 177.295 105.461 179.671 107.379L179.677 107.382ZM180.004 106.971C177.372 104.845 174.688 103.91 172.818 104.469C170.046 105.291 168.872 105.291 167.794 104.415C167.01 103.782 166.215 102.636 165.113 101.05C164.436 100.074 163.666 98.9703 162.687 97.6606C162.255 97.0785 161.753 96.5521 161.191 96.0933C158.716 94.0849 155.259 93.8054 150.953 95.2713C147.441 96.4577 144.042 98.5593 141.795 99.943L141.611 100.058C140.129 100.97 138.787 100.913 137.508 99.88C135.858 98.5401 134.956 96.0714 134.945 96.044C134.912 95.9532 134.855 95.8728 134.78 95.8111C134.732 95.7718 134.677 95.742 134.618 95.7234C134.542 95.698 134.461 95.69 134.382 95.6999C134.302 95.7099 134.226 95.7376 134.159 95.7809L125.502 101.428C125.442 101.467 125.39 101.517 125.35 101.576L121.775 106.933C121.71 107.031 121.68 107.149 121.689 107.266C121.699 107.384 121.747 107.495 121.828 107.582C124.939 110.795 128.247 113.812 131.733 116.616C137.098 120.948 145.346 126.773 154.162 129.924C164.114 133.486 172.766 132.996 179.875 128.472C181.929 127.168 183.51 125.663 184.569 124.003C185.528 122.526 186.085 120.827 186.186 119.071C186.31 116.879 185.716 114.523 184.47 112.267C183.329 110.241 181.815 108.446 180.007 106.979L180.004 106.971Z" fill="black"/>
<path d="M163.435 131.568C148.86 111.112 126.884 105.812 126.884 105.812C125.681 106.649 124.687 107.751 123.98 109.032C129.431 114.353 146.547 129.809 163.435 131.568Z" fill="#59298F"/>
<path d="M135.694 83.8837C140.452 83.8837 144.31 80.0403 144.31 75.2993C144.31 70.5582 140.452 66.7148 135.694 66.7148C130.936 66.7148 127.078 70.5582 127.078 75.2993C127.078 80.0403 130.936 83.8837 135.694 83.8837Z" fill="#6C32AD"/>
<path d="M139.545 67.6199C141.401 68.543 142.86 70.1022 143.654 72.011C144.449 73.9199 144.526 76.0503 143.871 78.0111C143.216 79.9719 141.873 81.6315 140.089 82.6852C138.305 83.7388 136.199 84.1157 134.158 83.7468C132.117 83.3778 130.279 82.2877 128.98 80.6767C127.681 79.0656 127.008 77.0417 127.087 74.9766C127.165 72.9115 127.988 70.9439 129.405 69.4349C130.822 67.9259 132.738 66.977 134.801 66.7623C136.432 66.5919 138.078 66.8895 139.545 67.6199ZM139.839 67.0363C137.999 66.119 135.904 65.838 133.885 66.2377C131.867 66.6373 130.039 67.6948 128.69 69.2436C127.342 70.7923 126.548 72.7442 126.436 74.7916C126.323 76.8391 126.898 78.8656 128.068 80.552C129.239 82.2383 130.94 83.4885 132.903 84.1055C134.865 84.7226 136.978 84.6714 138.908 83.96C140.838 83.2486 142.476 81.9175 143.563 80.1765C144.65 78.4354 145.125 76.3834 144.913 74.3439C144.752 72.7991 144.202 71.3197 143.316 70.0425C142.429 68.7652 141.233 67.7313 139.839 67.0363Z" fill="black"/>
<path d="M103.688 91.7265C103.688 91.7265 99.9347 84.7641 104.238 80.6569C108.542 76.5496 109.681 77.4757 111.801 75.1632C113.921 72.8506 119.861 71.9738 123.851 74.9686C123.851 74.9686 130.988 72.9191 135.522 76.1112C140.057 79.3033 140.899 82.3529 140.838 86.7972C140.778 91.2415 141.542 93.5239 141.605 96.6612C141.669 99.7985 140.409 108.043 127.594 109.627C114.779 111.211 103.688 91.7265 103.688 91.7265Z" fill="#6C32AD"/>
<path d="M134.436 75.4591C134.811 75.6468 135.172 75.862 135.516 76.103C140.048 79.2923 140.893 82.3447 140.832 86.789C140.772 91.2332 141.536 93.5157 141.599 96.653C141.663 99.7903 140.403 108.035 127.588 109.619C124.739 109.972 121.973 109.282 119.396 107.997C110.389 103.5 103.688 91.7237 103.688 91.7237C103.688 91.7237 99.934 84.7614 104.238 80.6541C108.541 76.5468 109.68 77.473 111.8 75.1604C113.689 73.1027 118.612 72.1793 122.484 74.111C122.968 74.3505 123.428 74.6339 123.859 74.9576C123.859 74.9576 129.948 73.2095 134.449 75.4563L134.436 75.4591ZM134.741 74.8754C130.616 72.8095 125.333 73.9137 123.994 74.248C123.608 73.9797 123.202 73.7398 122.781 73.5301C118.59 71.4395 113.382 72.4807 111.325 74.722C110.458 75.6646 109.801 76.0043 108.891 76.4756C107.711 77.0839 106.242 77.8456 103.792 80.1828C101.867 82.0214 101.155 84.6682 101.719 87.8411C101.983 89.298 102.457 90.7091 103.127 92.0306V92.0443C104.479 94.3277 105.993 96.5116 107.659 98.5792C110.255 101.829 114.35 106.202 119.107 108.577C122.036 110.038 124.918 110.608 127.673 110.265C133.388 109.558 137.521 107.481 139.96 104.095C141.508 101.919 142.314 99.3056 142.259 96.6393C142.217 95.3633 142.101 94.0908 141.913 92.8279C141.616 90.8325 141.475 88.8171 141.492 86.7999C141.553 82.2214 140.667 78.9142 135.899 75.5659C135.528 75.3057 135.138 75.074 134.733 74.8727L134.741 74.8754Z" fill="black"/>
<path d="M125.606 93.8353L125.633 93.849C129.208 95.2518 134.032 93.1119 134.235 93.027C134.315 92.9906 134.376 92.9245 134.406 92.843C134.436 92.7616 134.433 92.6715 134.396 92.5927C134.36 92.5138 134.293 92.4527 134.212 92.4226C134.13 92.3925 134.04 92.3961 133.96 92.4324C133.914 92.4543 129.189 94.5504 125.867 93.2544C125.788 93.2181 125.698 93.2144 125.617 93.2442C125.535 93.274 125.469 93.3348 125.433 93.4133C125.396 93.4918 125.392 93.5815 125.422 93.6627C125.452 93.7439 125.513 93.8099 125.592 93.8462L125.606 93.8353Z" fill="black"/>
<path d="M109.915 113.301C109.915 113.301 104.19 115.109 107.765 120.041C111.34 124.973 116.29 122.507 116.29 122.507C116.29 122.507 124.54 130.453 127.84 119.493L109.915 113.301Z" fill="white"/>
<path d="M122.215 125.702C119.484 125.702 116.935 123.636 116.206 122.99C115.087 123.431 110.682 124.771 107.428 120.283C106.284 118.702 105.921 117.238 106.35 115.94C107.063 113.792 109.678 112.945 109.788 112.909L109.92 112.868L128.345 119.233L128.232 119.611C127.215 122.992 125.614 124.987 123.477 125.543C123.065 125.65 122.641 125.703 122.215 125.702ZM116.366 122.012L116.575 122.212C116.611 122.244 120.117 125.574 123.274 124.749C125.037 124.288 126.398 122.609 127.327 119.751L109.914 113.737C109.428 113.92 107.632 114.688 107.134 116.203C106.793 117.238 107.118 118.45 108.099 119.803C111.419 124.384 115.915 122.236 116.105 122.143L116.366 122.012Z" fill="#1D1D1B"/>
<path d="M126.786 91.6819C127.571 92.0652 128.403 92.3416 129.261 92.5039C129.303 92.5127 129.347 92.513 129.389 92.5049C129.431 92.4968 129.471 92.4804 129.506 92.4566C129.542 92.4329 129.572 92.4023 129.596 92.3667C129.62 92.331 129.636 92.2911 129.644 92.2491C129.661 92.1645 129.643 92.0766 129.595 92.0046C129.547 91.9327 129.473 91.8827 129.388 91.8655C121.996 90.3941 122.543 82.5495 122.568 82.2235C122.575 82.1377 122.547 82.0527 122.491 81.9872C122.435 81.9217 122.356 81.881 122.27 81.8741C122.184 81.8672 122.098 81.8946 122.033 81.9504C121.967 82.0061 121.926 82.0856 121.919 82.1714C121.905 82.2372 121.424 88.9913 126.786 91.6819Z" fill="white"/>
<path d="M146.951 71.7897C146.985 71.8064 147.021 71.8175 147.058 71.8226C147.143 71.8336 147.228 71.811 147.296 71.7597C147.364 71.7085 147.409 71.6326 147.421 71.5486C147.68 69.469 147.256 67.7126 146.162 66.3262C144.237 63.8903 140.956 63.4876 140.816 63.4711C140.732 63.4609 140.647 63.4839 140.58 63.5351C140.512 63.5863 140.468 63.6616 140.456 63.7451C140.445 63.8292 140.468 63.9139 140.52 63.9814C140.571 64.0489 140.647 64.0939 140.731 64.1068C140.761 64.1068 143.888 64.4986 145.642 66.7235C146.621 67.9647 146.998 69.5594 146.761 71.4555C146.753 71.524 146.767 71.5933 146.802 71.6534C146.836 71.7135 146.888 71.7612 146.951 71.7897Z" fill="black"/>
<path d="M141.862 75.7193C141.913 75.7453 141.969 75.7576 142.026 75.755C142.083 75.7523 142.138 75.7349 142.186 75.7044C142.234 75.6738 142.273 75.6313 142.299 75.581C142.325 75.5308 142.338 75.4745 142.335 75.4179C142.269 73.1985 141.565 71.5107 140.245 70.4037C138.106 68.6117 135.152 69.009 135.02 69.0337C134.935 69.0472 134.858 69.0935 134.807 69.1627C134.756 69.2319 134.733 69.3183 134.745 69.4036C134.751 69.4457 134.766 69.4863 134.788 69.5229C134.809 69.5594 134.838 69.5914 134.872 69.6168C134.907 69.6423 134.946 69.6608 134.987 69.6712C135.028 69.6816 135.072 69.6838 135.114 69.6776C135.141 69.6776 137.911 69.3077 139.822 70.9133C140.993 71.897 141.615 73.4204 141.678 75.448C141.681 75.5057 141.7 75.5614 141.732 75.6091C141.765 75.6569 141.81 75.695 141.862 75.7193Z" fill="white"/>
<path d="M113.806 109.884L110.377 113.329C110.377 113.329 111.752 125.385 126.877 119.357C126.877 119.357 125.664 112.433 127.259 102.588C127.259 102.588 131.549 103.451 132.484 99.6943C133.419 95.9378 130.85 94.1102 128.771 94.3266C128.771 94.3266 120.285 95.9926 119.619 79.5827C119.619 79.5827 111.463 79.3854 106.89 85.8847C102.316 92.384 100.094 101.229 104.53 106.005C108.966 110.78 113.806 109.884 113.806 109.884Z" fill="#FFCDB2"/>
<path d="M119.525 79.5824H119.604C120.154 93.2221 126.116 94.3784 128.11 94.3784C128.327 94.3814 128.543 94.3659 128.756 94.3318C128.866 94.3318 128.979 94.3154 129.089 94.3154C131.094 94.3154 133.341 96.143 132.469 99.6995C131.839 102.275 129.625 102.681 128.294 102.681C127.947 102.683 127.6 102.654 127.258 102.593C125.663 112.432 126.875 119.356 126.875 119.356C123.85 120.562 121.375 121.044 119.351 121.044C111.255 121.044 110.375 113.328 110.375 113.328L113.805 109.884C113.488 109.93 113.168 109.951 112.848 109.947C111.214 109.947 107.755 109.476 104.515 105.996C100.079 101.223 102.315 92.3618 106.875 85.8735C111.181 79.7605 118.672 79.5715 119.525 79.5715V79.5824ZM119.525 78.7495C118.639 78.7495 110.747 78.9358 106.201 85.3912C103.748 88.871 102.076 92.7892 101.504 96.4389C100.838 100.639 101.672 104.133 103.91 106.541C106.773 109.621 109.806 110.501 111.814 110.706L109.79 112.739L109.515 113.013L109.559 113.405C109.786 114.9 110.323 116.333 111.134 117.611C112.369 119.545 114.797 121.85 119.354 121.85C121.642 121.85 124.277 121.263 127.183 120.104L127.805 119.855L127.692 119.197C127.678 119.132 126.592 112.641 127.967 103.472C128.074 103.472 128.187 103.472 128.308 103.472C130.91 103.472 132.722 102.157 133.283 99.8639C133.863 97.4938 133.184 95.9758 132.507 95.121C132.102 94.6073 131.585 94.1915 130.995 93.9045C130.406 93.6175 129.759 93.4667 129.103 93.4633C128.965 93.4633 128.828 93.4633 128.685 93.4824H128.649H128.611C128.45 93.5063 128.287 93.5173 128.124 93.5153C127.244 93.5153 125.528 93.255 123.944 91.5069C121.848 89.1998 120.671 85.1638 120.443 79.5139L120.41 78.7467L119.637 78.7275L119.525 78.7495Z" fill="#1D1D1B"/>
<path d="M113.402 110.427C113.433 110.443 113.466 110.454 113.501 110.459C117.139 110.98 121.041 108.84 121.201 108.747C121.242 108.728 121.278 108.701 121.308 108.667C121.338 108.634 121.361 108.594 121.375 108.552C121.389 108.509 121.394 108.464 121.389 108.419C121.385 108.374 121.371 108.331 121.349 108.292C121.327 108.252 121.297 108.218 121.261 108.191C121.225 108.164 121.184 108.145 121.14 108.134C121.096 108.124 121.05 108.122 121.006 108.13C120.962 108.138 120.919 108.155 120.882 108.18C120.843 108.202 117.007 110.303 113.589 109.824C113.512 109.811 113.432 109.826 113.366 109.867C113.299 109.908 113.249 109.971 113.226 110.046C113.202 110.12 113.207 110.201 113.238 110.272C113.269 110.344 113.326 110.401 113.396 110.435L113.402 110.427Z" fill="black"/>
<path d="M127.975 100.96C128.028 100.987 128.087 100.998 128.147 100.994C128.206 100.99 128.262 100.969 128.311 100.935C129.664 99.9819 130.321 98.99 130.263 97.9872C130.181 96.5432 128.638 95.6828 128.572 95.6472C128.534 95.6261 128.493 95.6126 128.45 95.6076C128.407 95.6027 128.364 95.6063 128.322 95.6183C128.281 95.6303 128.242 95.6504 128.208 95.6775C128.175 95.7046 128.147 95.7381 128.127 95.776C128.086 95.8518 128.077 95.9404 128.101 96.0228C128.125 96.1052 128.181 96.175 128.256 96.2171C128.278 96.2308 129.551 96.946 129.612 98.0255C129.653 98.79 129.089 99.5901 127.934 100.404C127.889 100.436 127.854 100.48 127.831 100.529C127.808 100.579 127.798 100.634 127.802 100.689C127.806 100.744 127.824 100.797 127.854 100.843C127.885 100.889 127.926 100.926 127.975 100.952V100.96Z" fill="black"/>
<path d="M114.689 90.0849C118.498 92.3564 124.649 92.4495 125.097 94.2332C125.546 96.017 124.152 97.7322 121.759 97.4582C119.367 97.1842 117.183 96.3622 112.786 94.4661C108.389 92.5701 104.222 90.3863 105.564 88.1641C106.906 85.942 109.09 86.7503 114.689 90.0849Z" fill="#FFB49F"/>
<path d="M110.846 85.8049C110.889 85.8258 110.936 85.8366 110.984 85.8366C111.031 85.8366 111.078 85.8258 111.121 85.8049C111.14 85.8049 112.928 85.0597 114.295 85.8789C114.369 85.9224 114.458 85.935 114.542 85.914C114.626 85.893 114.698 85.8401 114.743 85.7666C114.787 85.6924 114.8 85.6038 114.779 85.5201C114.758 85.4363 114.704 85.3644 114.63 85.32C112.98 84.3363 110.953 85.1693 110.868 85.2049C110.828 85.2213 110.792 85.2455 110.762 85.276C110.732 85.3065 110.708 85.3427 110.692 85.3824C110.675 85.4222 110.667 85.4648 110.668 85.5077C110.669 85.5506 110.678 85.593 110.695 85.6323C110.721 85.7072 110.775 85.769 110.846 85.8049Z" fill="black"/>
<path d="M110.723 96.9644C110.79 96.9969 110.867 97.0057 110.94 96.9893C111.013 96.9728 111.078 96.9322 111.125 96.874L115.574 91.2652C115.628 91.1958 115.652 91.1079 115.641 91.0208C115.63 90.9337 115.585 90.8546 115.515 90.8008C115.445 90.747 115.357 90.723 115.27 90.7341C115.182 90.7451 115.103 90.7903 115.049 90.8597L110.602 96.4685C110.548 96.5361 110.524 96.6223 110.533 96.7081C110.543 96.7938 110.587 96.8723 110.654 96.9261L110.723 96.9644Z" fill="black"/>
<path d="M128.915 104.566C129.694 104.566 130.325 103.937 130.325 103.161C130.325 102.384 129.694 101.755 128.915 101.755C128.136 101.755 127.504 102.384 127.504 103.161C127.504 103.937 128.136 104.566 128.915 104.566Z" fill="#FFAD00"/>
<path d="M129.549 101.903C129.852 102.054 130.089 102.31 130.218 102.622C130.347 102.934 130.358 103.282 130.251 103.602C130.143 103.922 129.923 104.193 129.631 104.364C129.339 104.536 128.995 104.596 128.661 104.535C128.328 104.474 128.028 104.296 127.817 104.032C127.605 103.769 127.496 103.438 127.509 103.1C127.522 102.763 127.657 102.442 127.889 102.196C128.121 101.95 128.434 101.795 128.771 101.76C129.039 101.733 129.309 101.782 129.549 101.903ZM129.841 101.319C129.431 101.115 128.964 101.052 128.514 101.141C128.065 101.23 127.657 101.466 127.357 101.811C127.056 102.156 126.88 102.591 126.855 103.047C126.83 103.503 126.958 103.954 127.218 104.33C127.479 104.706 127.858 104.984 128.296 105.122C128.733 105.259 129.204 105.248 129.634 105.089C130.064 104.931 130.428 104.634 130.671 104.246C130.913 103.858 131.018 103.401 130.971 102.947C130.936 102.602 130.814 102.272 130.616 101.988C130.419 101.703 130.152 101.473 129.841 101.319Z" fill="black"/>
<path d="M119.095 87.7669C119.134 87.7869 119.177 87.7984 119.221 87.8007C119.265 87.8031 119.309 87.7962 119.35 87.7806C119.639 87.6793 120.539 87.4628 120.882 87.8217C120.912 87.8525 120.948 87.8771 120.988 87.8941C121.027 87.9111 121.069 87.9201 121.113 87.9208C121.156 87.9214 121.198 87.9136 121.238 87.8978C121.278 87.882 121.315 87.8584 121.346 87.8286C121.377 87.7987 121.401 87.7631 121.418 87.7237C121.435 87.6843 121.444 87.642 121.445 87.5992C121.446 87.5563 121.438 87.5137 121.422 87.4739C121.406 87.434 121.382 87.3977 121.353 87.3669C120.654 86.649 119.282 87.1121 119.128 87.1696C119.068 87.1917 119.016 87.2307 118.978 87.2818C118.94 87.333 118.918 87.394 118.915 87.4575C118.911 87.5209 118.926 87.584 118.958 87.639C118.99 87.694 119.038 87.7385 119.095 87.7669Z" fill="black"/>
<path d="M115.325 104.424C115.215 104.43 115.108 104.394 115.025 104.322C114.943 104.249 114.893 104.148 114.886 104.039C114.879 103.93 114.916 103.822 114.988 103.74C115.061 103.658 115.163 103.608 115.272 103.602C115.856 103.529 116.405 103.289 116.854 102.911C114.412 103.67 111.697 102.256 111.554 102.179C111.463 102.126 111.395 102.038 111.367 101.936C111.338 101.834 111.35 101.724 111.401 101.631C111.451 101.537 111.536 101.467 111.638 101.434C111.739 101.402 111.849 101.41 111.945 101.456C111.983 101.475 115.831 103.473 118.058 101.253C118.125 101.188 118.212 101.147 118.306 101.137C118.399 101.127 118.493 101.15 118.572 101.201C118.651 101.251 118.71 101.327 118.74 101.416C118.769 101.505 118.767 101.601 118.735 101.689C118.699 101.788 117.794 104.117 115.377 104.429L115.325 104.424Z" fill="#1D1D1B"/>
<path d="M111.751 92.0933C111.648 92.0937 111.549 92.0556 111.473 91.9866C111.397 91.9175 111.35 91.8226 111.341 91.7207C111.335 91.4337 111.264 91.1518 111.135 90.8954C111.005 90.639 110.82 90.4145 110.593 90.2383C109.619 89.5341 108.008 89.8876 107.991 89.8903C107.887 89.9085 107.78 89.8861 107.692 89.8279C107.604 89.7697 107.542 89.68 107.518 89.5774C107.495 89.4748 107.511 89.3671 107.565 89.2764C107.619 89.1858 107.706 89.1192 107.807 89.0903C107.89 89.0711 109.793 88.6464 111.074 89.5725C111.401 89.8142 111.669 90.1256 111.86 90.484C112.05 90.8425 112.157 91.2388 112.174 91.6439C112.179 91.6976 112.174 91.7518 112.158 91.8033C112.142 91.8549 112.116 91.9028 112.082 91.9443C112.047 91.9858 112.005 92.0202 111.957 92.0453C111.909 92.0703 111.857 92.0857 111.803 92.0905L111.751 92.0933Z" fill="#1D1D1B"/>
<path d="M121.649 96.4771C121.546 96.4775 121.447 96.4394 121.371 96.3704C121.295 96.3013 121.248 96.2064 121.239 96.1044C121.233 95.8175 121.163 95.5356 121.033 95.2792C120.904 95.0228 120.719 94.7983 120.491 94.6221C119.518 93.9179 117.906 94.2714 117.89 94.2741C117.786 94.2923 117.679 94.2699 117.591 94.2117C117.503 94.1535 117.44 94.0638 117.417 93.9612C117.393 93.8586 117.41 93.7509 117.464 93.6602C117.517 93.5696 117.604 93.5029 117.706 93.4741C117.788 93.4549 119.691 93.0302 120.973 93.9563C121.299 94.1979 121.568 94.5094 121.758 94.8678C121.948 95.2262 122.056 95.6226 122.073 96.0277C122.078 96.0814 122.072 96.1356 122.057 96.1871C122.041 96.2387 122.015 96.2866 121.98 96.3281C121.946 96.3696 121.903 96.4039 121.856 96.429C121.808 96.4541 121.755 96.4695 121.701 96.4743L121.649 96.4771Z" fill="#1D1D1B"/>
<path d="M187.514 221.284C187.469 221.284 187.423 221.276 187.38 221.262C187.277 221.226 187.192 221.151 187.144 221.053C187.096 220.955 187.089 220.842 187.124 220.739C189.756 213.138 184.542 208.349 184.489 208.302C184.408 208.23 184.358 208.128 184.352 208.019C184.346 207.91 184.384 207.803 184.456 207.721C184.529 207.64 184.632 207.591 184.741 207.585C184.85 207.578 184.958 207.616 185.039 207.689C185.097 207.741 190.71 212.895 187.905 221.008C187.877 221.088 187.824 221.158 187.754 221.208C187.684 221.257 187.6 221.284 187.514 221.284Z" fill="#1D1D1B"/>
<path d="M175.964 221.558C175.911 221.558 175.858 221.548 175.81 221.527C175.708 221.487 175.627 221.408 175.585 221.307C175.542 221.207 175.541 221.094 175.581 220.993C177.154 217.078 175.031 210.932 175.031 210.855C174.995 210.752 175.001 210.639 175.048 210.54C175.096 210.441 175.181 210.365 175.284 210.329C175.388 210.293 175.502 210.299 175.601 210.346C175.7 210.393 175.776 210.478 175.812 210.581C175.903 210.855 178.043 217.075 176.362 221.267C176.336 221.352 176.283 221.426 176.211 221.478C176.14 221.531 176.053 221.559 175.964 221.558Z" fill="#1D1D1B"/>
<path d="M166.272 218.311C166.186 218.312 166.102 218.286 166.032 218.237C165.962 218.188 165.909 218.118 165.881 218.037C165.837 217.906 164.8 214.782 165.98 212.73C166.004 212.679 166.039 212.633 166.082 212.596C166.125 212.559 166.175 212.531 166.229 212.514C166.283 212.497 166.34 212.491 166.396 212.497C166.453 212.503 166.507 212.521 166.557 212.549C166.606 212.577 166.649 212.615 166.683 212.66C166.717 212.705 166.741 212.757 166.754 212.812C166.767 212.867 166.769 212.924 166.758 212.98C166.748 213.036 166.727 213.088 166.695 213.135C165.7 214.875 166.654 217.747 166.662 217.774C166.697 217.878 166.69 217.991 166.641 218.089C166.593 218.187 166.507 218.262 166.404 218.298C166.36 218.309 166.316 218.313 166.272 218.311Z" fill="#1D1D1B"/>
<path d="M54.3097 104.119C55.1344 104.119 55.8029 103.453 55.8029 102.631C55.8029 101.81 55.1344 101.144 54.3097 101.144C53.485 101.144 52.8164 101.81 52.8164 102.631C52.8164 103.453 53.485 104.119 54.3097 104.119Z" fill="#FFC140"/>
<path d="M39.1847 116.175C40.0094 116.175 40.6779 115.509 40.6779 114.687C40.6779 113.865 40.0094 113.199 39.1847 113.199C38.36 113.199 37.6914 113.865 37.6914 114.687C37.6914 115.509 38.36 116.175 39.1847 116.175Z" fill="#FFC140"/>
<path d="M51.5597 136.451C52.3844 136.451 53.0529 135.785 53.0529 134.963C53.0529 134.142 52.3844 133.476 51.5597 133.476C50.735 133.476 50.0664 134.142 50.0664 134.963C50.0664 135.785 50.735 136.451 51.5597 136.451Z" fill="#FFC140"/>
<path d="M80.4347 124.943C81.2594 124.943 81.9279 124.277 81.9279 123.456C81.9279 122.634 81.2594 121.968 80.4347 121.968C79.61 121.968 78.9414 122.634 78.9414 123.456C78.9414 124.277 79.61 124.943 80.4347 124.943Z" fill="#FFC140"/>
<path d="M76.587 141.109C77.4117 141.109 78.0802 140.443 78.0802 139.622C78.0802 138.8 77.4117 138.134 76.587 138.134C75.7623 138.134 75.0938 138.8 75.0938 139.622C75.0938 140.443 75.7623 141.109 76.587 141.109Z" fill="#FFC140"/>
<path d="M109.036 133.163C109.861 133.163 110.529 132.497 110.529 131.675C110.529 130.854 109.861 130.188 109.036 130.188C108.212 130.188 107.543 130.854 107.543 131.675C107.543 132.497 108.212 133.163 109.036 133.163Z" fill="#FFC140"/>
<path d="M93.6378 152.617C94.4625 152.617 95.131 151.951 95.131 151.129C95.131 150.308 94.4625 149.642 93.6378 149.642C92.8131 149.642 92.1445 150.308 92.1445 151.129C92.1445 151.951 92.8131 152.617 93.6378 152.617Z" fill="#FFC140"/>
<path d="M120.86 159.467C121.685 159.467 122.354 158.801 122.354 157.979C122.354 157.157 121.685 156.491 120.86 156.491C120.036 156.491 119.367 157.157 119.367 157.979C119.367 158.801 120.036 159.467 120.86 159.467Z" fill="#FFC140"/>
<path d="M83.7354 183.031C84.5601 183.031 85.2287 182.365 85.2287 181.543C85.2287 180.722 84.5601 180.056 83.7354 180.056C82.9107 180.056 82.2422 180.722 82.2422 181.543C82.2422 182.365 82.9107 183.031 83.7354 183.031Z" fill="#FFC140"/>
<path d="M107.388 177.825C108.212 177.825 108.881 177.159 108.881 176.337C108.881 175.516 108.212 174.85 107.388 174.85C106.563 174.85 105.895 175.516 105.895 176.337C105.895 177.159 106.563 177.825 107.388 177.825Z" fill="#FFC140"/>
<path d="M130.212 202.759C131.037 202.759 131.705 202.093 131.705 201.271C131.705 200.449 131.037 199.783 130.212 199.783C129.387 199.783 128.719 200.449 128.719 201.271C128.719 202.093 129.387 202.759 130.212 202.759Z" fill="#FFC140"/>
<path d="M106.013 200.02C106.837 200.02 107.506 199.353 107.506 198.532C107.506 197.71 106.837 197.044 106.013 197.044C105.188 197.044 104.52 197.71 104.52 198.532C104.52 199.353 105.188 200.02 106.013 200.02Z" fill="#FFC140"/>
<path d="M136.536 177.825C137.361 177.825 138.029 177.159 138.029 176.337C138.029 175.516 137.361 174.85 136.536 174.85C135.712 174.85 135.043 175.516 135.043 176.337C135.043 177.159 135.712 177.825 136.536 177.825Z" fill="#FFC140"/>
<path d="M139.013 140.013C139.837 140.013 140.506 139.347 140.506 138.525C140.506 137.703 139.837 137.037 139.013 137.037C138.188 137.037 137.52 137.703 137.52 138.525C137.52 139.347 138.188 140.013 139.013 140.013Z" fill="#FFC140"/>
<path d="M175.314 164.673C176.138 164.673 176.807 164.007 176.807 163.185C176.807 162.363 176.138 161.697 175.314 161.697C174.489 161.697 173.82 162.363 173.82 163.185C173.82 164.007 174.489 164.673 175.314 164.673Z" fill="#FFC140"/>
<path d="M156.61 155.905C157.435 155.905 158.104 155.239 158.104 154.418C158.104 153.596 157.435 152.93 156.61 152.93C155.786 152.93 155.117 153.596 155.117 154.418C155.117 155.239 155.786 155.905 156.61 155.905Z" fill="#FFC140"/>
<path d="M160.185 187.963C161.009 187.963 161.678 187.297 161.678 186.475C161.678 185.653 161.009 184.987 160.185 184.987C159.36 184.987 158.691 185.653 158.691 186.475C158.691 187.297 159.36 187.963 160.185 187.963Z" fill="#FFC140"/>
<path d="M184.661 187.415C185.486 187.415 186.154 186.749 186.154 185.927C186.154 185.106 185.486 184.439 184.661 184.439C183.837 184.439 183.168 185.106 183.168 185.927C183.168 186.749 183.837 187.415 184.661 187.415Z" fill="#FFC140"/>
<path d="M195.487 220.6C195.394 220.6 195.301 220.587 195.212 220.558C195.109 220.524 195.014 220.47 194.932 220.4C194.85 220.329 194.782 220.243 194.734 220.146C194.685 220.049 194.656 219.944 194.649 219.836C194.641 219.728 194.655 219.62 194.689 219.517C195.789 216.229 195.718 213.339 194.483 210.897C192.487 206.957 188.111 205.505 188.067 205.488C187.961 205.458 187.861 205.407 187.775 205.337C187.689 205.268 187.617 205.181 187.565 205.084C187.513 204.986 187.481 204.879 187.472 204.769C187.462 204.659 187.475 204.548 187.509 204.443C187.544 204.338 187.599 204.241 187.672 204.158C187.745 204.074 187.834 204.006 187.934 203.958C188.034 203.91 188.142 203.882 188.253 203.877C188.364 203.872 188.475 203.888 188.579 203.927C188.785 203.992 193.653 205.612 195.954 210.157C197.395 213.002 197.497 216.325 196.257 220.038C196.203 220.199 196.1 220.34 195.962 220.441C195.824 220.541 195.658 220.597 195.487 220.6Z" fill="white"/>
<path d="M77.3969 150.134C77.3433 150.133 77.2902 150.123 77.2402 150.104C77.1888 150.083 77.1421 150.053 77.1028 150.014C77.0636 149.975 77.0325 149.928 77.0115 149.877C76.9905 149.826 76.9799 149.772 76.9805 149.716C76.981 149.661 76.9926 149.607 77.0147 149.556C79.4897 143.528 86.3151 133.464 86.3839 133.363C86.4127 133.315 86.4511 133.273 86.4966 133.241C86.5421 133.208 86.5938 133.185 86.6486 133.173C86.7034 133.161 86.76 133.16 86.8151 133.17C86.8702 133.181 86.9225 133.202 86.969 133.234C87.0154 133.265 87.0549 133.306 87.0851 133.353C87.1153 133.4 87.1356 133.452 87.1447 133.508C87.1537 133.563 87.1514 133.619 87.1379 133.673C87.1243 133.728 87.0998 133.778 87.0659 133.823C86.9971 133.924 80.2294 143.903 77.7792 149.868C77.7498 149.946 77.6975 150.013 77.6293 150.06C77.5611 150.108 77.4801 150.133 77.3969 150.134Z" fill="#1D1D1B"/>
<path d="M184.764 177.033C184.621 177.033 184.48 176.996 184.356 176.925C184.231 176.855 184.128 176.753 184.055 176.63C177.034 164.791 159.855 146.543 159.687 146.359C159.611 146.28 159.552 146.188 159.513 146.086C159.473 145.985 159.454 145.877 159.457 145.768C159.46 145.659 159.485 145.552 159.53 145.453C159.574 145.353 159.639 145.264 159.718 145.19C159.798 145.115 159.892 145.057 159.994 145.019C160.096 144.981 160.205 144.964 160.314 144.968C160.424 144.973 160.531 144.998 160.63 145.044C160.729 145.09 160.818 145.155 160.891 145.236C161.065 145.419 178.359 163.796 185.474 175.792C185.585 175.98 185.617 176.204 185.563 176.415C185.509 176.626 185.373 176.807 185.185 176.918C185.058 176.994 184.912 177.034 184.764 177.033Z" fill="white"/>
<path d="M188.202 124.707H187.471C178.701 124.594 172.948 122.627 172.709 122.542C172.571 122.494 172.458 122.394 172.395 122.263C172.331 122.132 172.322 121.981 172.371 121.843C172.419 121.706 172.52 121.593 172.651 121.53C172.783 121.467 172.934 121.459 173.072 121.506C173.13 121.528 178.927 123.509 187.529 123.611C198.904 123.742 210.066 120.526 219.616 114.366C219.738 114.289 219.886 114.263 220.028 114.294C220.169 114.325 220.293 114.411 220.372 114.532C220.45 114.653 220.478 114.801 220.448 114.942C220.418 115.083 220.333 115.207 220.212 115.287C210.677 121.437 199.561 124.708 188.202 124.707Z" fill="#1D1D1B"/>
<path d="M38.3258 148.948C38.2561 148.949 38.1869 148.936 38.1223 148.909C28.9978 145.301 24.6033 138.804 22.5243 133.993C20.272 128.787 20.1785 124.477 20.1758 124.296C20.1758 124.151 20.2337 124.011 20.3369 123.909C20.44 123.806 20.5799 123.748 20.7258 123.748C20.8717 123.748 21.0115 123.806 21.1147 123.909C21.2178 124.011 21.2758 124.151 21.2758 124.296C21.4793 127.511 22.2501 130.664 23.5528 133.612C25.552 138.221 29.7733 144.443 38.5293 147.904C38.6405 147.956 38.7312 148.043 38.787 148.152C38.8427 148.261 38.8602 148.385 38.8368 148.505C38.8134 148.625 38.7504 148.734 38.6578 148.814C38.5652 148.894 38.4483 148.941 38.3258 148.948Z" fill="#1D1D1B"/>
<path d="M199.203 193.61C199.109 193.61 199.017 193.586 198.935 193.541C198.853 193.495 198.785 193.43 198.735 193.351C198.686 193.271 198.658 193.181 198.653 193.088C198.649 192.994 198.669 192.902 198.71 192.818C204.21 181.858 192.11 172.493 191.995 172.4C191.886 172.309 191.816 172.181 191.8 172.04C191.784 171.9 191.823 171.759 191.909 171.647C191.995 171.534 192.121 171.459 192.261 171.437C192.401 171.415 192.544 171.448 192.66 171.528C194.904 173.332 196.84 175.485 198.394 177.904C201.694 183.094 202.148 188.42 199.695 193.306C199.649 193.397 199.579 193.474 199.492 193.528C199.405 193.581 199.305 193.61 199.203 193.61Z" fill="#1D1D1B"/>
<path d="M22.1003 208.406C21.9776 208.406 21.8585 208.364 21.7621 208.288C21.6475 208.199 21.5731 208.068 21.555 207.924C21.537 207.781 21.5768 207.636 21.6658 207.521C21.7703 207.39 24.2536 204.26 29.0908 201.131C35.5181 196.982 43.043 194.84 50.7003 194.98C50.8462 194.98 50.9861 195.038 51.0893 195.141C51.1924 195.243 51.2503 195.383 51.2503 195.528C51.2503 195.673 51.1924 195.813 51.0893 195.916C50.9861 196.018 50.8462 196.076 50.7003 196.076C32.4981 195.819 22.6503 208.072 22.5403 208.195C22.4883 208.262 22.4215 208.315 22.3451 208.352C22.2688 208.389 22.185 208.407 22.1003 208.406Z" fill="#1D1D1B"/>
<path d="M120.627 46.603L119.422 45.2878C119.212 45.0542 118.933 44.8931 118.625 44.8274L116.873 44.463C116.643 44.4147 116.428 44.313 116.244 44.1661C116.061 44.0192 115.916 43.8313 115.819 43.6177C115.723 43.404 115.678 43.1707 115.689 42.9367C115.7 42.7027 115.767 42.4746 115.883 42.271L116.769 40.7229C116.922 40.4516 116.986 40.1393 116.953 39.8297L116.76 38.0596C116.735 37.8271 116.765 37.592 116.849 37.3734C116.932 37.1547 117.066 36.9588 117.24 36.8015C117.413 36.6442 117.622 36.53 117.848 36.4682C118.075 36.4064 118.312 36.3987 118.542 36.4458L120.294 36.802C120.6 36.8658 120.919 36.8313 121.204 36.7033L122.835 35.9745C123.049 35.8785 123.283 35.8343 123.518 35.8454C123.752 35.8566 123.981 35.9229 124.185 36.0388C124.389 36.1547 124.563 36.317 124.692 36.5125C124.821 36.708 124.902 36.9311 124.928 37.1636L125.126 38.9337C125.164 39.2396 125.296 39.5264 125.503 39.7557L126.704 41.0764C126.862 41.2497 126.976 41.4576 127.037 41.6832C127.099 41.9087 127.106 42.1455 127.058 42.3743C127.01 42.6031 126.909 42.8175 126.763 43C126.616 43.1825 126.428 43.3279 126.215 43.4246L124.587 44.1616C124.301 44.29 124.064 44.5048 123.908 44.7754L123.025 46.3427C122.908 46.5462 122.745 46.7192 122.548 46.8477C122.351 46.9761 122.126 47.0563 121.892 47.0817C121.659 47.1071 121.422 47.077 121.202 46.9938C120.982 46.9105 120.785 46.7766 120.627 46.603Z" fill="#D9CFFF"/>
<path d="M121.722 47.4988C121.459 47.4992 121.199 47.4445 120.958 47.3383C120.718 47.2321 120.502 47.0768 120.325 46.8823L119.118 45.5644C118.966 45.3981 118.765 45.284 118.543 45.2383L116.794 44.8712C116.501 44.81 116.226 44.6807 115.993 44.4938C115.759 44.3068 115.573 44.0676 115.45 43.7954C115.326 43.5233 115.269 43.226 115.283 42.9278C115.297 42.6295 115.381 42.3387 115.529 42.0791L116.412 40.531C116.525 40.3351 116.572 40.1087 116.547 39.8844L116.354 38.1143C116.323 37.8183 116.363 37.5191 116.469 37.241C116.576 36.963 116.747 36.7138 116.968 36.5137C117.189 36.3136 117.454 36.1682 117.742 36.0893C118.03 36.0103 118.333 36.0001 118.626 36.0593L120.378 36.4155C120.6 36.4623 120.831 36.4373 121.038 36.3443L122.668 35.6154C122.942 35.4932 123.24 35.437 123.539 35.4514C123.839 35.4659 124.13 35.5505 124.391 35.6984C124.651 35.8464 124.872 36.0534 125.037 36.3028C125.202 36.5521 125.305 36.8367 125.339 37.1334L125.537 38.9062C125.564 39.1296 125.66 39.3391 125.812 39.5062L127.013 40.8269C127.217 41.0485 127.365 41.315 127.445 41.6046C127.525 41.8942 127.535 42.1986 127.474 42.4928C127.413 42.787 127.283 43.0626 127.094 43.297C126.906 43.5313 126.664 43.7178 126.389 43.8409L124.761 44.5533C124.554 44.6458 124.382 44.8012 124.269 44.9972L123.381 46.5426C123.232 46.8027 123.024 47.0238 122.773 47.1877C122.522 47.3516 122.235 47.4536 121.937 47.4851C121.866 47.4938 121.794 47.4984 121.722 47.4988ZM120.933 46.3261C121.048 46.4508 121.19 46.5467 121.349 46.6063C121.508 46.6658 121.679 46.6873 121.847 46.6689C122.016 46.6505 122.178 46.5927 122.32 46.5003C122.462 46.4079 122.581 46.2835 122.666 46.137L123.554 44.5917C123.752 44.2458 124.056 43.9715 124.42 43.808L126.048 43.071C126.203 43.0014 126.339 42.8962 126.445 42.7641C126.551 42.6321 126.625 42.4768 126.659 42.311C126.693 42.1453 126.688 41.9738 126.643 41.8106C126.598 41.6474 126.515 41.4972 126.4 41.3722L125.201 40.0515C124.933 39.757 124.765 39.3861 124.72 38.9911L124.522 37.2211C124.503 37.053 124.445 36.8918 124.351 36.7505C124.258 36.6092 124.132 36.4918 123.985 36.4079C123.838 36.3241 123.672 36.2761 123.503 36.2679C123.333 36.2597 123.164 36.2915 123.009 36.3607L121.376 37.0896C121.011 37.2524 120.604 37.2965 120.213 37.2156L118.461 36.8594C118.295 36.8252 118.123 36.8305 117.96 36.875C117.796 36.9195 117.645 37.0018 117.52 37.1154C117.395 37.2289 117.298 37.3704 117.238 37.5283C117.177 37.6862 117.156 37.856 117.174 38.0239L117.364 39.7967C117.408 40.192 117.325 40.591 117.127 40.9365L116.244 42.4874C116.161 42.6343 116.113 42.7989 116.105 42.9676C116.097 43.1364 116.13 43.3046 116.199 43.4587C116.269 43.6127 116.374 43.7482 116.506 43.8541C116.638 43.9601 116.793 44.0335 116.959 44.0683L118.711 44.4328C119.102 44.5141 119.457 44.7165 119.726 45.0109L120.933 46.3261Z" fill="#1D1E1B"/>
<path d="M205.326 150.997L204.122 149.682C203.911 149.449 203.632 149.288 203.324 149.222L201.572 148.858C201.342 148.809 201.127 148.708 200.944 148.561C200.76 148.414 200.615 148.226 200.518 148.012C200.422 147.799 200.377 147.565 200.388 147.331C200.4 147.097 200.466 146.869 200.582 146.666L201.468 145.117C201.621 144.846 201.686 144.534 201.652 144.224L201.46 142.454C201.434 142.222 201.465 141.987 201.548 141.768C201.631 141.549 201.765 141.353 201.939 141.196C202.113 141.039 202.321 140.925 202.547 140.863C202.774 140.801 203.012 140.793 203.242 140.84L204.993 141.197C205.3 141.26 205.618 141.226 205.904 141.098L207.534 140.369C207.748 140.273 207.982 140.229 208.217 140.24C208.452 140.251 208.68 140.317 208.884 140.433C209.088 140.549 209.262 140.712 209.391 140.907C209.52 141.103 209.601 141.326 209.627 141.558L209.825 143.328C209.863 143.634 209.995 143.921 210.202 144.15L211.404 145.471C211.561 145.644 211.675 145.852 211.736 146.078C211.798 146.303 211.805 146.54 211.757 146.769C211.71 146.998 211.608 147.212 211.462 147.395C211.315 147.577 211.128 147.722 210.914 147.819L209.286 148.556C209.001 148.685 208.763 148.899 208.607 149.17L207.724 150.737C207.607 150.941 207.444 151.114 207.247 151.242C207.05 151.371 206.826 151.451 206.592 151.476C206.358 151.502 206.121 151.472 205.901 151.388C205.681 151.305 205.484 151.171 205.326 150.997Z" fill="#D9CFFF"/>
<path d="M206.422 151.893C206.158 151.894 205.898 151.839 205.657 151.733C205.417 151.627 205.201 151.471 205.025 151.277L203.817 149.959C203.665 149.793 203.464 149.679 203.243 149.633L201.494 149.266C201.2 149.205 200.926 149.075 200.692 148.888C200.458 148.701 200.272 148.462 200.149 148.19C200.026 147.918 199.969 147.621 199.982 147.322C199.996 147.024 200.081 146.733 200.229 146.474L201.111 144.926C201.224 144.73 201.271 144.503 201.246 144.279L201.054 142.509C201.023 142.213 201.062 141.914 201.169 141.636C201.275 141.357 201.446 141.108 201.667 140.908C201.888 140.708 202.154 140.563 202.442 140.484C202.73 140.405 203.032 140.395 203.325 140.454L205.077 140.81C205.299 140.857 205.53 140.832 205.737 140.739L207.368 140.01C207.641 139.888 207.939 139.832 208.239 139.846C208.538 139.86 208.83 139.945 209.09 140.093C209.35 140.241 209.572 140.448 209.736 140.697C209.901 140.947 210.004 141.231 210.038 141.528L210.236 143.301C210.264 143.524 210.36 143.734 210.511 143.901L211.713 145.221C211.916 145.443 212.064 145.71 212.144 145.999C212.224 146.289 212.234 146.593 212.173 146.887C212.112 147.182 211.982 147.457 211.794 147.692C211.605 147.926 211.363 148.112 211.088 148.235L209.46 148.948C209.253 149.04 209.081 149.196 208.968 149.392L208.08 150.937C207.932 151.197 207.723 151.418 207.472 151.582C207.221 151.746 206.935 151.848 206.636 151.88C206.565 151.888 206.493 151.893 206.422 151.893ZM205.632 150.721C205.745 150.847 205.888 150.944 206.047 151.004C206.206 151.064 206.377 151.084 206.545 151.063C206.716 151.047 206.88 150.991 207.023 150.898C207.167 150.806 207.286 150.68 207.37 150.532L208.259 148.986C208.457 148.64 208.76 148.366 209.125 148.203L210.753 147.466C210.908 147.396 211.044 147.291 211.15 147.159C211.256 147.027 211.329 146.871 211.364 146.706C211.398 146.54 211.393 146.368 211.348 146.205C211.303 146.042 211.219 145.892 211.105 145.767L209.906 144.446C209.638 144.152 209.47 143.781 209.425 143.386L209.227 141.616C209.208 141.448 209.149 141.286 209.056 141.145C208.963 141.004 208.837 140.886 208.69 140.802C208.542 140.719 208.377 140.671 208.208 140.662C208.038 140.654 207.869 140.686 207.714 140.755L206.075 141.484C205.71 141.647 205.303 141.691 204.912 141.61L203.16 141.254C202.994 141.22 202.822 141.225 202.659 141.27C202.495 141.314 202.345 141.396 202.219 141.51C202.094 141.623 201.997 141.765 201.937 141.923C201.877 142.081 201.855 142.251 201.873 142.418L202.063 144.191C202.107 144.587 202.024 144.986 201.826 145.331L200.944 146.882C200.86 147.029 200.812 147.193 200.804 147.362C200.797 147.531 200.829 147.699 200.898 147.853C200.968 148.007 201.073 148.143 201.205 148.249C201.337 148.355 201.493 148.428 201.659 148.463L203.41 148.827C203.801 148.909 204.156 149.111 204.425 149.405L205.632 150.721Z" fill="#1D1E1B"/>
<path d="M208.498 34.2645L205.421 34.0618C204.883 34.0267 204.349 34.1598 203.892 34.4426L201.276 36.0592C200.933 36.2726 200.544 36.4022 200.142 36.4376C199.739 36.4729 199.333 36.413 198.958 36.2627C198.583 36.1123 198.248 35.8758 197.982 35.5724C197.716 35.269 197.526 34.9072 197.426 34.5166L196.67 31.5382C196.541 31.0194 196.253 30.5537 195.845 30.2066L193.485 28.231C193.176 27.9724 192.931 27.6446 192.773 27.2742C192.614 26.9039 192.545 26.5014 192.572 26.0996C192.599 25.6978 192.72 25.3079 192.927 24.9617C193.133 24.6156 193.419 24.3228 193.76 24.1073L196.37 22.4633C196.826 22.1775 197.181 21.7556 197.382 21.2577L198.537 18.4109C198.692 18.0403 198.931 17.7112 199.237 17.4499C199.543 17.1887 199.905 17.0027 200.297 16.9069C200.688 16.8112 201.096 16.8084 201.488 16.8988C201.88 16.9892 202.246 17.1702 202.555 17.4272L204.923 19.3918C205.337 19.7343 205.849 19.9393 206.386 19.9782L209.463 20.1946C209.866 20.2231 210.257 20.346 210.603 20.5534C210.95 20.7609 211.242 21.0469 211.457 21.3882C211.671 21.7295 211.801 22.1165 211.837 22.5176C211.873 22.9187 211.814 23.3226 211.663 23.6963L210.519 26.5487C210.321 27.0473 210.283 27.5951 210.412 28.1159L211.157 31.0971C211.254 31.4876 211.257 31.8953 211.166 32.2872C211.075 32.6791 210.893 33.0442 210.634 33.3527C210.375 33.6612 210.046 33.9046 209.675 34.063C209.304 34.2214 208.901 34.2905 208.498 34.2645Z" fill="#D9CFFF"/>
<path d="M199.923 36.8816C199.258 36.8796 198.614 36.6582 198.089 36.2522C197.565 35.8461 197.19 35.2783 197.024 34.6376L196.268 31.6592C196.158 31.2217 195.911 30.8303 195.564 30.5413L193.204 28.5657C192.845 28.265 192.562 27.884 192.378 27.4537C192.195 27.0234 192.116 26.556 192.148 26.0895C192.179 25.623 192.321 25.1706 192.562 24.7691C192.802 24.3676 193.135 24.0283 193.532 23.7789L196.141 22.1349C196.525 21.8956 196.822 21.5417 196.991 21.1239L198.146 18.277C198.322 17.8431 198.599 17.4568 198.953 17.1495C199.308 16.8421 199.73 16.6225 200.185 16.5085C200.641 16.3945 201.117 16.3893 201.575 16.4933C202.033 16.5973 202.46 16.8076 202.821 17.107L205.189 19.0744C205.537 19.3628 205.967 19.5344 206.418 19.5648L209.493 19.7813C209.961 19.8144 210.415 19.9572 210.817 20.1979C211.22 20.4387 211.559 20.7706 211.809 21.1668C212.058 21.563 212.21 22.0122 212.253 22.478C212.295 22.9438 212.227 23.413 212.053 23.8474L210.909 26.6998C210.739 27.1174 210.707 27.5781 210.818 28.015L211.563 30.9961C211.677 31.45 211.681 31.9241 211.575 32.3798C211.47 32.8355 211.258 33.26 210.956 33.6186C210.655 33.9772 210.273 34.2599 209.841 34.4437C209.41 34.6274 208.941 34.707 208.472 34.6759L205.395 34.4732C204.944 34.4445 204.495 34.5576 204.111 34.7965L201.498 36.4213C201.027 36.7194 200.481 36.8789 199.923 36.8816ZM200.918 17.2468C200.738 17.2472 200.559 17.2693 200.385 17.3125C200.054 17.3925 199.748 17.5501 199.492 17.7723C199.235 17.9945 199.036 18.2746 198.911 18.5894L197.756 21.4362C197.522 22.0146 197.111 22.5047 196.581 22.8364L193.972 24.4804C193.684 24.6607 193.444 24.9061 193.27 25.1967C193.096 25.4872 192.993 25.8146 192.97 26.1522C192.947 26.4897 193.004 26.828 193.137 27.1393C193.27 27.4506 193.475 27.7263 193.735 27.9437L196.095 29.9165C196.575 30.3165 196.915 30.8574 197.068 31.4619L197.827 34.4156C197.911 34.7436 198.071 35.0473 198.294 35.3021C198.518 35.5568 198.799 35.7554 199.114 35.8817C199.429 36.008 199.77 36.0584 200.108 36.0288C200.446 35.9993 200.773 35.8906 201.061 35.7116L203.676 34.0841C204.206 33.7536 204.827 33.5982 205.45 33.6402L208.527 33.843C208.866 33.8657 209.206 33.8082 209.518 33.6752C209.83 33.5423 210.107 33.3376 210.325 33.0778C210.542 32.8181 210.695 32.5108 210.771 32.1809C210.847 31.851 210.843 31.5079 210.76 31.1797L210.018 28.2013C209.864 27.5962 209.908 26.9581 210.142 26.3792L211.286 23.5269C211.411 23.2127 211.46 22.8736 211.43 22.537C211.399 22.2003 211.289 21.8757 211.108 21.5893C210.928 21.3029 210.683 21.0629 210.392 20.8888C210.101 20.7146 209.773 20.6111 209.435 20.5868L206.352 20.3841C205.727 20.3415 205.132 20.1027 204.653 19.7018L202.285 17.7372C201.902 17.4164 201.418 17.2398 200.918 17.2386V17.2468Z" fill="#1D1E1B"/>
<path d="M193.701 16.6057C193.635 16.6058 193.57 16.5937 193.509 16.57C193.372 16.519 193.262 16.4162 193.202 16.2842C193.141 16.1522 193.136 16.0018 193.187 15.8659C193.25 15.696 194.796 11.6846 198.137 10.816C200.117 10.3037 202.262 11.0024 204.506 12.8984C204.561 12.9449 204.607 13.0017 204.64 13.0656C204.673 13.1296 204.693 13.1994 204.7 13.2712C204.706 13.3429 204.698 13.4152 204.676 13.4838C204.654 13.5524 204.619 13.6161 204.572 13.6711C204.525 13.7262 204.468 13.7715 204.404 13.8046C204.34 13.8377 204.27 13.8579 204.198 13.864C204.126 13.8701 204.053 13.862 203.984 13.8402C203.916 13.8184 203.852 13.7833 203.796 13.7369C201.838 12.0929 200.029 11.4599 198.417 11.8764C195.629 12.597 194.229 16.2138 194.215 16.2604C194.175 16.3628 194.104 16.4505 194.012 16.5121C193.92 16.5737 193.812 16.6063 193.701 16.6057Z" fill="#1D1D1B"/>
<path d="M211.853 39.3474C211.707 39.358 211.563 39.3103 211.452 39.215C211.342 39.1197 211.274 38.9845 211.263 38.8392C211.253 38.6938 211.3 38.5502 211.396 38.44C211.492 38.3298 211.627 38.262 211.773 38.2514C213.685 37.9774 214.919 37.2678 215.442 36.169C216.429 34.0921 214.699 31.1576 214.68 31.1302C214.605 31.0055 214.583 30.8563 214.618 30.7152C214.653 30.5742 214.743 30.4529 214.868 30.378C214.993 30.3032 215.143 30.2809 215.285 30.3161C215.426 30.3513 215.548 30.4411 215.623 30.5657C215.709 30.7055 217.675 34.0264 216.448 36.6348C215.758 38.087 214.248 38.9967 211.944 39.3365L211.853 39.3474Z" fill="#1D1D1B"/>
<path d="M47.2629 48.0613C46.9704 48.0608 46.6876 47.957 46.4645 47.7684C46.2415 47.5798 46.0928 47.3186 46.0447 47.0311C44.4882 37.6822 46.2097 28.9854 50.2329 25.8865C51.7592 24.7083 53.5329 24.4672 55.1829 25.207C60.9579 27.7661 59.4509 35.9423 59.3849 36.2875C59.323 36.6087 59.1354 36.8922 58.8636 37.0757C58.5919 37.2591 58.2581 37.3275 57.9357 37.2657C57.6133 37.2039 57.3288 37.0171 57.1447 36.7463C56.9606 36.4755 56.892 36.1429 56.9539 35.8217C56.9677 35.7478 58.1584 29.2238 54.1764 27.4593C53.3514 27.0894 52.5429 27.2127 51.7344 27.8346C48.9844 29.9527 46.9137 37.2575 48.4757 46.6256C48.5025 46.7853 48.4974 46.9488 48.4607 47.1066C48.4241 47.2644 48.3566 47.4135 48.2621 47.5453C48.1676 47.6771 48.0479 47.789 47.91 47.8748C47.7721 47.9605 47.6186 48.0183 47.4582 48.0449C47.3936 48.0552 47.3283 48.0607 47.2629 48.0613Z" fill="#D9CFFF"/>
<path d="M47.2626 48.4717C46.873 48.4713 46.4961 48.3335 46.1986 48.0828C45.9011 47.832 45.7023 47.4845 45.6374 47.1017C44.0561 37.6103 45.8409 28.7437 49.9796 25.5653C51.6296 24.2912 53.5546 24.0309 55.3614 24.8364C61.4444 27.5298 59.8714 36.0129 59.7999 36.3718C59.7166 36.7981 59.4674 37.1743 59.1068 37.4181C58.7461 37.662 58.3032 37.7537 57.8749 37.6733C57.447 37.5904 57.0695 37.3421 56.8248 36.9827C56.58 36.6234 56.488 36.1821 56.5686 35.7553C56.5686 35.695 57.7016 29.4725 54.0276 27.8449C53.3346 27.5381 52.6939 27.6422 52.0064 28.171C49.3554 30.215 47.3671 37.3582 48.9016 46.5701C48.9371 46.7831 48.93 47.001 48.8809 47.2113C48.8318 47.4216 48.7416 47.6202 48.6154 47.7958C48.4893 47.9713 48.3296 48.1204 48.1457 48.2345C47.9617 48.3486 47.7569 48.4255 47.5431 48.4607C47.4501 48.4716 47.3563 48.4752 47.2626 48.4717ZM53.2686 25.1981C52.2525 25.2144 51.2714 25.5705 50.4829 26.2092C46.5751 29.2232 44.9169 37.7555 46.4514 46.9619C46.4691 47.0684 46.5076 47.1704 46.5649 47.2621C46.6222 47.3538 46.697 47.4333 46.7851 47.4961C46.8732 47.559 46.9728 47.6039 47.0784 47.6284C47.1839 47.6528 47.2932 47.6564 47.4001 47.6387C47.507 47.6211 47.6094 47.5827 47.7014 47.5256C47.7934 47.4686 47.8732 47.394 47.9363 47.3062C47.9994 47.2185 48.0445 47.1192 48.069 47.014C48.0936 46.9089 48.0971 46.7999 48.0794 46.6934C46.4926 37.1664 48.6541 29.7054 51.4921 27.5134C52.4189 26.7983 53.3841 26.6558 54.3549 27.086C58.6366 28.982 57.3799 35.832 57.3799 35.9033C57.3495 36.0626 57.3671 36.2272 57.4305 36.3766C57.4938 36.5259 57.6001 36.6533 57.7359 36.7426C57.8717 36.8319 58.031 36.8792 58.1937 36.8786C58.3564 36.878 58.5153 36.8294 58.6504 36.739C58.7405 36.6785 58.8177 36.6009 58.8777 36.5107C58.9376 36.4204 58.9791 36.3192 58.9996 36.2129C59.0629 35.8786 60.5231 28.0148 55.0341 25.5844C54.4798 25.3324 53.878 25.2007 53.2686 25.1981Z" fill="#1D1E1B"/>
<path d="M74.7047 76.1373C74.69 76.429 74.7794 76.7164 74.9571 76.9486C75.1348 77.1809 75.3893 77.3429 75.6754 77.406C84.9622 79.45 93.7677 78.1978 97.087 74.3591C98.3492 72.9014 98.6847 71.1588 98.0302 69.4572C95.7697 63.569 87.4977 64.6403 87.1457 64.6896C86.8204 64.7343 86.5263 64.9059 86.328 65.1667C86.1297 65.4275 86.0435 65.7561 86.0883 66.0802C86.1332 66.4043 86.3054 66.6973 86.5671 66.8949C86.8289 67.0925 87.1587 67.1784 87.4839 67.1337C87.5609 67.1337 94.1637 66.2843 95.7202 70.3395C96.0475 71.1889 95.8797 71.9835 95.2142 72.748C92.9482 75.3674 85.5177 77.047 76.2089 74.9975C75.8884 74.9273 75.5531 74.9864 75.2763 75.1621C74.9995 75.3377 74.8038 75.6155 74.7322 75.9346C74.7192 76.0016 74.71 76.0693 74.7047 76.1373Z" fill="#D9CFFF"/>
<path d="M84.2722 78.7849C81.3496 78.7716 78.4369 78.4437 75.585 77.8067C75.2041 77.7223 74.8655 77.5062 74.6294 77.1967C74.3933 76.8872 74.2749 76.5044 74.2952 76.1161C74.2985 76.0239 74.3105 75.9321 74.331 75.8421C74.3775 75.6313 74.4653 75.4316 74.5894 75.2546C74.7134 75.0775 74.8712 74.9265 75.0538 74.8103C75.2364 74.694 75.4402 74.6147 75.6535 74.5769C75.8669 74.5391 76.0856 74.5435 76.2972 74.5899C85.4492 76.6038 92.712 75.0009 94.901 72.4719C95.4675 71.8171 95.605 71.1841 95.3355 70.4772C93.8972 66.7481 87.6025 67.5317 87.553 67.5399C87.1202 67.5985 86.6818 67.4837 86.3339 67.2207C85.9859 66.9577 85.7568 66.568 85.6967 66.137C85.6653 65.9235 85.677 65.7058 85.7313 65.4969C85.7857 65.288 85.8814 65.092 86.013 64.9205C86.145 64.7473 86.3102 64.602 86.499 64.4928C86.6879 64.3837 86.8965 64.313 87.113 64.2848C87.476 64.2328 96.0615 63.1176 98.4375 69.3127C99.1497 71.1622 98.7867 73.0501 97.4227 74.6283C95.0715 77.319 90.1545 78.7849 84.2722 78.7849ZM75.9397 75.3791C75.7824 75.3791 75.6286 75.4248 75.497 75.5106C75.3132 75.628 75.1837 75.8133 75.1367 76.0257C75.1261 76.0697 75.1196 76.1147 75.1175 76.16C75.1077 76.354 75.1672 76.5453 75.2855 76.6998C75.4038 76.8543 75.5733 76.962 75.7637 77.0039C84.9102 79.0178 93.5507 77.8259 96.7765 74.0913C97.9342 72.7541 98.2422 71.1595 97.6455 69.6059C95.5005 64.0081 87.553 65.052 87.2037 65.1041C87.0935 65.1153 86.9867 65.1486 86.8897 65.2019C86.7927 65.2551 86.7075 65.3273 86.6391 65.4141C86.5706 65.5009 86.5205 65.6005 86.4915 65.7071C86.4626 65.8136 86.4555 65.9249 86.4707 66.0342C86.4858 66.1435 86.5229 66.2487 86.5797 66.3434C86.6365 66.4382 86.7119 66.5205 86.8014 66.5856C86.8908 66.6507 86.9925 66.6972 87.1004 66.7223C87.2083 66.7474 87.3201 66.7505 87.4292 66.7316C87.498 66.7316 94.4307 65.8357 96.1055 70.1977C96.485 71.1896 96.2897 72.1404 95.5252 73.0227C93.1822 75.7325 85.584 77.4889 76.1185 75.4065C76.0602 75.3904 76.0002 75.3812 75.9397 75.3791Z" fill="#1D1E1B"/>
<path d="M37.0755 103.664L31.5755 98.1397C29.2147 95.0752 26.4751 92.3198 23.4217 89.9389L17.9217 84.415L15.6035 86.7029C15.5538 86.7376 15.5069 86.7761 15.4632 86.818C13.97 88.2921 17.0417 93.7968 22.3382 99.1124C27.6347 104.428 33.1155 107.541 34.6087 106.067C34.6603 106.025 34.7081 105.979 34.7517 105.93V105.943L37.0755 103.664Z" fill="#FFAD00"/>
<path d="M33.558 106.855C32.5928 106.855 31.2948 106.401 29.708 105.505C27.3568 104.173 24.6425 102.008 22.0603 99.4109C19.478 96.8133 17.333 94.0898 16.0103 91.7389C14.6875 89.3879 14.3603 87.6289 15.0395 86.7164C15.082 86.6574 15.1299 86.6023 15.1825 86.552L15.254 86.4863L15.3118 86.4233L17.9243 83.8477L23.6993 89.6428C26.7621 92.0404 29.5139 94.808 31.8915 97.8819L37.6528 103.68L34.7515 106.529H34.7378C34.3896 106.761 33.9762 106.875 33.558 106.855ZM16.2055 86.7027L16.2578 86.7548L15.87 87.048C15.8404 87.0702 15.8119 87.094 15.7848 87.1192C15.2348 87.6672 15.5978 89.2838 16.7418 91.3361C18.0233 93.6267 20.1188 96.29 22.6488 98.8327C25.1788 101.375 27.8325 103.491 30.1178 104.789C32.1665 105.951 33.7863 106.332 34.339 105.784C34.3659 105.758 34.3907 105.729 34.4133 105.699L34.6883 105.307L34.7515 105.37L36.484 103.661L31.259 98.3861C30.0933 96.8679 28.8293 95.4273 27.475 94.0733C26.1283 92.7118 24.6944 91.4386 23.1823 90.262L23.141 90.2264L17.938 84.9957L16.2055 86.7027Z" fill="#1D1D1B"/>
<path d="M37.204 103.532C38.6973 102.058 35.624 96.5546 30.3395 91.2394C25.055 85.9243 19.5605 82.8104 18.0672 84.2843C16.5739 85.7583 19.6472 91.2619 24.9317 96.577C30.2162 101.892 35.7107 105.006 37.204 103.532Z" fill="#D9CFFF"/>
<path d="M36.1277 104.314C35.1625 104.314 33.8645 103.859 32.2777 102.963C29.9292 101.631 27.2122 99.4666 24.6327 96.8719C22.0532 94.2771 19.9055 91.548 18.5827 89.1999C17.1692 86.6654 16.8832 84.8679 17.7577 83.9939C18.6322 83.1198 20.4362 83.4267 22.9662 84.8597C25.3147 86.1913 28.0317 88.3532 30.614 90.9507C33.1962 93.5482 35.3412 96.2745 36.664 98.6227C38.0775 101.154 38.3607 102.952 37.489 103.829C37.306 103.996 37.0913 104.125 36.8575 104.208C36.6238 104.292 36.3756 104.327 36.1277 104.314ZM19.1272 84.3336C18.8463 84.3114 18.5678 84.3999 18.3517 84.5802C17.8017 85.1282 18.1647 86.7421 19.3115 88.7943C20.5902 91.085 22.6885 93.7483 25.2185 96.291C27.7485 98.8337 30.3995 100.949 32.6875 102.248C34.7362 103.409 36.3532 103.79 36.9087 103.245C37.4587 102.697 37.093 101.083 35.9462 99.0282C34.6675 96.7403 32.572 94.0771 30.042 91.5316C27.512 88.9861 24.8582 86.8736 22.573 85.5776C21.1485 84.7665 19.9302 84.3336 19.1355 84.3336H19.1272Z" fill="#1D1E1B"/>
<path d="M33.4386 100.853C28.6233 97.8607 24.1436 94.3234 20.9701 88.6845C20.8594 88.4868 20.8051 88.2626 20.8133 88.0363C20.8215 87.81 20.8918 87.5903 21.0165 87.4011C21.1413 87.2118 21.3157 87.0603 21.5208 86.9629C21.726 86.8655 21.954 86.826 22.1801 86.8487C28.5876 87.3802 38.7598 80.9905 43.1433 68.1865L54.6273 79.2232C40.7151 83.3113 34.7256 92.4355 35.1793 99.8171C35.1931 100.026 35.1489 100.234 35.0514 100.419C34.9539 100.604 34.8071 100.758 34.627 100.866C34.447 100.973 34.2407 101.028 34.031 101.026C33.8213 101.024 33.6163 100.964 33.4386 100.853Z" fill="#D9CFFF"/>
<path d="M34.0424 101.439C33.7507 101.439 33.465 101.357 33.2174 101.204C28.8999 98.5322 24.0269 94.9702 20.6087 88.8874C20.4603 88.6282 20.3865 88.3334 20.3952 88.0352C20.404 87.737 20.4949 87.4469 20.6581 87.1968C20.8243 86.9418 21.0569 86.7365 21.331 86.6028C21.6051 86.4691 21.9106 86.4121 22.2146 86.4378C28.8697 86.9858 38.6212 80.1194 42.7517 68.0524L42.9607 67.4414L55.4237 79.4179L54.7417 79.618C40.9064 83.6841 35.1534 92.6796 35.5907 99.7926C35.6034 100.003 35.5728 100.214 35.5008 100.413C35.4288 100.611 35.317 100.793 35.172 100.947C35.0271 101.101 34.8521 101.224 34.6579 101.308C34.4637 101.392 34.2542 101.436 34.0424 101.437V101.439ZM33.6519 100.505C33.7654 100.575 33.8963 100.613 34.03 100.613C34.1637 100.613 34.2947 100.575 34.4081 100.505C34.5245 100.437 34.6194 100.338 34.6821 100.218C34.7448 100.099 34.7728 99.9651 34.7629 99.8309C34.3119 92.5124 40.0429 83.3087 53.8287 79.0234L43.3181 68.9402C39.1106 80.5359 29.7579 87.2982 22.9516 87.2982C22.6766 87.2982 22.4016 87.2982 22.1459 87.2653C21.9913 87.2508 21.8356 87.2788 21.6959 87.3465C21.5562 87.4141 21.4379 87.5188 21.3539 87.6489C21.2718 87.7735 21.226 87.9184 21.2217 88.0674C21.2173 88.2164 21.2545 88.3636 21.3291 88.4928C24.6539 94.4003 29.4251 97.8828 33.6574 100.513L33.6519 100.505Z" fill="#1D1E1B"/>
<path d="M64.6055 29.7148L93.6939 58.972L75.6633 76.7684C71.7708 80.6104 66.5063 82.7551 61.0272 82.7308C55.5482 82.7065 50.303 80.5153 46.4449 76.639C42.5876 72.7593 40.435 67.5117 40.4608 62.0506C40.4867 56.5896 42.6888 51.3625 46.5826 47.5191L64.6132 29.7226L64.6055 29.7148Z" fill="#FFAD00"/>
<path d="M61.1178 83.1302C58.3333 83.1354 55.5755 82.5889 53.0049 81.5226C50.4343 80.4562 48.1021 78.8912 46.1441 76.9186C44.1956 74.9596 42.6537 72.6374 41.6062 70.0845C40.5587 67.5316 40.0263 64.7982 40.0393 62.0402C40.0523 59.2823 40.6105 56.5539 41.6821 54.011C42.7536 51.4681 44.3175 49.1604 46.2843 47.2197L64.6076 29.1357L94.2746 58.9743L75.9513 77.0583C72.007 80.9568 66.6736 83.14 61.1178 83.1302ZM46.7298 76.3377C48.5975 78.2278 50.8233 79.7296 53.2781 80.7559C55.7328 81.7822 58.3677 82.3126 61.0298 82.3164H61.1288C63.7715 82.3224 66.3895 81.8096 68.8332 80.8072C71.2769 79.8049 73.4985 78.3327 75.3711 76.4747L93.1086 58.9689L64.6021 30.3057L46.8536 47.8034C43.0456 51.5742 40.894 56.6958 40.8708 62.0451C40.8476 67.3943 42.9547 72.5343 46.7298 76.3377Z" fill="#1D1D1B"/>
<path d="M98.2273 61.6099C101.534 58.3457 96.0469 47.4838 85.9707 37.3491C75.8945 27.2145 65.0452 21.6449 61.7381 24.909C58.4309 28.1732 63.9184 39.0351 73.9946 49.1697C84.0709 59.3044 94.9202 64.874 98.2273 61.6099Z" fill="#FFAD00"/>
<path d="M95.5247 62.9533C93.674 62.9533 91.2787 62.2245 88.471 60.7832C83.8565 58.4132 78.615 54.3936 73.7117 49.4616C68.8085 44.5296 64.8237 39.2715 62.4917 34.6656C60.0882 29.9117 59.7225 26.3497 61.4605 24.6344C63.1985 22.9192 66.768 23.3192 71.5172 25.7551C76.1317 28.1252 81.3732 32.1448 86.2765 37.0768C91.1797 42.0088 95.1645 47.2668 97.4965 51.8865C99.8972 56.6404 100.266 60.2024 98.5277 61.9176C97.8072 62.6053 96.7897 62.9533 95.5247 62.9533ZM64.4497 24.3933C63.3992 24.3933 62.5742 24.6673 62.0242 25.2153C60.5832 26.6374 61.015 29.9473 63.2122 34.2929C65.5057 38.8386 69.4382 44.0227 74.281 48.8944C79.1237 53.7661 84.291 57.7336 88.8312 60.0626C93.1735 62.2902 96.4872 62.7533 97.931 61.3312C99.372 59.9092 98.9402 56.5993 96.743 52.2536C94.4467 47.708 90.517 42.5239 85.6742 37.6522C80.8315 32.7805 75.667 28.802 71.1295 26.4702C68.4455 25.1002 66.1547 24.3933 64.4497 24.3933Z" fill="#1D1D1B"/>
<path d="M94.6042 56.8124C95.8849 55.5483 90.6359 48.1998 82.8802 40.3991C75.1245 32.5984 67.799 27.2995 66.5182 28.5636C65.2375 29.8278 70.4865 37.1762 78.2422 44.9769C85.9979 52.7776 93.3234 58.0765 94.6042 56.8124Z" fill="#835D07"/>
<path d="M94.0874 57.3905C91.1174 57.3905 83.1259 50.4665 77.9559 45.266C74.1884 41.4793 70.8884 37.6762 68.6609 34.5581C65.0254 29.4672 65.9329 28.5684 66.2327 28.2725C66.5324 27.9766 67.4427 27.0806 72.5192 30.7385C75.6267 32.9853 79.4107 36.3117 83.1782 40.0984C88.9532 45.8935 96.8154 55.2012 94.8987 57.0864C94.7912 57.1892 94.6638 57.2691 94.5244 57.3214C94.3849 57.3737 94.2363 57.3972 94.0874 57.3905ZM67.0852 28.7822C66.9875 28.772 66.8895 28.7984 66.8102 28.8561C66.5654 29.1 66.7744 30.5001 69.3319 34.0813C71.5319 37.1638 74.8017 40.9313 78.5389 44.6879C82.2762 48.4444 86.0244 51.7406 89.0962 53.9628C92.6712 56.5438 94.0682 56.7658 94.3212 56.5219C94.5742 56.2781 94.3569 54.8779 91.8022 51.2967C89.6022 48.2142 86.3297 44.4467 82.5952 40.6902C78.8607 36.9337 75.1097 33.6402 72.0352 31.418C69.1284 29.3247 67.6682 28.7822 67.0852 28.7822Z" fill="#1D1D1B"/>
<path d="M64.205 79.5793C63.1571 79.5837 62.1171 79.398 61.136 79.0313C61.0345 78.9932 60.9415 78.9355 60.8624 78.8616C60.7833 78.7876 60.7196 78.6989 60.6749 78.6004C60.5847 78.4016 60.5774 78.1751 60.6547 77.9709C60.732 77.7667 60.8876 77.6015 61.0872 77.5116C61.2868 77.4216 61.514 77.4144 61.719 77.4914C71.1487 81.0534 82.894 62.3995 83.0012 62.2105C83.1177 62.0278 83.3017 61.8982 83.5135 61.8499C83.7252 61.8015 83.9475 61.8384 84.1322 61.9524C84.3169 62.0664 84.4489 62.2483 84.4998 62.4587C84.5506 62.6692 84.5161 62.8911 84.4037 63.0763C83.9445 63.8106 74.0115 79.5793 64.205 79.5793Z" fill="white"/>
<path d="M47.1266 50.5819C47.0004 50.5816 46.878 50.5381 46.7801 50.4586C40.0179 44.9786 36.2284 34.7447 35.8187 20.8666C35.6495 14.358 36.1211 7.84864 37.2267 1.43176C37.2365 1.35772 37.2615 1.28647 37.3001 1.2224C37.3386 1.15833 37.3898 1.10278 37.4507 1.05916C37.5116 1.01555 37.5807 0.984797 37.654 0.968788C37.7272 0.952779 37.8029 0.951856 37.8765 0.966073C37.9501 0.98029 38.02 1.00935 38.0819 1.05146C38.1439 1.09358 38.1965 1.14786 38.2366 1.21097C38.2767 1.27409 38.3034 1.3447 38.3151 1.41848C38.3268 1.49226 38.3233 1.56764 38.3047 1.64C37.211 7.98447 36.7431 14.4203 36.9077 20.8556C37.1827 30.2977 39.2479 42.9482 47.4621 49.6092C47.5494 49.68 47.6127 49.7758 47.6436 49.8836C47.6745 49.9914 47.6714 50.1061 47.6349 50.2121C47.5983 50.3181 47.53 50.4104 47.4391 50.4766C47.3482 50.5427 47.2392 50.5795 47.1266 50.5819Z" fill="#1D1D1B"/>
<path d="M45.4767 56.0625H45.3805C39.4762 55.024 34.1962 50.5332 30.1097 43.0776C28.2219 39.5949 26.7401 35.9085 25.6932 32.0902C25.6752 32.0204 25.6711 31.9478 25.6812 31.8764C25.6913 31.805 25.7155 31.7363 25.7522 31.6742C25.789 31.6121 25.8377 31.5579 25.8955 31.5146C25.9533 31.4712 26.0192 31.4397 26.0892 31.4217C26.1593 31.4037 26.2322 31.3996 26.3038 31.4097C26.3755 31.4198 26.4444 31.4438 26.5067 31.4805C26.569 31.5171 26.6235 31.5656 26.667 31.6232C26.7105 31.6808 26.7422 31.7464 26.7602 31.8162C26.8125 32.0245 32.065 52.5964 45.573 54.972C45.7188 54.9847 45.8537 55.0546 45.9478 55.1664C46.0419 55.2781 46.0876 55.4226 46.0748 55.5679C46.0621 55.7133 45.9919 55.8476 45.8797 55.9414C45.7676 56.0351 45.6226 56.0807 45.4767 56.068V56.0625Z" fill="#1D1D1B"/>
<path d="M25.4004 85.9281C25.4004 85.9281 20.6594 84.7307 22.3479 76.4148C24.0364 68.0989 28.1972 60.9173 34.5304 59.1144C40.8637 57.3115 45.3352 59.8405 47.2877 62.9888C49.2402 66.137 47.7414 69.5346 43.3057 71.1841C43.3057 71.1841 45.5964 77.234 37.6242 79.6781C37.6242 79.6781 37.5114 89.986 29.7894 84.8841L25.4004 85.9281Z" fill="#FFCDB2"/>
<path d="M38.6002 58.5115C42.783 58.5115 45.775 60.5665 47.2765 62.9886C49.2317 66.1341 47.7302 69.5345 43.2945 71.184C43.2945 71.184 45.5852 77.2339 37.613 79.678C37.613 79.678 37.5415 86.3005 33.5347 86.3005C32.542 86.3005 31.31 85.895 29.7782 84.884L25.4002 85.9279C25.4002 85.9279 20.6592 84.7305 22.3477 76.4146C24.0362 68.0987 28.197 60.9172 34.5302 59.1143C35.8558 58.7251 37.2294 58.5222 38.6112 58.5115H38.6002ZM38.6112 57.6895C37.1523 57.7009 35.7021 57.9139 34.302 58.3224C31.0872 59.2376 28.296 61.4405 26.008 64.8655C23.9785 67.9069 22.433 71.8443 21.5392 76.2502C20.7912 79.9355 21.1405 82.8016 22.5732 84.7716C23.204 85.6967 24.1277 86.3845 25.1967 86.7252L25.3947 86.7746L25.5927 86.728L29.638 85.7608C31.079 86.6622 32.388 87.1308 33.5457 87.1308C34.9647 87.1308 36.8677 86.4567 37.8742 83.2427C38.1662 82.2823 38.3507 81.2926 38.4242 80.2917C41.0477 79.3848 42.8435 77.9792 43.7647 76.105C44.4211 74.7269 44.6047 73.1721 44.2872 71.6799C46.5175 70.6962 48.0602 69.2139 48.668 67.4439C49.218 65.8492 48.9815 64.1559 47.9915 62.5639C46.0995 59.517 42.5932 57.6977 38.6112 57.6977V57.6895Z" fill="#1D1D1B"/>
<path d="M43.2752 71.5429C43.2071 71.5432 43.1401 71.5265 43.08 71.4945C43.02 71.4624 42.969 71.416 42.9315 71.3593C38.7405 65.0984 31.3485 66.8548 31.2742 66.8739C31.1678 66.9001 31.0552 66.883 30.9613 66.8265C30.8675 66.77 30.8 66.6786 30.7737 66.5725C30.7475 66.4664 30.7646 66.3543 30.8213 66.2608C30.8781 66.1673 30.9698 66.1 31.0762 66.0739C31.156 66.0547 39.109 64.1559 43.619 70.9045C43.649 70.9495 43.6698 70.9999 43.6802 71.0529C43.6906 71.1058 43.6905 71.1604 43.6798 71.2133C43.669 71.2662 43.6479 71.3165 43.6177 71.3613C43.5875 71.4061 43.5486 71.4445 43.5035 71.4744C43.436 71.5196 43.3565 71.5434 43.2752 71.5429Z" fill="black"/>
<path d="M37.6385 80.1742H37.567C29.7432 78.7823 27.986 75.1628 27.9145 75.0093C27.8735 74.9113 27.8723 74.8013 27.9109 74.7023C27.9496 74.6033 28.0252 74.5231 28.1219 74.4785C28.2186 74.4339 28.3289 74.4283 28.4297 74.4629C28.5305 74.4975 28.6139 74.5696 28.6625 74.6641C28.6872 74.7162 30.384 78.059 37.71 79.3632C37.8194 79.3727 37.9205 79.425 37.9912 79.5088C38.0618 79.5925 38.0962 79.7008 38.0867 79.8098C38.0772 79.9188 38.0247 80.0196 37.9406 80.09C37.8566 80.1604 37.7479 80.1947 37.6385 80.1852V80.1742Z" fill="black"/>
<path d="M47.2638 66.2004C47.1416 66.2003 47.0216 66.1678 46.9162 66.1061C46.8109 66.0445 46.7239 65.956 46.6643 65.8497C41.827 57.2242 33.6403 61.5452 33.2938 61.7397C33.1349 61.817 32.9524 61.8303 32.784 61.777C32.6155 61.7236 32.4742 61.6077 32.3893 61.4533C32.3043 61.2989 32.2824 61.1178 32.3279 60.9477C32.3734 60.7776 32.483 60.6314 32.6338 60.5396C32.73 60.4848 42.3715 55.3939 47.8633 65.1976C47.9072 65.2766 47.9349 65.3636 47.9449 65.4534C47.9548 65.5431 47.9468 65.634 47.9212 65.7207C47.8956 65.8073 47.853 65.8881 47.7958 65.9582C47.7387 66.0283 47.6681 66.0865 47.5883 66.1292C47.4878 66.1796 47.3762 66.2041 47.2638 66.2004Z" fill="white"/>
</svg>
