<svg width="24" height="24" viewBox="0 0 24 24" fill="none" xmlns="http://www.w3.org/2000/svg">
<path d="M19.1719 22.238H16.0092C15.2691 22.238 14.5593 21.9293 14.036 21.3798C13.5126 20.8303 13.2186 20.0851 13.2186 19.308V14.9424C13.2178 14.7554 13.1777 14.571 13.1012 14.4022C13.0246 14.2334 12.9135 14.0844 12.7758 13.9659C12.638 13.8474 12.4771 13.7623 12.3044 13.7167C12.1317 13.6711 11.9515 13.6661 11.7768 13.702C11.4866 13.7683 11.2279 13.9396 11.0459 14.1861C10.8639 14.4325 10.7703 14.7382 10.7815 15.0498V19.2689C10.7815 20.046 10.4874 20.7913 9.9641 21.3407C9.44076 21.8902 8.73096 22.1989 7.99084 22.1989H4.79093C4.05081 22.1989 3.341 21.8902 2.81766 21.3407C2.29432 20.7913 2.00031 20.046 2.00031 19.2689V11.0944C1.99253 10.3754 2.13223 9.66316 2.40991 9.00593C2.68758 8.3487 3.09673 7.76192 3.60956 7.28544L8.96755 2.40219C9.8087 1.65082 10.877 1.23822 11.9814 1.23822C13.0858 1.23822 14.1542 1.65082 14.9953 2.40219L20.344 7.28544C20.8631 7.75714 21.2797 8.3405 21.5654 8.99598C21.851 9.65147 21.9992 10.3638 21.9998 11.0846V19.2689C22.0048 19.6603 21.935 20.0487 21.7947 20.4113C21.6543 20.7739 21.4462 21.1033 21.1826 21.3801C20.9191 21.6568 20.6053 21.8753 20.26 22.0227C19.9146 22.17 19.5447 22.2432 19.1719 22.238ZM11.9814 12.2273C12.6681 12.2273 13.3268 12.513 13.8133 13.0219C14.2997 13.5308 14.5742 14.2214 14.5767 14.9424V19.2689C14.5767 19.6678 14.7276 20.0504 14.9963 20.3325C15.2649 20.6145 15.6293 20.773 16.0092 20.773H19.1719C19.3608 20.7743 19.5481 20.7363 19.723 20.6613C19.8979 20.5863 20.0569 20.4757 20.1909 20.3359C20.3249 20.1961 20.4312 20.0299 20.5038 19.8468C20.5764 19.6637 20.6137 19.4673 20.6137 19.2689V11.0846C20.611 10.5719 20.5033 10.0659 20.2978 9.60079C20.0924 9.13569 19.794 8.72243 19.4231 8.38906L14.0744 3.50581C13.4883 2.98028 12.7429 2.69155 11.9721 2.69155C11.2014 2.69155 10.4559 2.98028 9.86985 3.50581L4.53977 8.39882C4.16811 8.73099 3.86988 9.14423 3.66585 9.60976C3.46183 10.0753 3.35691 10.5819 3.35841 11.0944V19.2689C3.35841 19.4673 3.39576 19.6637 3.46834 19.8468C3.54091 20.0299 3.64726 20.1961 3.78127 20.3359C3.91528 20.4757 4.0743 20.5863 4.24917 20.6613C4.42405 20.7363 4.61133 20.7743 4.80023 20.773H7.96293C8.34124 20.7704 8.70323 20.6108 8.96987 20.329C9.23651 20.0472 9.38616 19.6662 9.38615 19.2689V15.0498C9.37897 14.3915 9.59195 13.7514 9.98798 13.241C10.384 12.7306 10.938 12.3823 11.5535 12.2566C11.6954 12.2368 11.8383 12.227 11.9814 12.2273Z" fill="white"/>
</svg>
