<svg width="24" height="25" viewBox="0 0 24 25" fill="none" xmlns="http://www.w3.org/2000/svg">
<g clip-path="url(#clip0_3837_4849)">
<path d="M23.8987 13H21.5829C21.2758 13 20.9813 13.1106 20.7641 13.3075C20.547 13.5045 20.425 13.7715 20.425 14.05C20.425 14.3285 20.547 14.5956 20.7641 14.7925C20.9813 14.9894 21.2758 15.1 21.5829 15.1V17.2H20.2116C20.3489 16.8638 20.4211 16.5085 20.425 16.15C20.4251 15.4566 20.1728 14.7825 19.7073 14.2323C19.2418 13.6822 18.5891 13.2867 17.8505 13.1072C17.1118 12.9278 16.3285 12.9745 15.622 13.2399C14.9156 13.5054 14.3255 13.9749 13.9433 14.5755C13.8666 14.695 13.8166 14.827 13.7963 14.9641C13.7759 15.1011 13.7857 15.2404 13.8249 15.3741C13.8641 15.5077 13.932 15.633 14.0248 15.7427C14.1175 15.8525 14.2333 15.9445 14.3654 16.0136C14.4975 16.0827 14.6433 16.1274 14.7945 16.1452C14.9457 16.163 15.0993 16.1536 15.2465 16.1174C15.3937 16.0813 15.5315 16.0191 15.6522 15.9345C15.7728 15.8499 15.8738 15.7446 15.9493 15.6245C16.051 15.4651 16.1971 15.3328 16.373 15.2408C16.5488 15.1487 16.7482 15.1002 16.9512 15.1C17.2583 15.1 17.5528 15.2106 17.77 15.4075C17.9871 15.6045 18.1091 15.8715 18.1091 16.15C18.1091 16.4285 17.9871 16.6955 17.77 16.8925C17.5528 17.0894 17.2583 17.2 16.9512 17.2C16.6441 17.2 16.3496 17.3106 16.1324 17.5075C15.9153 17.7045 15.7933 17.9715 15.7933 18.25C15.7933 18.5285 15.9153 18.7956 16.1324 18.9925C16.3496 19.1894 16.6441 19.3 16.9512 19.3C17.2583 19.3 17.5528 19.4106 17.77 19.6075C17.9871 19.8045 18.1091 20.0715 18.1091 20.35C18.1091 20.6285 17.9871 20.8956 17.77 21.0925C17.5528 21.2894 17.2583 21.4 16.9512 21.4C16.7482 21.3998 16.5488 21.3513 16.373 21.2592C16.1971 21.1672 16.0511 21.0349 15.9494 20.8755C15.8738 20.7554 15.7728 20.6501 15.6522 20.5655C15.5316 20.4809 15.3937 20.4187 15.2465 20.3825C15.0993 20.3464 14.9457 20.3369 14.7945 20.3548C14.6433 20.3726 14.4975 20.4173 14.3654 20.4864C14.2333 20.5555 14.1175 20.6475 14.0248 20.7573C13.932 20.867 13.8641 20.9923 13.8249 21.1259C13.7857 21.2595 13.7759 21.3989 13.7963 21.5359C13.8166 21.6729 13.8666 21.805 13.9434 21.9245C14.3255 22.5251 14.9156 22.9946 15.622 23.26C16.3285 23.5255 17.1118 23.5721 17.8505 23.3927C18.5891 23.2133 19.2418 22.8178 19.7073 22.2677C20.1728 21.7175 20.4251 21.0434 20.425 20.35C20.4211 19.9915 20.3489 19.6362 20.2116 19.3H21.5829V22.45C21.5829 22.7285 21.7049 22.9956 21.922 23.1925C22.1392 23.3894 22.4337 23.5 22.7408 23.5C23.0479 23.5 23.3424 23.3894 23.5596 23.1925C23.7767 22.9956 23.8987 22.7285 23.8987 22.45V15.1C24.2058 15.1 24.5003 14.9894 24.7175 14.7925C24.9346 14.5956 25.0566 14.3285 25.0566 14.05C25.0566 13.7715 24.9346 13.5045 24.7175 13.3075C24.5003 13.1106 24.2058 13 23.8987 13ZM10.0388 12.2048C10.1133 12.4749 10.3031 12.707 10.5664 12.8502C10.6967 12.9211 10.8412 12.968 10.9916 12.9882C11.1419 13.0085 11.2952 13.0017 11.4426 12.9682C11.5901 12.9348 11.7288 12.8753 11.851 12.7932C11.9731 12.7111 12.0761 12.608 12.1543 12.4898C12.2325 12.3716 12.2842 12.2406 12.3066 12.1042C12.3289 11.9679 12.3214 11.8289 12.2845 11.6952L10.2502 4.31392C10.1074 3.79582 9.77775 3.33587 9.31357 3.0072C8.84939 2.67853 8.27737 2.5 7.68845 2.5C7.09952 2.5 6.5275 2.67853 6.06332 3.0072C5.59914 3.33587 5.26946 3.79582 5.12667 4.31392L3.09127 11.6952C3.01674 11.9652 3.06357 12.2511 3.22145 12.4898C3.37933 12.7285 3.63533 12.9006 3.93313 12.9682C4.23093 13.0358 4.54614 12.9933 4.80942 12.8502C5.07269 12.707 5.26247 12.4749 5.33699 12.2048L5.98634 9.85H9.38977L10.0388 12.2048ZM6.56544 7.75L7.37239 4.82354C7.39686 4.76551 7.44017 4.71559 7.49661 4.68036C7.55304 4.64514 7.61994 4.62629 7.68845 4.62629C7.75696 4.62629 7.82385 4.64514 7.88029 4.68036C7.93672 4.71559 7.98003 4.76551 8.0045 4.82354L8.81102 7.75H6.56544ZM15.7933 7.75H16.9512C17.2582 7.75028 17.5526 7.861 17.7697 8.05785C17.9867 8.2547 18.1088 8.52161 18.1091 8.8V9.85C18.1091 10.1285 18.2311 10.3956 18.4483 10.5925C18.6654 10.7894 18.96 10.9 19.2671 10.9C19.5742 10.9 19.8687 10.7894 20.0858 10.5925C20.303 10.3956 20.425 10.1285 20.425 9.85V8.8C20.424 7.96485 20.0577 7.16417 19.4064 6.57362C18.7552 5.98308 17.8722 5.65092 16.9512 5.65H15.7933C15.4862 5.65 15.1917 5.76063 14.9745 5.95754C14.7574 6.15446 14.6354 6.42153 14.6354 6.7C14.6354 6.97848 14.7574 7.24555 14.9745 7.44247C15.1917 7.63938 15.4862 7.75 15.7933 7.75ZM11.1616 17.2H10.0037C9.69671 17.1997 9.40237 17.089 9.18528 16.8922C8.9682 16.6953 8.8461 16.4284 8.8458 16.15V15.1C8.8458 14.8215 8.7238 14.5545 8.50665 14.3575C8.2895 14.1606 7.99498 14.05 7.68788 14.05C7.38078 14.05 7.08626 14.1606 6.86911 14.3575C6.65196 14.5545 6.52996 14.8215 6.52996 15.1V16.15C6.53097 16.9852 6.89727 17.7858 7.54851 18.3764C8.19975 18.9669 9.08273 19.2991 10.0037 19.3H11.1616C11.4687 19.3 11.7633 19.1894 11.9804 18.9925C12.1976 18.7956 12.3195 18.5285 12.3195 18.25C12.3195 17.9715 12.1976 17.7045 11.9804 17.5075C11.7633 17.3106 11.4687 17.2 11.1616 17.2Z" fill="white"/>
</g>
<defs>
<clipPath id="clip0_3837_4849">
<rect width="24" height="24" fill="white" transform="translate(0 0.5)"/>
</clipPath>
</defs>
</svg>
