<svg width="135" height="30" viewBox="0 0 135 30" fill="none" xmlns="http://www.w3.org/2000/svg">
<path d="M47.248 11.464V19.233C47.248 20.6723 46.8683 21.766 46.109 22.514C45.361 23.2507 44.307 23.619 42.947 23.619C41.485 23.619 40.3233 23.2167 39.462 22.412C38.6007 21.6073 38.17 20.4343 38.17 18.893H41.893C41.893 19.3803 41.9723 19.726 42.131 19.93C42.2897 20.1227 42.505 20.219 42.777 20.219C43.0037 20.219 43.1793 20.1453 43.304 19.998C43.4287 19.8507 43.491 19.5957 43.491 19.233V11.464H47.248ZM60.2163 13.912L54.0793 28.09H49.9483L52.3623 23.024L48.3673 13.912H52.5663L54.3683 18.774L56.0513 13.912H60.2163ZM60.8922 18.706C60.8922 17.6973 61.0622 16.8247 61.4022 16.088C61.7536 15.34 62.2296 14.7733 62.8302 14.388C63.4309 13.9913 64.1052 13.793 64.8532 13.793C65.4766 13.793 66.0149 13.9233 66.4682 14.184C66.9216 14.4333 67.2672 14.779 67.5052 15.221V13.912H71.2622V23.5H67.5052V22.191C67.2672 22.633 66.9216 22.9843 66.4682 23.245C66.0149 23.4943 65.4766 23.619 64.8532 23.619C64.1052 23.619 63.4309 23.4263 62.8302 23.041C62.2296 22.6443 61.7536 22.0777 61.4022 21.341C61.0622 20.593 60.8922 19.7147 60.8922 18.706ZM67.5052 18.706C67.5052 18.196 67.3749 17.7993 67.1142 17.516C66.8536 17.2327 66.5192 17.091 66.1112 17.091C65.7032 17.091 65.3689 17.2327 65.1082 17.516C64.8476 17.7993 64.7172 18.196 64.7172 18.706C64.7172 19.216 64.8476 19.6127 65.1082 19.896C65.3689 20.1793 65.7032 20.321 66.1112 20.321C66.5192 20.321 66.8536 20.1793 67.1142 19.896C67.3749 19.6127 67.5052 19.216 67.5052 18.706ZM80.1819 13.844C81.2812 13.844 82.1369 14.2123 82.7489 14.949C83.3722 15.6857 83.6839 16.683 83.6839 17.941V23.5H79.9269V18.417C79.9269 17.9637 79.8022 17.6067 79.5529 17.346C79.3149 17.074 78.9919 16.938 78.5839 16.938C78.1646 16.938 77.8359 17.074 77.5979 17.346C77.3599 17.6067 77.2409 17.9637 77.2409 18.417V23.5H73.4669V13.912H77.2409V15.374C77.5356 14.9207 77.9266 14.5523 78.4139 14.269C78.9126 13.9857 79.5019 13.844 80.1819 13.844ZM85.3204 18.706C85.3204 17.6973 85.4904 16.8247 85.8304 16.088C86.1818 15.34 86.6578 14.7733 87.2584 14.388C87.8591 13.9913 88.5334 13.793 89.2814 13.793C89.9048 13.793 90.4431 13.9233 90.8964 14.184C91.3498 14.4333 91.6954 14.779 91.9334 15.221V13.912H95.6904V23.5H91.9334V22.191C91.6954 22.633 91.3498 22.9843 90.8964 23.245C90.4431 23.4943 89.9048 23.619 89.2814 23.619C88.5334 23.619 87.8591 23.4263 87.2584 23.041C86.6578 22.6443 86.1818 22.0777 85.8304 21.341C85.4904 20.593 85.3204 19.7147 85.3204 18.706ZM91.9334 18.706C91.9334 18.196 91.8031 17.7993 91.5424 17.516C91.2818 17.2327 90.9474 17.091 90.5394 17.091C90.1314 17.091 89.7971 17.2327 89.5364 17.516C89.2758 17.7993 89.1454 18.196 89.1454 18.706C89.1454 19.216 89.2758 19.6127 89.5364 19.896C89.7971 20.1793 90.1314 20.321 90.5394 20.321C90.9474 20.321 91.2818 20.1793 91.5424 19.896C91.8031 19.6127 91.9334 19.216 91.9334 18.706ZM110.696 13.844C111.92 13.844 112.866 14.2123 113.535 14.949C114.215 15.6857 114.555 16.683 114.555 17.941V23.5H110.798V18.417C110.798 18.009 110.673 17.6917 110.424 17.465C110.186 17.227 109.863 17.108 109.455 17.108C109.036 17.108 108.707 17.227 108.469 17.465C108.231 17.6917 108.112 18.009 108.112 18.417V23.5H104.355V18.417C104.355 18.009 104.23 17.6917 103.981 17.465C103.743 17.227 103.42 17.108 103.012 17.108C102.593 17.108 102.264 17.227 102.026 17.465C101.788 17.6917 101.669 18.009 101.669 18.417V23.5H97.8951V13.912H101.669V15.204C101.941 14.796 102.309 14.4673 102.774 14.218C103.25 13.9687 103.805 13.844 104.44 13.844C105.131 13.844 105.743 13.997 106.276 14.303C106.809 14.5977 107.234 15.017 107.551 15.561C107.902 15.0623 108.35 14.6543 108.894 14.337C109.438 14.0083 110.039 13.844 110.696 13.844Z" fill="white"/>
<path d="M6.30089 5.0803L7.62671 2.07223C8.33919 0.45574 10.4949 0.136913 11.6448 1.47796L18.7612 9.77741C19.5127 10.6538 19.6946 11.8837 19.229 12.9402L17.6903 16.4311C17.0995 17.7715 15.3157 18.043 14.3529 16.9391L6.78517 8.26214C6.02033 7.3852 5.83158 6.14508 6.30089 5.0803Z" fill="#FF5E2C"/>
<path d="M19.0036 29.4863L15.9806 28.5936C14.4735 28.1486 13.7936 26.3995 14.6044 25.0535L25.8254 6.42669C26.5299 5.25717 27.9352 4.71088 29.2447 5.09754L32.6483 6.10257C33.9 6.47217 34.468 7.92222 33.8005 9.04369L22.431 28.1436C21.7296 29.3219 20.3186 29.8746 19.0036 29.4863Z" fill="#FF5E2C"/>
</svg>
