<svg width="21" height="21" viewBox="0 0 21 21" fill="none" xmlns="http://www.w3.org/2000/svg">
<path d="M21 10.5C21 16.299 16.299 21 10.5 21C4.70101 21 0 16.299 0 10.5C0 4.70101 4.70101 0 10.5 0C16.299 0 21 4.70101 21 10.5ZM2.31 10.5C2.31 15.0232 5.97679 18.69 10.5 18.69C15.0232 18.69 18.69 15.0232 18.69 10.5C18.69 5.97679 15.0232 2.31 10.5 2.31C5.97679 2.31 2.31 5.97679 2.31 10.5Z" fill="#EEF6FF"/>
<path d="M1.155 10.5C0.517111 10.5 -0.00657063 11.0187 0.0634552 11.6527C0.247782 13.3216 0.830484 14.928 1.76957 16.3335C2.92332 18.0602 4.5632 19.406 6.48182 20.2007C8.40045 20.9955 10.5116 21.2034 12.5484 20.7982C14.5852 20.3931 16.4562 19.3931 17.9246 17.9246C19.3931 16.4562 20.3931 14.5852 20.7982 12.5484C21.2034 10.5116 20.9955 8.40045 20.2007 6.48182C19.406 4.5632 18.0602 2.92332 16.3335 1.76957C14.928 0.830485 13.3216 0.247783 11.6527 0.0634556C11.0187 -0.00657053 10.5 0.517111 10.5 1.155V1.155C10.5 1.79289 11.0196 2.30164 11.6512 2.39131C12.8624 2.56326 14.0248 3.00518 15.0501 3.69026C16.397 4.59019 17.4467 5.8693 18.0666 7.36582C18.6865 8.86235 18.8486 10.5091 18.5326 12.0978C18.2166 13.6865 17.4366 15.1458 16.2912 16.2912C15.1458 17.4366 13.6865 18.2166 12.0978 18.5326C10.5091 18.8486 8.86235 18.6865 7.36582 18.0666C5.86929 17.4467 4.59019 16.397 3.69026 15.0501C3.00518 14.0248 2.56326 12.8624 2.3913 11.6512C2.30164 11.0196 1.79289 10.5 1.155 10.5V10.5Z" fill="#17C653"/>
</svg>
