<svg width="24" height="24" viewBox="0 0 24 24" fill="none" xmlns="http://www.w3.org/2000/svg">
<path d="M15.31 22.3801C14.7796 22.3801 14.2709 22.1694 13.8958 21.7943C13.5207 21.4192 13.31 20.9105 13.31 20.3801V15.9401C13.3074 15.5566 13.3803 15.1764 13.5246 14.8211C13.6689 14.4658 13.8818 14.1425 14.1511 13.8694C14.4204 13.5964 14.7408 13.3791 15.0941 13.23C15.4474 13.0808 15.8266 13.0027 16.21 13.0001H20.62C20.9205 12.9976 21.2177 13.0628 21.4895 13.1909C21.7613 13.319 22.0007 13.5067 22.19 13.7401C22.3814 13.9707 22.5186 14.2415 22.5913 14.5323C22.664 14.8231 22.6704 15.1265 22.61 15.4201C22.274 17.1249 21.4386 18.6913 20.21 19.9201C18.9864 21.1557 17.4178 21.9923 15.71 22.3201C15.5795 22.3555 15.4452 22.3756 15.31 22.3801ZM16.21 14.4501C15.8148 14.4501 15.4359 14.6071 15.1564 14.8865C14.877 15.1659 14.72 15.5449 14.72 15.9401V20.3601C14.7213 20.4481 14.7417 20.5348 14.7796 20.6142C14.8176 20.6936 14.8723 20.7638 14.94 20.8201C15.009 20.8728 15.0882 20.9106 15.1725 20.9313C15.2568 20.9519 15.3445 20.9549 15.43 20.9401C16.8585 20.6595 18.1711 19.96 19.2005 18.9306C20.2299 17.9012 20.9295 16.5886 21.21 15.1601C21.2244 15.0737 21.22 14.9852 21.1971 14.9006C21.1742 14.8161 21.1334 14.7375 21.0774 14.6701C21.0215 14.6027 20.9516 14.5482 20.8727 14.5102C20.7938 14.4723 20.7076 14.4518 20.62 14.4501H16.21ZM9.80002 22.3301C9.66355 22.3404 9.52649 22.3404 9.39002 22.3301C7.1298 21.8933 5.09215 20.6833 3.6269 18.9078C2.16165 17.1323 1.36023 14.9021 1.36023 12.6001C1.36023 10.298 2.16165 8.06783 3.6269 6.29234C5.09215 4.51684 7.1298 3.30684 9.39002 2.87008C9.70545 2.8115 10.0299 2.82231 10.3407 2.90174C10.6515 2.98118 10.9414 3.12734 11.19 3.33008C11.4391 3.53214 11.6407 3.78645 11.7807 4.07502C11.9206 4.36359 11.9955 4.67938 12 5.00008V20.1701C11.9991 20.4869 11.9288 20.7998 11.794 21.0865C11.6593 21.3733 11.4633 21.6271 11.22 21.8301C10.819 22.1563 10.317 22.333 9.80002 22.3301ZM9.80002 4.23008H9.65002C7.7139 4.59938 5.96719 5.63235 4.71079 7.15104C3.4544 8.66973 2.76699 10.579 2.76699 12.5501C2.76699 14.5211 3.4544 16.4304 4.71079 17.9491C5.96719 19.4678 7.7139 20.5008 9.65002 20.8701C9.75803 20.8922 9.8696 20.8902 9.97676 20.8643C10.0839 20.8383 10.1841 20.7891 10.27 20.7201C10.3529 20.6519 10.4201 20.5665 10.4667 20.4698C10.5133 20.3731 10.5383 20.2674 10.54 20.1601V5.00008C10.5397 4.89393 10.5152 4.78925 10.4684 4.69397C10.4216 4.59868 10.3538 4.51528 10.27 4.45008C10.1486 4.3175 9.97961 4.2384 9.80002 4.23008ZM20.62 11.8801H16.21C15.4425 11.8801 14.7057 11.578 14.1593 11.039C13.6128 10.5 13.3005 9.76756 13.29 9.00008V4.55008C13.2833 4.24804 13.345 3.9484 13.4707 3.67365C13.5963 3.3989 13.7825 3.15618 14.0154 2.96372C14.2483 2.77126 14.5218 2.63406 14.8152 2.56242C15.1087 2.49078 15.4147 2.48656 15.71 2.55008C17.4148 2.8862 18.9811 3.7217 20.2097 4.95036C21.4384 6.17902 22.2739 7.74531 22.61 9.45008C22.6704 9.74368 22.664 10.0471 22.5913 10.3379C22.5186 10.6287 22.3814 10.8994 22.19 11.1301C22.0017 11.3653 21.7627 11.5549 21.4909 11.6848C21.219 11.8146 20.9213 11.8814 20.62 11.8801ZM15.31 4.00008C15.1741 4.00194 15.0431 4.05149 14.94 4.14008C14.8702 4.19441 14.8139 4.26426 14.7757 4.3441C14.7375 4.42395 14.7185 4.51158 14.72 4.60008V9.00008C14.72 9.39525 14.877 9.77424 15.1564 10.0537C15.4359 10.3331 15.8148 10.4901 16.21 10.4901H20.62C20.7085 10.4916 20.7961 10.4726 20.876 10.4344C20.9558 10.3962 21.0257 10.3399 21.08 10.2701C21.1387 10.2044 21.1811 10.1258 21.2036 10.0406C21.2262 9.95549 21.2284 9.86622 21.21 9.78008C20.9294 8.34874 20.2298 7.03307 19.2 6.00008C18.166 4.97908 16.8552 4.28373 15.43 4.00008H15.31Z" fill="#17C653"/>
</svg>
