<svg width="22" height="20" viewBox="0 0 22 20" fill="none" xmlns="http://www.w3.org/2000/svg">
<path d="M21.22 13.9001L14.43 2.14006C14.0747 1.54774 13.5719 1.05755 12.9709 0.717212C12.3698 0.376876 11.6908 0.197998 11 0.197998C10.3093 0.197998 9.63031 0.376876 9.02922 0.717212C8.42813 1.05755 7.92542 1.54774 7.57004 2.14006L0.780038 13.8901C0.442203 14.495 0.267296 15.1773 0.27245 15.8702C0.277604 16.563 0.462642 17.2426 0.809439 17.8425C1.15624 18.4423 1.6529 18.9418 2.25077 19.292C2.84864 19.6421 3.52722 19.831 4.22004 19.8401H17.78C18.3277 19.8424 18.8697 19.7297 19.371 19.5092C19.8723 19.2887 20.3217 18.9653 20.69 18.5601C21.2577 17.938 21.6145 17.1526 21.7097 16.3159C21.8048 15.4791 21.6335 14.6337 21.22 13.9001ZM13.13 2.90006L19.92 14.6601C20.1303 15.0115 20.2479 15.4105 20.2619 15.8197C20.2759 16.229 20.1858 16.6351 20 17.0001L11.79 11.2101V1.78006C12.3594 1.97028 12.8372 2.3661 13.13 2.89006V2.90006ZM2.13004 14.6601L8.87004 2.89006C9.17249 2.35833 9.66583 1.96151 10.25 1.78006V11.2201L2.00004 17.0001C1.81158 16.6341 1.71999 16.226 1.73399 15.8146C1.748 15.4033 1.86713 15.0023 2.08004 14.6501L2.13004 14.6601ZM4.27004 18.3501C3.87744 18.3497 3.49041 18.2572 3.14004 18.0801L8.00004 14.6601L11 12.5301L18.88 18.0801C18.5388 18.2516 18.162 18.3407 17.78 18.3401L4.27004 18.3501Z" fill="#17C653"/>
</svg>
