<svg width="20" height="21" viewBox="0 0 20 21" fill="none" xmlns="http://www.w3.org/2000/svg">
<path d="M7.30684 18.8328V15.9194C7.30682 15.1784 7.90927 14.5763 8.6557 14.5713H11.3899C12.1399 14.5713 12.7478 15.1749 12.7478 15.9194V18.8419C12.7477 19.471 13.2535 19.9853 13.8871 20H15.7099C17.527 20 19 18.5376 19 16.7337V8.44594C18.9903 7.73629 18.6547 7.06988 18.0886 6.63638L11.8547 1.65104C10.7626 0.782988 9.21009 0.782988 8.11797 1.65104L1.91139 6.64543C1.34319 7.07717 1.007 7.74468 1 8.45499V16.7337C1 18.5376 2.47304 20 4.29013 20H6.11291C6.76223 20 7.28861 19.4774 7.28861 18.8328" stroke="white" stroke-width="1.5" stroke-linecap="round" stroke-linejoin="round"/>
</svg>
