<?xml version="1.0" encoding="UTF-8"?>
<!DOCTYPE svg PUBLIC "-//W3C//DTD SVG 1.1//EN" "http://www.w3.org/Graphics/SVG/1.1/DTD/svg11.dtd">
<!-- Creator: CorelDRAW 2021 (64-Bit) -->
<svg xmlns="http://www.w3.org/2000/svg" xml:space="preserve" width="233.536mm" height="101.928mm" version="1.1" style="shape-rendering:geometricPrecision; text-rendering:geometricPrecision; image-rendering:optimizeQuality; fill-rule:evenodd; clip-rule:evenodd"
viewBox="0 0 23353.6 10192.81"
 xmlns:xlink="http://www.w3.org/1999/xlink"
 xmlns:xodm="http://www.corel.com/coreldraw/odm/2003">
 <defs>
  <style type="text/css">
   <![CDATA[
    .fil4 {fill:#5B5B5B}
    .fil3 {fill:#FBD0A0}
    .fil2 {fill:#72B635}
    .fil5 {fill:#3B5725}
    .fil0 {fill:#898989;fill-rule:nonzero}
    .fil6 {fill:#5B5B5B;fill-rule:nonzero}
    .fil1 {fill:#EA5E20;fill-rule:nonzero}
   ]]>
  </style>
 </defs>
 <g id="Layer_x0020_1">
  <metadata id="CorelCorpID_0Corel-Layer"/>
  <g id="_2664254820048">
   <path class="fil0" d="M19813.11 9052.55c19.55,0.33 89.08,1.52 64.37,1.59 866.17,12.72 680.29,9.6 -64.37,-1.59zm980.92 -94.89c-23.85,-0.45 -47.69,-0.89 -71.54,-1.33 23.85,0.44 47.69,0.88 71.54,1.33zm61.38 80.63c0.13,0.02 19.21,0.91 13.66,1.29 11.67,0.07 23.36,0.11 35.06,0.17 69.13,0.23 -39.14,-1.29 -48.72,-1.46zm-1314.4 -61.23c-672.73,-10.3 -1345.75,-16.44 -2018.1,-41.88 1068.75,-21.77 2131.36,-0.89 3199.57,21.15 -3022.69,-63.93 -1594.57,-47.47 148.41,-10.02 -992.08,-20.64 -4707.49,-103.76 -1361.15,-41.35 -2931.06,-91.55 962.16,-9 1550.46,7.41 -4170.52,-126.77 -11322.22,-66.43 -14034.08,825.19 -459.06,150.93 -442.18,534.73 -114.11,440.57 2521.6,-723.78 8901.36,-1097.17 13293.71,-1117.6 -1212.35,-13.87 -1535.61,-23.65 0,0 21.98,0.33 43.94,0.68 65.93,1.01 -200.67,-3.51 -401.37,-6.76 -602.09,-9.71 69.2,0.8 138.76,2.41 207.91,2.31 -1040.57,-28.93 188.92,-20.7 501.93,-15 -2636.97,-52.48 -753.47,-25.99 479.88,0.25 -4.48,-0.68 -9.13,-0.91 -13.67,-1.29 -286.42,-6.28 -3358.16,-80.86 -1304.61,-61.04z"/>
   <path class="fil1" d="M501.64 2586.78l0 -114.16 1826.37 0 0 114.16 -154.32 0c-174.73,0 -301.22,50.72 -380.48,151.14 -50.4,66.56 -76.14,225.13 -76.14,476.65l0 2056.83c0,316.07 -35.35,572.87 -105.04,768.43 -69.69,196.6 -189.68,367.83 -361.19,513.65 -170.44,145.87 -377.26,218.82 -619.49,218.82 -195.1,0 -349.42,-47.59 -461.98,-143.76 -112.52,-96.17 -169.37,-206.12 -169.37,-329.76 0,-101.49 25.74,-177.58 78.24,-229.38 68.61,-64.46 147.92,-96.17 240.12,-96.17 66.42,0 125.41,21.16 178.99,64.45 52.5,43.35 120.04,158.58 200.42,345.64 48.25,110.98 109.34,167.03 184.36,167.03 55.77,0 108.22,-33.86 157.54,-102.52 48.25,-67.68 72.87,-189.22 72.87,-362.55l0 -2870.7c0,-212.42 -13.92,-353.01 -40.73,-420.65 -20.37,-51.79 -64.27,-96.17 -131.81,-133.16 -90.01,-49.7 -184.36,-73.98 -285.06,-73.98l-153.3 0zm2907.83 1761.91c336.58,-396.37 657.04,-595.06 961.44,-595.06 156.47,0 291.55,39.09 404.06,116.25 113.6,77.17 202.58,205.05 270.12,382.63 46.05,124.71 68.56,315 68.56,570.77l0 1213.38c0,178.61 15,299.11 43.95,363.57 22.52,50.73 60.07,90.89 110.42,119.43 51.43,28.54 145.78,43.35 282.96,43.35l0 114.15 -1421.23 0 0 -114.15 59.98 0c132.93,0 226.2,-20.09 279.78,-60.26 52.5,-40.16 90,-99.34 110.37,-176.5 8.59,-30.64 12.89,-127.89 12.89,-289.59l0 -1167.93c0,-258.95 -34.29,-448.16 -101.83,-565.49 -67.53,-117.33 -181.13,-175.44 -341.94,-175.44 -247.55,0 -494.08,134.24 -739.53,403.75l0 1505.11c0,191.31 11.77,308.6 34.33,354.09 29.99,59.18 70.72,102.52 122.14,131.06 51.43,27.46 155.4,41.2 312.99,41.2l0 114.15 -1427.67 0 0 -114.15 63.25 0c146.84,0 245.44,-35.92 296.87,-108.88 51.47,-72.91 77.21,-212.43 77.21,-417.47l0 -1052.75c0,-340.31 -7.52,-547.46 -23.59,-621.49 -16.11,-75.02 -39.65,-125.74 -71.79,-152.18 -32.18,-26.43 -76.13,-40.17 -129.71,-40.17 -58.94,0 -128.63,15.84 -210.09,46.53l-47.13 -114.16 868.16 -348.81 135.03 0 0 595.06z"/>
   <path class="fil1" d="M11246.32 6264.96c-294.77,225.14 -480.2,356.2 -556.28,391.04 -112.57,51.8 -232.61,78.24 -360.12,78.24 -199.4,0 -363.34,-67.64 -492.02,-201.87 -128.59,-134.24 -192.9,-310.75 -192.9,-529.53 0,-138.49 31.06,-258.95 94.3,-359.37 85.8,-140.59 234.75,-272.68 446.99,-397.44 213.27,-123.63 565.91,-274.78 1060.03,-452.36l0 -110.98c0,-282.21 -45.07,-475.62 -136.15,-581.32 -91.13,-104.63 -222.93,-157.5 -396.55,-157.5 -130.78,0 -235.82,34.89 -312.94,105.7 -79.36,69.78 -119.01,150.12 -119.01,241.01l6.4 179.69c0,95.09 -24.62,169.08 -73.94,220.88 -49.28,51.8 -114.67,77.16 -193.98,77.16 -78.28,0 -142.55,-26.44 -191.83,-80.34 -49.32,-53.9 -73.98,-127.89 -73.98,-220.88 0,-177.58 92.15,-341.39 276.56,-490.43 184.35,-149.05 443.72,-223.03 777.07,-223.03 256.15,0 465.16,42.27 629.11,126.86 123.26,63.38 214.39,163.8 273.33,300.14 37.51,87.76 56.8,269.55 56.8,543.31l0 961.8c0,269.51 5.37,435.46 16.07,495.71 10.69,61.28 27.88,101.45 51.47,122.61 24.66,20.08 52.5,30.64 83.56,30.64 34.33,0 63.24,-7.38 88.98,-21.11 43.95,-27.51 128.63,-102.53 255.12,-226.21l0 173.33c-235.79,311.83 -460.87,467.18 -675.26,467.18 -102.94,0 -185.43,-34.9 -246.52,-104.63 -61.1,-70.81 -92.2,-190.24 -94.31,-358.3zm0 -201.87l0 -1079.18c-318.36,123.68 -523.08,211.4 -616.3,263.2 -166.14,90.89 -285.11,184.96 -356.9,284.31 -71.83,99.35 -107.19,207.15 -107.19,324.48 0,149.04 44.98,271.65 136.1,369.92 90.06,98.32 195.06,146.95 312.95,146.95 159.74,0 369.78,-103.6 631.34,-309.68zm2069.63 -1714.4c336.57,-396.37 657.08,-595.06 961.47,-595.06 156.48,0 291.55,39.09 404.07,116.25 113.6,77.17 202.58,205.05 270.07,382.63 46.1,124.71 68.61,315 68.61,570.77l0 1213.38c0,178.61 14.99,299.11 43.95,363.57 22.47,50.73 60.07,90.89 110.37,119.43 51.48,28.54 145.83,43.35 283.01,43.35l0 114.15 -1421.27 0 0 -114.15 60.02 0c132.93,0 226.15,-20.09 279.73,-60.26 52.54,-40.16 90.05,-99.34 110.42,-176.5 8.59,-30.64 12.89,-127.89 12.89,-289.59l0 -1167.93c0,-258.95 -34.29,-448.16 -101.83,-565.49 -67.54,-117.33 -181.13,-175.44 -341.94,-175.44 -247.56,0 -494.13,134.24 -739.57,403.75l0 1505.11c0,191.31 11.81,308.6 34.37,354.09 29.99,59.18 70.72,102.52 122.14,131.06 51.43,27.46 155.4,41.2 312.99,41.2l0 114.15 -1427.67 0 0 -114.15 63.24 0c146.81,0 245.45,-35.92 296.88,-108.88 51.47,-72.91 77.21,-212.43 77.21,-417.47l0 -1052.75c0,-340.31 -7.52,-547.46 -23.59,-621.49 -16.11,-75.02 -39.66,-125.74 -71.84,-152.18 -32.13,-26.43 -76.08,-40.17 -129.66,-40.17 -58.99,0 -128.63,15.84 -210.09,46.53l-47.13 -114.16 868.11 -348.81 135.04 0 0 595.06zm4000.08 1916.27c-294.77,225.14 -480.2,356.2 -556.33,391.04 -112.52,51.8 -232.56,78.24 -360.12,78.24 -199.35,0 -363.34,-67.64 -491.97,-201.87 -128.59,-134.24 -192.9,-310.75 -192.9,-529.53 0,-138.49 31.06,-258.95 94.3,-359.37 85.75,-140.59 234.75,-272.68 446.99,-397.44 213.27,-123.63 565.91,-274.78 1060.03,-452.36l0 -110.98c0,-282.21 -45.07,-475.62 -136.15,-581.32 -91.13,-104.63 -222.93,-157.5 -396.59,-157.5 -130.79,0 -235.78,34.89 -312.95,105.7 -79.31,69.78 -118.96,150.12 -118.96,241.01l6.4 179.69c0,95.09 -24.62,169.08 -73.94,220.88 -49.32,51.8 -114.67,77.16 -194.02,77.16 -78.24,0 -142.51,-26.44 -191.83,-80.34 -49.28,-53.9 -73.99,-127.89 -73.99,-220.88 0,-177.58 92.2,-341.39 276.61,-490.43 184.3,-149.05 443.67,-223.03 777.03,-223.03 256.14,0 465.21,42.27 629.15,126.86 123.26,63.38 214.39,163.8 273.29,300.14 37.55,87.76 56.84,269.55 56.84,543.31l0 961.8c0,269.51 5.37,435.46 16.07,495.71 10.69,61.28 27.83,101.45 51.42,122.61 24.71,20.08 52.55,30.64 83.61,30.64 34.28,0 63.24,-7.38 88.98,-21.11 43.95,-27.51 128.63,-102.53 255.07,-226.21l0 173.33c-235.78,311.83 -460.87,467.18 -675.21,467.18 -102.94,0 -185.43,-34.9 -246.52,-104.63 -61.14,-70.81 -92.2,-190.24 -94.31,-358.3zm0 -201.87l0 -1079.18c-318.36,123.68 -523.08,211.4 -616.3,263.2 -166.14,90.89 -285.11,184.96 -356.94,284.31 -71.79,99.35 -107.15,207.15 -107.15,324.48 0,149.04 44.98,271.65 136.1,369.92 90.06,98.32 195.06,146.95 312.95,146.95 159.69,0 369.78,-103.6 631.34,-309.68zm2088.96 -1702.77c207.95,-207.15 331.16,-326.58 368.71,-358.3 93.23,-78.24 193.98,-139.52 302.2,-182.86 108.27,-43.35 215.47,-65.53 321.59,-65.53 180.05,0 333.35,51.8 463.01,155.4 128.63,103.55 215.42,253.67 258.29,451.29 216.54,-249.42 398.7,-412.2 547.75,-490.44 148.95,-77.16 302.19,-116.25 459.79,-116.25 152.22,0 288.32,39.09 407.29,116.25 117.89,77.17 212.19,204.02 280.85,380.53 46.06,119.43 69.6,307.57 69.6,564.42l0 1221.83c0,176.51 12.89,298.04 39.7,363.57 20.36,44.42 58.94,83.51 113.59,115.23 55.72,31.71 145.78,47.55 271.19,47.55l0 114.15 -1408.38 0 0 -114.15 60.02 0c122.18,0 218.68,-23.26 287.25,-70.81 48.25,-32.79 82.53,-85.62 102.9,-157.5 8.54,-34.89 12.89,-134.24 12.89,-298.04l0 -1220.8c0,-231.44 -27.93,-394.22 -84.68,-489.36 -82.54,-132.14 -213.32,-198.7 -394.45,-198.7 -110.37,0 -222.94,27.47 -335.45,82.44 -111.5,53.9 -247.65,156.43 -407.3,304.4l-6.44 34.89 12.84 133.16 0 1353.97c0,192.34 10.75,312.85 32.14,360.39 22.56,46.53 63.24,86.69 123.31,118.41 60.02,31.71 162.87,47.55 307.57,47.55l0 114.15 -1446.96 0 0 -114.15c157.59,0 265.81,-17.99 324.8,-54.98 58.9,-36.99 99.63,-92.99 122.14,-166.98 10.75,-34.89 16.12,-136.34 16.12,-304.39l0 -1220.8c0,-231.44 -34.29,-398.47 -102.95,-500.99 -92.15,-133.16 -219.71,-199.77 -384.73,-199.77 -112.52,0 -224.01,30.69 -334.43,90.89 -172.53,90.9 -306.54,194.49 -399.77,308.65l0 1522.02c0,184.96 12.85,304.39 38.54,360.39 25.73,54.98 64.36,96.22 115.79,124.76 50.39,27.46 153.24,41.2 308.69,41.2l0 114.15 -1421.27 0 0 -114.15c131.9,0 224.05,-13.74 276.6,-41.2 52.45,-28.54 92.15,-71.88 119.99,-133.21 26.81,-60.25 40.73,-177.54 40.73,-351.94l0 -1084.46c0,-310.7 -9.67,-511.55 -27.84,-602.44 -14.99,-68.71 -37.5,-115.23 -69.68,-140.59 -31.07,-26.39 -73.99,-39.1 -127.56,-39.1 -58.95,0 -128.64,15.84 -210.05,46.53l-47.17 -114.16 868.15 -348.81 135.08 0 0 606.69z"/>
   <path class="fil2" d="M8344.28 8522.94c0.85,-59.62 2.03,-119.1 3.51,-178.46 -1.48,59.36 -2.65,118.84 -3.51,178.46zm3.52 -178.73c93.84,-3742.47 1435.77,-6947.82 3300.06,-8067.01 -1028.09,469.96 -1776.49,1342.44 -2333.39,2341.94 -441.59,792.58 -765.19,1662.98 -1017.02,2530.81 -282.3,972.9 -483.59,1975.05 -636.01,2977.04 -14.27,187.27 127.4,351.07 317.51,366.43 189.55,15.31 355.97,-122.71 373.62,-308.96 -1.85,53.13 -3.44,106.39 -4.78,159.74zm-1178.64 83.78l4.76 0.39c157.62,12.73 298.22,-87.51 339.75,-232.11 -1.78,11.85 -3.53,23.7 -5.28,35.55 155.46,-1049.26 362.81,-2099.84 658.48,-3118.71 254.65,-877.59 582.02,-1757.01 1028.57,-2558.45 283.09,-508.1 614.66,-983.17 1005.32,-1391.85 -427.82,375.27 -804.85,817.11 -1138.82,1302.83 -528.86,769.16 -939.06,1628.58 -1270.56,2496.57 -388.85,1018.15 -682.2,2079.96 -916.73,3144.28 -3.49,165.83 124.6,307.77 294.51,321.5zm-443.52 -275.77c238.65,-1095.57 538.37,-2189.29 938.63,-3237.22 335.31,-877.98 750.31,-1746.55 1285.24,-2524.53 759.15,-1104.1 1737.41,-1983.98 3017.7,-2390.46 -2391.81,389.1 -4931.07,3707 -5945.4,7978.82l-3.84 16.23c-2.6,189.69 144.34,351.59 338.95,367.31 164.63,13.31 312.86,-82.07 372.03,-225.32l-3.31 15.18z"/>
   <path class="fil3" d="M6896.39 9969.37l1458.3 -1484.01 0.17 0.02 0.44 -3.1c-97.14,99.56 -237.14,156.79 -387.42,144.64 -172.23,-13.91 -316.05,-115.49 -389.87,-256.72 -91.99,128.83 -248.53,205.14 -415.18,191.68l-4.76 -0.39c-166.58,-13.46 -306.06,-114.03 -374.3,-253.64 -102.83,128.56 -266.18,201.89 -437.93,188.01 -141.64,-11.44 -265.63,-79.88 -349.68,-181.15l900.23 1654.66z"/>
   <path class="fil4" d="M7403.77 9453.04c-114.78,-99.88 -262.3,-165.49 -426.96,-178.79 -148.6,-12.01 -290.46,20.25 -412.07,85.55l331.64 609.57 507.39 -516.33z"/>
   <path class="fil5" d="M7691.2 3268.02c-653.69,-1317.07 -2059.84,-2186.78 -3631.67,-2103.29 1562.82,215.26 2822.26,1364.34 3179.84,2857.04 141.64,-257.83 292.25,-509.63 451.83,-753.76z"/>
   <path class="fil6" d="M9675.26 8179.6l0 -592.91 127.47 0 0 592.91 -127.47 0zm1023.51 0l-161.94 0 -261.65 -448.58 -3.65 0c5.23,79.31 7.9,135.78 7.9,169.55l0 279.03 -113.97 0 0 -592.91 160.86 0 261 444.15 2.99 0c-4.2,-77.12 -6.21,-131.63 -6.21,-163.48l0 -280.67 114.67 0 0 592.91zm896.04 0l-161.93 0 -261.61 -448.58 -3.69 0c5.23,79.31 7.89,135.78 7.89,169.55l0 279.03 -113.97 0 0 -592.91 160.86 0 261.01 444.15 2.99 0c-4.21,-77.12 -6.22,-131.63 -6.22,-163.48l0 -280.67 114.67 0 0 592.91zm908.42 -297.16c0,98.28 -24.57,173.71 -73.98,226.44 -49.37,52.74 -120.09,79.03 -212.2,79.03 -92.06,0 -162.77,-26.29 -212.19,-79.03 -49.42,-52.73 -73.99,-128.44 -73.99,-227.14 0,-98.64 24.71,-174.08 74.27,-226.16 49.42,-52.03 120.41,-78.04 212.75,-78.04 92.39,0 163.11,26.15 211.92,78.61 48.99,52.45 73.42,127.88 73.42,226.29zm-438.73 0c0,66.28 12.8,116.12 38.16,149.75 25.55,33.49 63.71,50.26 114.39,50.26 101.73,0 152.55,-66.7 152.55,-200.01 0,-133.53 -50.54,-200.28 -151.71,-200.28 -50.82,0 -88.98,16.91 -114.8,50.54 -25.65,33.63 -38.59,83.61 -38.59,149.74zm1109.36 -295.75l128.73 0 -204.35 592.91 -139.1 0 -203.92 -592.91 128.68 0 113.17 352.78c6.31,20.88 12.75,45.12 19.48,72.82 6.77,27.79 10.98,47.04 12.61,57.83 2.94,-24.9 13.22,-68.38 30.73,-130.65l113.97 -352.78zm750.13 592.91l-43.67 -141.15 -219.2 0 -43.54 141.15 -137.41 0 212.19 -595.43 155.82 0 213.08 595.43 -137.27 0zm-74.13 -246.62c-40.26,-127.88 -63.01,-200.28 -68.05,-217.05 -5.09,-16.72 -8.74,-30.03 -10.79,-39.7 -9.16,34.61 -35.13,120.13 -77.77,256.75l156.61 0zm671.52 246.62l-127.42 0 0 -488.28 -163.24 0 0 -104.63 453.86 0 0 104.63 -163.2 0 0 488.28zm467.26 0l0 -592.91 127.47 0 0 592.91 -127.47 0zm833.22 -592.91l128.68 0 -204.34 592.91 -139.1 0 -203.92 -592.91 128.72 0 113.13 352.78c6.3,20.88 12.75,45.12 19.48,72.82 6.77,27.79 10.97,47.04 12.65,57.83 2.95,-24.9 13.22,-68.38 30.74,-130.65l113.96 -352.78zm761.85 592.91l-346.24 0 0 -592.91 346.24 0 0 102.94 -218.78 0 0 130.41 203.51 0 0 102.95 -203.51 0 0 152.82 218.78 0 0 103.79zm1090.86 0l0 -592.91 127.47 0 0 489.12 243.91 0 0 103.79 -371.38 0zm1033.46 0l-346.25 0 0 -592.91 346.25 0 0 102.94 -218.78 0 0 130.41 203.51 0 0 102.95 -203.51 0 0 152.82 218.78 0 0 103.79zm704.91 0l-43.67 -141.15 -219.2 0 -43.53 141.15 -137.37 0 212.2 -595.43 155.77 0 213.08 595.43 -137.28 0zm-74.12 -246.62c-40.26,-127.88 -62.96,-200.28 -68.06,-217.05 -5.04,-16.72 -8.68,-30.03 -10.78,-39.7 -9.16,34.61 -35.08,120.13 -77.77,256.75l156.61 0zm625.93 -83.04l41.15 0c40.26,0 70.01,-6.64 89.12,-19.95 19.19,-13.12 28.77,-34.05 28.77,-62.4 0,-28.12 -9.81,-48.2 -29.33,-60.07 -19.67,-11.91 -49.98,-17.89 -91.08,-17.89l-38.63 0 0 160.31zm0 102.15l0 227.51 -127.47 0 0 -592.91 175.2 0c81.7,0 142.04,14.67 181.18,44 39.28,29.33 58.81,73.89 58.81,133.58 0,34.85 -9.67,65.86 -29.19,93.14 -19.39,27.14 -46.9,48.44 -82.49,63.8 90.33,133.26 149.28,219.48 176.65,258.39l-141.48 0 -143.44 -227.51 -67.77 0zm1173.25 227.51l-161.94 0 -261.65 -448.58 -3.65 0c5.19,79.31 7.85,135.78 7.85,169.55l0 279.03 -113.97 0 0 -592.91 160.87 0 261.05 444.15 2.99 0c-4.26,-77.12 -6.22,-131.63 -6.22,-163.48l0 -280.67 114.67 0 0 592.91zm362.73 0l0 -592.91 127.42 0 0 592.91 -127.42 0zm1023.51 0l-161.98 0 -261.61 -448.58 -3.65 0c5.19,79.31 7.85,135.78 7.85,169.55l0 279.03 -113.97 0 0 -592.91 160.87 0 261 444.15 2.99 0c-4.21,-77.12 -6.21,-131.63 -6.21,-163.48l0 -280.67 114.71 0 0 592.91zm590.9 -332.98l238.49 0 0 307.66c-38.77,12.43 -75.11,21.16 -109.25,26.16 -34.1,4.95 -69.03,7.47 -104.67,7.47 -90.66,0 -159.84,-26.29 -207.71,-78.89 -47.88,-52.59 -71.74,-128.02 -71.74,-226.44 0,-95.75 27.69,-170.39 83.23,-223.91 55.49,-53.58 132.37,-80.29 230.78,-80.29 61.75,0 121.26,12.19 178.52,36.52l-42.41 100.52c-43.77,-21.63 -89.45,-32.42 -136.86,-32.42 -55.16,0 -99.2,18.27 -132.32,54.84 -33.3,36.38 -49.84,85.52 -49.84,147.08 0,64.36 13.32,113.5 40.13,147.41 26.67,33.91 65.57,50.96 116.53,50.96 26.53,0 53.62,-2.8 80.95,-8.18l0 -123.86 -113.83 0 0 -104.63z"/>
  </g>
 </g>
</svg>
