<svg width="24" height="25" viewBox="0 0 24 25" fill="none" xmlns="http://www.w3.org/2000/svg">
<g clip-path="url(#clip0_3825_4839)">
<path d="M12.6154 19.1225V21.9H16.9231C17.2615 21.9 17.5385 22.1475 17.5385 22.45C17.5385 22.7525 17.2615 23 16.9231 23H7.07692C6.73846 23 6.46154 22.7525 6.46154 22.45C6.46154 22.1475 6.73846 21.9 7.07692 21.9H11.3846V19.1225C7.26154 18.8475 4 15.74 4 12C4 11.6975 4.27692 11.45 4.61538 11.45C4.95385 11.45 5.23077 11.6975 5.23077 12C5.23077 15.3275 8.27692 18.05 12 18.05C15.7231 18.05 18.7692 15.3275 18.7692 12C18.7692 11.6975 19.0462 11.45 19.3846 11.45C19.7231 11.45 20 11.6975 20 12C20 15.7675 16.7385 18.8475 12.6154 19.1225ZM16.6154 5.125V12C16.6154 14.2825 14.5538 16.125 12 16.125C9.44615 16.125 7.38462 14.2825 7.38462 12V5.125C7.38462 2.8425 9.44615 1 12 1C14.5538 1 16.6154 2.8425 16.6154 5.125ZM15.3846 5.125C15.3846 3.4475 13.8769 2.1 12 2.1C10.1231 2.1 8.61538 3.4475 8.61538 5.125V12C8.61538 13.6775 10.1231 15.025 12 15.025C13.8769 15.025 15.3846 13.6775 15.3846 12V5.125Z" fill="white"/>
<path d="M385.241 -219.444V341.889H-256.999V-219.444H385.241ZM388.121 -222.111H-259.879V344.556H388.121V-222.111Z" fill="#0000FF"/>
</g>
<defs>
<clipPath id="clip0_3825_4839">
<rect width="24" height="25" fill="white"/>
</clipPath>
</defs>
</svg>
