<svg width="22" height="23" viewBox="0 0 22 23" fill="none" xmlns="http://www.w3.org/2000/svg">
<path d="M18.9393 13.5166C18.1823 12.378 17.795 11.0335 17.8301 9.66664V9.52914C17.8279 8.0877 17.2902 6.69851 16.3212 5.63132C15.3523 4.56413 14.0213 3.8951 12.5868 3.75414V2.68164C12.5868 2.4993 12.5144 2.32444 12.3854 2.1955C12.2565 2.06657 12.0816 1.99414 11.8993 1.99414C11.717 1.99414 11.5421 2.06657 11.4132 2.1955C11.2842 2.32444 11.2118 2.4993 11.2118 2.68164V3.79081C10.6995 3.85027 10.1971 3.97663 9.71762 4.16664C8.66599 4.60516 7.77104 5.3506 7.14962 6.30562C6.5282 7.26064 6.20921 8.38085 6.23429 9.51997C6.24554 10.9709 5.78555 12.3862 4.92346 13.5533L4.30929 14.3966C4.01818 14.7869 3.8415 15.2505 3.79905 15.7355C3.7566 16.2206 3.85004 16.7078 4.06892 17.1427C4.2878 17.5776 4.62347 17.943 5.0383 18.1979C5.45313 18.4528 5.93075 18.5871 6.41762 18.5858H9.42429V18.8883C9.50551 19.481 9.79863 20.0242 10.2494 20.4174C10.7002 20.8106 11.2782 21.0273 11.8764 21.0273C12.4746 21.0273 13.0525 20.8106 13.5033 20.4174C13.9541 20.0242 14.2472 19.481 14.3285 18.8883V18.5858H17.4176C17.8959 18.5792 18.3637 18.444 18.7718 18.1945C19.18 17.945 19.5135 17.5903 19.7375 17.1676C19.9615 16.7449 20.0677 16.2698 20.045 15.792C20.0223 15.3141 19.8715 14.8512 19.6085 14.4516L18.9393 13.5166ZM12.981 18.7325C12.9293 18.9824 12.7931 19.2069 12.5952 19.3681C12.3973 19.5293 12.1499 19.6173 11.8947 19.6173C11.6395 19.6173 11.3921 19.5293 11.1942 19.3681C10.9963 19.2069 10.8601 18.9824 10.8085 18.7325V18.5858H12.981V18.7325ZM17.4176 17.2108H6.41762C6.18594 17.21 5.95901 17.1451 5.76193 17.0233C5.56484 16.9015 5.40529 16.7276 5.30092 16.5207C5.19655 16.3139 5.15143 16.0822 5.17056 15.8513C5.18969 15.6204 5.27231 15.3993 5.40929 15.2125L6.03262 14.3691C7.07772 12.946 7.63116 11.2213 7.60929 9.45581C7.5973 8.60522 7.83955 7.77042 8.30499 7.05837C8.77043 6.34633 9.43787 5.78947 10.2218 5.45914C10.805 5.22676 11.4273 5.10851 12.0551 5.11081C12.6372 5.10597 13.2145 5.21644 13.7537 5.43585C14.2929 5.65527 14.7833 5.97927 15.1966 6.38919C15.6099 6.7991 15.938 7.2868 16.1619 7.82415C16.3857 8.3615 16.501 8.93786 16.501 9.51997V9.66664C16.4766 11.2942 16.943 12.8913 17.8393 14.25L18.4626 15.1666C18.6069 15.3869 18.6804 15.6459 18.6735 15.9091C18.6796 16.0779 18.6517 16.2461 18.5913 16.4038C18.531 16.5615 18.4395 16.7054 18.3222 16.8269C18.205 16.9484 18.0645 17.0451 17.909 17.111C17.7536 17.177 17.5865 17.2109 17.4176 17.2108V17.2108Z" fill="white"/>
</svg>
