<svg width="22" height="22" viewBox="0 0 22 22" fill="none" xmlns="http://www.w3.org/2000/svg">
<path d="M11.18 14.4901C10.4383 14.4901 9.71329 14.2701 9.09661 13.8581C8.47992 13.446 7.99928 12.8604 7.71545 12.1751C7.43162 11.4899 7.35736 10.7359 7.50205 10.0085C7.64675 9.28106 8.0039 8.61287 8.52835 8.08842C9.05279 7.56398 9.72098 7.20682 10.4484 7.06213C11.1758 6.91743 11.9298 6.9917 12.6151 7.27553C13.3003 7.55935 13.886 8.04 14.298 8.65669C14.7101 9.27337 14.93 9.99839 14.93 10.7401C14.93 11.2325 14.833 11.7202 14.6445 12.1751C14.4561 12.6301 14.1799 13.0435 13.8316 13.3917C13.4834 13.7399 13.07 14.0162 12.6151 14.2046C12.1601 14.3931 11.6725 14.4901 11.18 14.4901ZM11.18 8.36007C10.7093 8.36007 10.2491 8.49966 9.85774 8.76118C9.46635 9.02269 9.1613 9.3944 8.98116 9.82929C8.80103 10.2642 8.75389 10.7427 8.84573 11.2044C8.93756 11.6661 9.16423 12.0901 9.49708 12.423C9.82993 12.7558 10.254 12.9825 10.7157 13.0743C11.1774 13.1662 11.6559 13.119 12.0908 12.9389C12.5257 12.7588 12.8974 12.4537 13.1589 12.0623C13.4204 11.6709 13.56 11.2108 13.56 10.7401C13.56 10.1089 13.3092 9.5035 12.8629 9.05716C12.4166 8.61082 11.8112 8.36007 11.18 8.36007ZM11.18 21.7901C8.57 21.7901 6.52 20.3801 6.52 18.5801C6.52 16.7801 8.57 15.3701 11.18 15.3701C13.79 15.3701 15.84 16.7801 15.84 18.5801C15.84 20.3801 13.79 21.7901 11.18 21.7901ZM11.18 16.7901C9.27 16.7901 7.93999 17.7301 7.93999 18.5801C7.93999 19.4301 9.27 20.3701 11.18 20.3701C13.09 20.3701 14.42 19.4201 14.42 18.5801C14.42 17.7401 13.09 16.7901 11.18 16.7901ZM16.18 6.99007C15.5108 6.98415 14.8584 6.78031 14.3049 6.40423C13.7513 6.02815 13.3215 5.49666 13.0695 4.87672C12.8175 4.25678 12.7547 3.57613 12.8888 2.92052C13.023 2.26491 13.3482 1.66368 13.8235 1.19258C14.2988 0.721475 14.9028 0.401575 15.5596 0.273184C16.2164 0.144793 16.8964 0.213656 17.5141 0.471095C18.1318 0.728534 18.6595 1.16303 19.0307 1.71985C19.4019 2.27666 19.6 2.93088 19.6 3.60007C19.6013 4.0461 19.5146 4.48799 19.3448 4.90044C19.175 5.31289 18.9256 5.68778 18.6106 6.00363C18.2957 6.31948 17.9216 6.57008 17.5096 6.74107C17.0977 6.91206 16.656 7.00008 16.21 7.00007L16.18 6.99007ZM16.18 1.63007C15.7844 1.63007 15.3978 1.74737 15.0689 1.96713C14.74 2.1869 14.4836 2.49925 14.3322 2.86471C14.1809 3.23016 14.1413 3.63229 14.2184 4.02025C14.2956 4.40822 14.4861 4.76458 14.7658 5.04429C15.0455 5.32399 15.4019 5.51447 15.7898 5.59164C16.1778 5.66881 16.5799 5.62921 16.9454 5.47783C17.3108 5.32646 17.6232 5.07011 17.8429 4.74121C18.0627 4.41232 18.18 4.02564 18.18 3.63007C18.1801 3.1048 17.9735 2.60058 17.6049 2.22636C17.2362 1.85214 16.7352 1.63795 16.21 1.63007H16.18ZM6.12 7.00007C5.44994 7.00007 4.79492 6.8015 4.23766 6.42944C3.68039 6.05738 3.24588 5.52853 2.98901 4.90967C2.73214 4.29081 2.66442 3.60971 2.79442 2.95239C2.92442 2.29507 3.24629 1.69101 3.71939 1.21651C4.19249 0.742019 4.79559 0.418367 5.45253 0.286436C6.10947 0.154505 6.79076 0.220213 7.41038 0.475261C8.02999 0.73031 8.56013 1.16326 8.93382 1.71942C9.30752 2.27559 9.50802 2.93002 9.51 3.60007C9.51131 4.0461 9.4246 4.48799 9.25482 4.90044C9.08505 5.31289 8.83555 5.68778 8.52063 6.00363C8.20571 6.31948 7.83155 6.57008 7.41961 6.74107C7.00766 6.91206 6.56602 7.00008 6.12 7.00007ZM6.12 1.64007C5.72443 1.64007 5.33775 1.75737 5.00885 1.97713C4.67996 2.1969 4.42361 2.50925 4.27224 2.87471C4.12086 3.24016 4.08125 3.64229 4.15842 4.03025C4.2356 4.41822 4.42608 4.77458 4.70578 5.05429C4.98549 5.33399 5.34185 5.52447 5.72981 5.60164C6.11778 5.67881 6.51991 5.63921 6.88536 5.48783C7.25081 5.33646 7.56317 5.08011 7.78293 4.75121C8.0027 4.42232 8.12 4.03564 8.12 3.64007C8.12131 3.37659 8.07055 3.11544 7.97063 2.87164C7.87072 2.62783 7.7236 2.40617 7.53776 2.21939C7.35191 2.03261 7.13098 1.8844 6.88768 1.78327C6.64437 1.68213 6.38348 1.63007 6.12 1.63007V1.64007ZM21.12 10.9401C21.12 9.09007 18.89 7.64007 16.05 7.64007C15.949 7.62811 15.8466 7.63768 15.7496 7.66814C15.6526 7.69861 15.5631 7.74929 15.4871 7.81684C15.411 7.88439 15.3502 7.96728 15.3085 8.06005C15.2668 8.15283 15.2453 8.25337 15.2453 8.35507C15.2453 8.45677 15.2668 8.55732 15.3085 8.65009C15.3502 8.74287 15.411 8.82576 15.4871 8.89331C15.5631 8.96086 15.6526 9.01154 15.7496 9.042C15.8466 9.07247 15.949 9.08204 16.05 9.07007C18.19 9.07007 19.69 10.0701 19.69 10.9401C19.69 11.8101 18.19 12.8201 16.05 12.8201C15.8617 12.8201 15.6811 12.8949 15.5479 13.028C15.4148 13.1612 15.34 13.3418 15.34 13.5301C15.34 13.7184 15.4148 13.899 15.5479 14.0321C15.6811 14.1653 15.8617 14.2401 16.05 14.2401C18.9 14.2301 21.13 12.7901 21.13 10.9301L21.12 10.9401ZM6.66 13.3701C6.66 13.276 6.64131 13.1828 6.60501 13.096C6.5687 13.0092 6.51551 12.9305 6.44852 12.8645C6.38153 12.7984 6.30207 12.7463 6.21477 12.7112C6.12747 12.6761 6.03407 12.6587 5.94 12.6601C3.8 12.6601 2.3 11.6601 2.3 10.7801C2.3 9.90007 3.8 8.91007 5.94 8.91007C6.04099 8.92204 6.14337 8.91247 6.2404 8.882C6.33743 8.85154 6.42691 8.80086 6.50293 8.73331C6.57896 8.66576 6.63981 8.58286 6.68148 8.49009C6.72316 8.39732 6.7447 8.29677 6.7447 8.19507C6.7447 8.09337 6.72316 7.99283 6.68148 7.90005C6.63981 7.80728 6.57896 7.72439 6.50293 7.65684C6.42691 7.58929 6.33743 7.53861 6.2404 7.50814C6.14337 7.47768 6.04099 7.46811 5.94 7.48007C3.1 7.48007 0.869995 8.93007 0.869995 10.7801C0.869995 12.6301 3.1 14.0801 5.94 14.0801C6.03407 14.0814 6.12747 14.064 6.21477 14.0289C6.30207 13.9938 6.38153 13.9418 6.44852 13.8757C6.51551 13.8096 6.5687 13.7309 6.60501 13.6441C6.64131 13.5573 6.66 13.4642 6.66 13.3701Z" fill="#17C653"/>
</svg>
