<svg width="22" height="22" viewBox="0 0 22 22" fill="none" xmlns="http://www.w3.org/2000/svg">
<path d="M20.37 8.11V4.83C20.3754 3.62405 19.9028 2.46509 19.0557 1.60675C18.2086 0.748401 17.056 0.260567 15.85 0.25H4.78004C3.57239 0.257934 2.4172 0.744608 1.56795 1.60324C0.718686 2.46187 0.244721 3.62233 0.250044 4.83V11.83C0.244721 13.0377 0.718686 14.1981 1.56795 15.0568C2.4172 15.9154 3.57239 16.4021 4.78004 16.41H10.31H10.38V18.32H6.28004C6.08113 18.32 5.89037 18.399 5.74971 18.5397C5.60906 18.6803 5.53004 18.8711 5.53004 19.07C5.53004 19.2689 5.60906 19.4597 5.74971 19.6003C5.89037 19.741 6.08113 19.82 6.28004 19.82H10.35C10.3932 19.8257 10.4369 19.8257 10.48 19.82C10.6333 20.3909 10.9697 20.8958 11.4375 21.2571C11.9054 21.6184 12.4789 21.8161 13.07 21.82H19.07C19.4333 21.8177 19.7923 21.7421 20.1256 21.5978C20.4589 21.4534 20.7597 21.2433 21.0099 20.98C21.2601 20.7168 21.4546 20.4057 21.5818 20.0655C21.709 19.7252 21.7662 19.3629 21.75 19V10.47C21.7498 9.98962 21.6219 9.51792 21.3794 9.10323C21.137 8.68854 20.7886 8.34576 20.37 8.11ZM10.37 10.47V14.89H4.78004C3.97545 14.8742 3.20945 14.5422 2.64795 13.9657C2.08644 13.3892 1.77463 12.6147 1.78004 11.81V4.81C1.77463 4.00527 2.08644 3.2308 2.64795 2.65432C3.20945 2.07784 3.97545 1.74576 4.78004 1.73H15.85C16.2508 1.72986 16.6476 1.81002 17.0169 1.96577C17.3862 2.12151 17.7205 2.34967 18.0002 2.63677C18.2798 2.92388 18.4991 3.26411 18.6451 3.63737C18.791 4.01063 18.8607 4.40935 18.85 4.81V7.75H13.05C12.3365 7.76053 11.656 8.05206 11.1561 8.5613C10.6562 9.07055 10.3773 9.75641 10.38 10.47H10.37ZM20.25 19C20.2527 19.3166 20.1302 19.6213 19.9092 19.848C19.6882 20.0746 19.3866 20.2047 19.07 20.21H13.07C12.9125 20.2087 12.7567 20.1764 12.6116 20.1148C12.4665 20.0533 12.3349 19.9638 12.2244 19.8515C12.1139 19.7391 12.0266 19.6061 11.9676 19.46C11.9085 19.3139 11.8787 19.1576 11.88 19V10.47C11.8774 10.1508 12.0009 9.84346 12.2238 9.61495C12.4467 9.38644 12.7509 9.25527 13.07 9.25H19.07C19.2276 9.2526 19.3832 9.28623 19.5278 9.34895C19.6724 9.41168 19.8032 9.50227 19.9128 9.61557C20.0223 9.72886 20.1085 9.86263 20.1664 10.0092C20.2243 10.1558 20.2527 10.3124 20.25 10.47V19Z" fill="white"/>
</svg>
