<svg width="21" height="21" viewBox="0 0 21 21" fill="none" xmlns="http://www.w3.org/2000/svg">
<path d="M19.9514 10.5H17.7408C17.4476 10.5 17.1665 10.6054 16.9592 10.7929C16.7519 10.9804 16.6355 11.2348 16.6355 11.5C16.6355 11.7652 16.7519 12.0196 16.9592 12.2071C17.1665 12.3946 17.4476 12.5 17.7408 12.5V14.5H16.4318C16.5629 14.1798 16.6318 13.8415 16.6355 13.5C16.6356 12.8396 16.3948 12.1976 15.9505 11.6736C15.5062 11.1497 14.8831 10.773 14.178 10.6021C13.4729 10.4313 12.7252 10.4757 12.0509 10.7285C11.3765 10.9813 10.8133 11.4285 10.4485 12.0005C10.3752 12.1143 10.3275 12.24 10.3081 12.3705C10.2887 12.5011 10.298 12.6338 10.3354 12.761C10.3728 12.8883 10.4377 13.0076 10.5262 13.1121C10.6148 13.2166 10.7252 13.3043 10.8513 13.3701C10.9774 13.4359 11.1166 13.4785 11.261 13.4954C11.4053 13.5124 11.5519 13.5034 11.6924 13.469C11.8329 13.4346 11.9645 13.3754 12.0796 13.2948C12.1948 13.2142 12.2912 13.1139 12.3633 12.9995C12.4604 12.8477 12.5998 12.7217 12.7677 12.6341C12.9355 12.5464 13.1259 12.5002 13.3196 12.5C13.6128 12.5 13.8939 12.6054 14.1012 12.7929C14.3085 12.9804 14.4249 13.2348 14.4249 13.5C14.4249 13.7652 14.3085 14.0196 14.1012 14.2071C13.8939 14.3946 13.6128 14.5 13.3196 14.5C13.0265 14.5 12.7454 14.6054 12.5381 14.7929C12.3308 14.9804 12.2144 15.2348 12.2144 15.5C12.2144 15.7652 12.3308 16.0196 12.5381 16.2071C12.7454 16.3946 13.0265 16.5 13.3196 16.5C13.6128 16.5 13.8939 16.6054 14.1012 16.7929C14.3085 16.9804 14.4249 17.2348 14.4249 17.5C14.4249 17.7652 14.3085 18.0196 14.1012 18.2071C13.8939 18.3946 13.6128 18.5 13.3196 18.5C13.1259 18.4998 12.9355 18.4536 12.7677 18.3659C12.5998 18.2783 12.4604 18.1522 12.3633 18.0005C12.2912 17.8861 12.1948 17.7858 12.0796 17.7052C11.9645 17.6246 11.8329 17.5654 11.6924 17.531C11.5519 17.4966 11.4053 17.4876 11.261 17.5045C11.1166 17.5215 10.9774 17.5641 10.8513 17.6299C10.7253 17.6957 10.6148 17.7834 10.5262 17.8879C10.4377 17.9924 10.3728 18.1117 10.3354 18.239C10.298 18.3662 10.2887 18.4989 10.3081 18.6294C10.3275 18.76 10.3752 18.8857 10.4485 18.9995C10.8133 19.5715 11.3766 20.0186 12.0509 20.2715C12.7252 20.5243 13.4729 20.5687 14.178 20.3978C14.8831 20.2269 15.5061 19.8503 15.9505 19.3264C16.3948 18.8024 16.6356 18.1604 16.6355 17.5C16.6318 17.1585 16.5629 16.8202 16.4318 16.5H17.7408V19.5C17.7408 19.7652 17.8572 20.0196 18.0645 20.2071C18.2718 20.3946 18.5529 20.5 18.8461 20.5C19.1392 20.5 19.4203 20.3946 19.6276 20.2071C19.8349 20.0196 19.9514 19.7652 19.9514 19.5V12.5C20.2445 12.5 20.5256 12.3946 20.7329 12.2071C20.9402 12.0196 21.0566 11.7652 21.0566 11.5C21.0566 11.2348 20.9402 10.9804 20.7329 10.7929C20.5256 10.6054 20.2445 10.5 19.9514 10.5ZM6.72141 9.74268C6.79255 9.99987 6.9737 10.221 7.225 10.3573C7.34944 10.4248 7.48735 10.4695 7.63087 10.4888C7.77439 10.5081 7.92071 10.5016 8.06146 10.4697C8.20221 10.4379 8.33465 10.3812 8.45121 10.303C8.56777 10.2249 8.66617 10.1267 8.74079 10.0141C8.81541 9.90152 8.86479 9.77674 8.88611 9.6469C8.90743 9.51705 8.90028 9.38467 8.86505 9.25733L6.92324 2.22755C6.78695 1.73411 6.47224 1.29607 6.02917 0.983046C5.58609 0.670026 5.04007 0.5 4.47791 0.5C3.91576 0.5 3.36973 0.670026 2.92666 0.983046C2.48358 1.29607 2.16887 1.73411 2.03258 2.22755L0.0896975 9.25733C0.0185583 9.51451 0.0632568 9.78673 0.213959 10.0141C0.364662 10.2415 0.609024 10.4054 0.893289 10.4697C1.17755 10.5341 1.47844 10.4937 1.72975 10.3573C1.98105 10.221 2.1622 9.99987 2.23334 9.74268L2.85318 7.5H6.10191L6.72141 9.74268ZM3.40595 5.5L4.17622 2.7129C4.19958 2.65763 4.24092 2.61008 4.29479 2.57654C4.34866 2.54299 4.41252 2.52503 4.47791 2.52503C4.54331 2.52503 4.60716 2.54299 4.66103 2.57654C4.7149 2.61008 4.75624 2.65763 4.7796 2.7129L5.54946 5.5H3.40595ZM12.2144 5.5H13.3196C13.6127 5.50027 13.8937 5.60571 14.1009 5.79319C14.3081 5.98067 14.4246 6.23487 14.4249 6.5V7.5C14.4249 7.76522 14.5414 8.01958 14.7487 8.20711C14.9559 8.39465 15.2371 8.5 15.5302 8.5C15.8234 8.5 16.1045 8.39465 16.3118 8.20711C16.5191 8.01958 16.6355 7.76522 16.6355 7.5V6.5C16.6345 5.70462 16.2849 4.94206 15.6632 4.37964C15.0416 3.81722 14.1988 3.50087 13.3196 3.50001H12.2144C11.9212 3.50001 11.6401 3.60536 11.4328 3.7929C11.2255 3.98043 11.1091 4.23479 11.1091 4.5C11.1091 4.76522 11.2255 5.01958 11.4328 5.20711C11.6401 5.39465 11.9212 5.5 12.2144 5.5ZM7.79322 14.5H6.68794C6.39489 14.4997 6.11392 14.3943 5.90671 14.2068C5.69949 14.0193 5.58295 13.7651 5.58265 13.5V12.5C5.58265 12.2348 5.4662 11.9804 5.25892 11.7929C5.05164 11.6054 4.77051 11.5 4.47737 11.5C4.18423 11.5 3.9031 11.6054 3.69581 11.7929C3.48853 11.9804 3.37208 12.2348 3.37208 12.5V13.5C3.37304 14.2954 3.7227 15.0579 4.34434 15.6204C4.96597 16.1828 5.80881 16.4991 6.68794 16.5H7.79322C8.08636 16.5 8.3675 16.3946 8.57478 16.2071C8.78206 16.0196 8.89851 15.7652 8.89851 15.5C8.89851 15.2348 8.78206 14.9804 8.57478 14.7929C8.3675 14.6054 8.08636 14.5 7.79322 14.5Z" fill="#EA5E20"/>
</svg>
