<svg width="22" height="23" viewBox="0 0 22 23" fill="none" xmlns="http://www.w3.org/2000/svg">
<path d="M15.05 22.25H7.00005C5.22391 22.2474 3.52127 21.5406 2.26535 20.2847C1.00943 19.0288 0.302691 17.3261 0.300046 15.55V7.5C0.294777 6.61631 0.464116 5.74028 0.79834 4.92222C1.13256 4.10416 1.62509 3.36017 2.24764 2.73298C2.87018 2.10578 3.61049 1.60774 4.42604 1.26745C5.2416 0.927149 6.11634 0.751301 7.00005 0.75H15.1C16.8762 0.765851 18.5736 1.48528 19.8201 2.75059C21.0667 4.01589 21.7607 5.72383 21.75 7.5V15.6C21.7342 17.3675 21.0217 19.0573 19.7672 20.3024C18.5127 21.5476 16.8176 22.2474 15.05 22.25ZM7.00005 2.25C6.30875 2.24332 5.62306 2.37455 4.98308 2.63603C4.34311 2.8975 3.76169 3.28396 3.27285 3.7728C2.784 4.26165 2.39754 4.84306 2.13607 5.48304C1.8746 6.12301 1.74337 6.8087 1.75005 7.5V15.6C1.75658 16.2829 1.89756 16.9578 2.16494 17.5862C2.43232 18.2146 2.82086 18.7842 3.30838 19.2624C3.79589 19.7406 4.37283 20.1181 5.00625 20.3734C5.63967 20.6286 6.31716 20.7566 7.00005 20.75H15.1C16.4784 20.7474 17.7995 20.1987 18.7741 19.224C19.7487 18.2494 20.2974 16.9283 20.3 15.55V7.5C20.2974 6.12169 19.7487 4.80058 18.7741 3.82596C17.7995 2.85135 16.4784 2.30264 15.1 2.3L7.00005 2.25ZM17.67 7.42C17.67 7.22109 17.591 7.03032 17.4504 6.88967C17.3097 6.74902 17.119 6.67 16.92 6.67H5.08005C4.88113 6.67 4.69037 6.74902 4.54972 6.88967C4.40906 7.03032 4.33005 7.22109 4.33005 7.42C4.33005 7.61891 4.40906 7.80968 4.54972 7.95033C4.69037 8.09098 4.88113 8.17 5.08005 8.17H16.92C17.1182 8.16741 17.3074 8.08756 17.4475 7.94747C17.5876 7.80737 17.6675 7.61811 17.67 7.42ZM17.67 11.42C17.67 11.2211 17.591 11.0303 17.4504 10.8897C17.3097 10.749 17.119 10.67 16.92 10.67H5.08005C4.88113 10.67 4.69037 10.749 4.54972 10.8897C4.40906 11.0303 4.33005 11.2211 4.33005 11.42C4.33005 11.6189 4.40906 11.8097 4.54972 11.9503C4.69037 12.091 4.88113 12.17 5.08005 12.17H16.92C17.1182 12.1674 17.3074 12.0876 17.4475 11.9475C17.5876 11.8074 17.6675 11.6181 17.67 11.42ZM17.67 15.47C17.67 15.2711 17.591 15.0803 17.4504 14.9397C17.3097 14.799 17.119 14.72 16.92 14.72H5.08005C4.88113 14.72 4.69037 14.799 4.54972 14.9397C4.40906 15.0803 4.33005 15.2711 4.33005 15.47C4.33005 15.6689 4.40906 15.8597 4.54972 16.0003C4.69037 16.141 4.88113 16.22 5.08005 16.22H16.92C17.1131 16.2177 17.2981 16.142 17.4374 16.0083C17.5767 15.8746 17.6599 15.6928 17.67 15.5V15.47Z" fill="#EA5E20"/>
</svg>
