<svg width="16" height="22" viewBox="0 0 16 22" fill="none" xmlns="http://www.w3.org/2000/svg">
<path d="M8.6154 18.1225V20.9H12.9231C13.2615 20.9 13.5385 21.1475 13.5385 21.45C13.5385 21.7525 13.2615 22 12.9231 22H3.07692C2.73846 22 2.46154 21.7525 2.46154 21.45C2.46154 21.1475 2.73846 20.9 3.07692 20.9H7.3846V18.1225C3.26154 17.8475 0 14.74 0 11C0 10.6975 0.27692 10.45 0.61538 10.45C0.95385 10.45 1.23077 10.6975 1.23077 11C1.23077 14.3275 4.27692 17.05 8 17.05C11.7231 17.05 14.7692 14.3275 14.7692 11C14.7692 10.6975 15.0462 10.45 15.3846 10.45C15.7231 10.45 16 10.6975 16 11C16 14.7675 12.7385 17.8475 8.6154 18.1225ZM12.6154 4.125V11C12.6154 13.2825 10.5538 15.125 8 15.125C5.44615 15.125 3.38462 13.2825 3.38462 11V4.125C3.38462 1.8425 5.44615 0 8 0C10.5538 0 12.6154 1.8425 12.6154 4.125ZM11.3846 4.125C11.3846 2.4475 9.8769 1.1 8 1.1C6.1231 1.1 4.61538 2.4475 4.61538 4.125V11C4.61538 12.6775 6.1231 14.025 8 14.025C9.8769 14.025 11.3846 12.6775 11.3846 11V4.125Z" fill="#EA5E20"/>
</svg>
