<svg width="18" height="22" viewBox="0 0 18 22" fill="none" xmlns="http://www.w3.org/2000/svg">
<path d="M16.5275 13.3186C15.7017 12.0024 15.2792 10.4484 15.3175 8.86848V8.70954C15.3151 7.04342 14.7285 5.43768 13.6714 4.20414C12.6144 2.9706 11.1625 2.19728 9.59752 2.03435V0.794667C9.59752 0.583908 9.5185 0.381781 9.37785 0.232752C9.2372 0.0837236 9.04643 0 8.84752 0C8.64861 0 8.45784 0.0837236 8.31719 0.232752C8.17654 0.381781 8.09752 0.583908 8.09752 0.794667V2.07673C7.53861 2.14546 6.99061 2.29151 6.46752 2.51115C5.32029 3.01802 4.34397 3.87966 3.66606 4.98355C2.98815 6.08744 2.64016 7.38226 2.66752 8.69895C2.6798 10.376 2.17799 12.012 1.23752 13.361L0.567521 14.3358C0.249949 14.7869 0.0572086 15.3228 0.0108948 15.8834C-0.0354189 16.444 0.0665244 17.0072 0.305302 17.5099C0.54408 18.0126 0.910258 18.4349 1.3628 18.7296C1.81535 19.0242 2.33638 19.1794 2.86752 19.1779H6.14752V19.5276C6.23612 20.2126 6.55589 20.8405 7.04766 21.295C7.53944 21.7496 8.16994 22 8.82252 22C9.47511 22 10.1056 21.7496 10.5974 21.295C11.0892 20.8405 11.4089 20.2126 11.4975 19.5276V19.1779H14.8675C15.3893 19.1703 15.8996 19.014 16.3448 18.7256C16.7901 18.4372 17.154 18.0273 17.3983 17.5387C17.6427 17.0501 17.7585 16.5009 17.7338 15.9486C17.709 15.3963 17.5445 14.8612 17.2575 14.3994L16.5275 13.3186ZM10.0275 19.3475C9.97122 19.6364 9.8226 19.8959 9.60673 20.0822C9.39086 20.2685 9.12095 20.3703 8.84252 20.3703C8.56409 20.3703 8.29418 20.2685 8.07832 20.0822C7.86245 19.8959 7.71383 19.6364 7.65752 19.3475V19.1779H10.0275V19.3475ZM14.8675 17.5886H2.86752C2.61478 17.5877 2.36722 17.5126 2.15222 17.3719C1.93721 17.2311 1.76316 17.03 1.6493 16.791C1.53544 16.5519 1.48622 16.2841 1.50709 16.0172C1.52795 15.7503 1.61809 15.4948 1.76752 15.2788L2.44752 14.304C3.58762 12.659 4.19137 10.6655 4.16752 8.62478C4.15444 7.6416 4.41871 6.67668 4.92646 5.85364C5.43422 5.0306 6.16234 4.38694 7.01752 4.00512C7.65372 3.73651 8.33268 3.59983 9.01752 3.60249C9.65254 3.59689 10.2823 3.72459 10.8705 3.9782C11.4587 4.23181 11.9937 4.60633 12.4446 5.08014C12.8955 5.55395 13.2534 6.11767 13.4976 6.73878C13.7418 7.35989 13.8675 8.02609 13.8675 8.69895V8.86848C13.841 10.7497 14.3497 12.5958 15.3275 14.1663L16.0075 15.2258C16.1649 15.4804 16.2451 15.7798 16.2375 16.084C16.2442 16.2791 16.2138 16.4736 16.1479 16.6558C16.0821 16.8381 15.9823 17.0044 15.8544 17.1449C15.7265 17.2854 15.5732 17.397 15.4036 17.4733C15.234 17.5495 15.0517 17.5887 14.8675 17.5886Z" fill="#EA5E20"/>
</svg>
