<svg width="22" height="22" viewBox="0 0 22 22" fill="none" xmlns="http://www.w3.org/2000/svg">
<path d="M15.19 21.73H6.81C5.07099 21.7273 3.40397 21.0353 2.1743 19.8057C0.944635 18.576 0.252645 16.909 0.25 15.17V6.77998C0.25265 5.04189 0.94496 3.3759 2.17491 2.14782C3.40486 0.919746 5.07191 0.229978 6.81 0.22998H15.19C16.9281 0.229978 18.5951 0.919746 19.8251 2.14782C21.055 3.3759 21.7474 5.04189 21.75 6.77998V15.17C21.7474 16.909 21.0554 18.576 19.8257 19.8057C18.596 21.0353 16.929 21.7273 15.19 21.73ZM6.81 1.72998C5.46974 1.72998 4.18422 2.26171 3.23557 3.20848C2.28692 4.15526 1.75265 5.43972 1.75 6.77998V15.17C1.75264 16.5112 2.2866 17.7967 3.23496 18.745C4.18332 19.6934 5.46882 20.2273 6.81 20.23H15.19C16.5312 20.2273 17.8167 19.6934 18.765 18.745C19.7134 17.7967 20.2474 16.5112 20.25 15.17V6.77998C20.2474 5.43972 19.7131 4.15526 18.7644 3.20848C17.8158 2.26171 16.5303 1.72998 15.19 1.72998H6.81ZM10.63 15.23L14.12 11.59C14.2137 11.497 14.2881 11.3864 14.3389 11.2646C14.3897 11.1427 14.4158 11.012 14.4158 10.88C14.4158 10.748 14.3897 10.6173 14.3389 10.4954C14.2881 10.3735 14.2137 10.2629 14.12 10.17L10.45 6.67998C10.2577 6.49566 10.0001 6.39526 9.73379 6.40089C9.46748 6.40652 9.21432 6.5177 9.03 6.70998C8.84567 6.90226 8.74528 7.15989 8.75091 7.42619C8.75653 7.6925 8.86772 7.94565 9.06 8.12998L12 10.93L9.2 13.85C9.06516 13.9914 8.97471 14.1693 8.93985 14.3616C8.90498 14.5539 8.92722 14.7521 9.00381 14.9319C9.08041 15.1117 9.208 15.2651 9.37083 15.3732C9.53366 15.4813 9.72458 15.5392 9.92 15.54C10.053 15.5381 10.1843 15.5098 10.3062 15.4565C10.4282 15.4033 10.5382 15.3263 10.63 15.23Z" fill="#EA5E20"/>
</svg>
