<svg width="9" height="14" viewBox="0 0 9 14" fill="none" xmlns="http://www.w3.org/2000/svg">
<path d="M1.27023 14C1.13792 13.9994 1.00704 13.9726 0.885165 13.9212C0.76329 13.8697 0.652846 13.7945 0.560231 13.7C0.37398 13.5126 0.269438 13.2592 0.269438 12.995C0.269438 12.7308 0.37398 12.4774 0.560231 12.29L5.78023 7L0.560231 1.83C0.466993 1.73545 0.39329 1.62346 0.343332 1.50042C0.293374 1.37739 0.268139 1.24571 0.269068 1.11293C0.269996 0.980139 0.297071 0.848835 0.348744 0.72651C0.400418 0.604185 0.475679 0.493237 0.57023 0.399998C0.664782 0.30676 0.776773 0.233057 0.899808 0.1831C1.02284 0.133142 1.15451 0.107907 1.2873 0.108835C1.42009 0.109764 1.55139 0.136838 1.67372 0.188511C1.79604 0.240185 1.90699 0.315446 2.00023 0.409998L7.92023 6.34C8.10648 6.52736 8.21102 6.78081 8.21102 7.045C8.21102 7.30918 8.10648 7.56264 7.92023 7.75L2.00023 13.67C1.90787 13.7724 1.79535 13.8545 1.66972 13.9113C1.5441 13.9681 1.40809 13.9983 1.27023 14Z" fill="black"/>
</svg>
