<svg width="22" height="22" viewBox="0 0 22 22" fill="none" xmlns="http://www.w3.org/2000/svg">
<path d="M15.19 21.75H6.81C5.07018 21.75 3.40162 21.0589 2.17138 19.8286C0.941141 18.5984 0.25 16.9298 0.25 15.19V6.81C0.25 5.07018 0.941141 3.40162 2.17138 2.17138C3.40162 0.941141 5.07018 0.25 6.81 0.25H15.19C16.9298 0.25 18.5984 0.941141 19.8286 2.17138C21.0589 3.40162 21.75 5.07018 21.75 6.81V15.19C21.75 16.9298 21.0589 18.5984 19.8286 19.8286C18.5984 21.0589 16.9298 21.75 15.19 21.75ZM6.81 1.75C5.46882 1.75264 4.18332 2.2866 3.23496 3.23496C2.2866 4.18332 1.75264 5.46882 1.75 6.81V15.19C1.75264 16.5312 2.2866 17.8167 3.23496 18.765C4.18332 19.7134 5.46882 20.2474 6.81 20.25H15.19C16.5312 20.2474 17.8167 19.7134 18.765 18.765C19.7134 17.8167 20.2474 16.5312 20.25 15.19V6.81C20.2474 5.46882 19.7134 4.18332 18.765 3.23496C17.8167 2.2866 16.5312 1.75264 15.19 1.75H6.81ZM12.71 15.29C12.8963 15.1026 13.0008 14.8492 13.0008 14.585C13.0008 14.3208 12.8963 14.0674 12.71 13.88L9.94 11L12.86 8.2C13.0288 8.01235 13.1203 7.76782 13.1163 7.51547C13.1123 7.26313 13.0131 7.02162 12.8384 6.83941C12.6638 6.65719 12.4268 6.54774 12.1748 6.53302C11.9229 6.51829 11.6747 6.59937 11.48 6.76L7.83 10.2C7.73488 10.2906 7.65855 10.3991 7.60536 10.5192C7.55217 10.6393 7.52316 10.7687 7.52 10.9C7.5158 11.1644 7.61647 11.4197 7.8 11.61L11.29 15.26C11.3841 15.3587 11.4974 15.4372 11.623 15.4905C11.7485 15.5438 11.8836 15.5708 12.02 15.57C12.2775 15.569 12.5246 15.4687 12.71 15.29Z" fill="#EA5E20"/>
</svg>
