<svg width="20" height="22" viewBox="0 0 20 22" fill="none" xmlns="http://www.w3.org/2000/svg">
<path d="M18.0001 10.22V4.17001C17.9975 3.13118 17.5837 2.13564 16.8491 1.40107C16.1145 0.6665 15.119 0.252653 14.0801 0.250013H6.00014C5.47902 0.240728 4.96127 0.335192 4.477 0.527905C3.99274 0.720619 3.55165 1.00773 3.17941 1.37253C2.80716 1.73733 2.51119 2.17254 2.30874 2.6528C2.10628 3.13307 2.00138 3.64882 2.00014 4.17001V10.17C1.42985 10.5377 0.960803 11.0425 0.63588 11.6381C0.310957 12.2338 0.140517 12.9015 0.140137 13.58V17C0.146662 17.6312 0.277626 18.2549 0.525528 18.8355C0.773431 19.416 1.1334 19.9419 1.58484 20.3831C2.03627 20.8243 2.5703 21.1722 3.15635 21.4067C3.74239 21.6413 4.36895 21.7579 5.00014 21.75H15.0001C16.268 21.7554 17.4865 21.2589 18.3896 20.3689C19.2927 19.4789 19.8069 18.2678 19.8201 17V13.62C19.8224 12.9468 19.6573 12.2836 19.3396 11.6901C19.0219 11.0966 18.5616 10.5914 18.0001 10.22ZM3.54014 4.17001C3.54143 3.8492 3.60624 3.53183 3.73082 3.23619C3.8554 2.94055 4.03729 2.67251 4.26599 2.44753C4.49469 2.22255 4.76568 2.04508 5.06331 1.92536C5.36095 1.80565 5.67935 1.74605 6.00014 1.75001H14.1001C14.7411 1.75265 15.3552 2.00845 15.8084 2.46172C16.2617 2.91499 16.5175 3.529 16.5201 4.17001V9.62001C16.2792 9.57641 16.035 9.55299 15.7901 9.55001H14.9601C14.3544 9.54168 13.7543 9.66735 13.2029 9.91802C12.6514 10.1687 12.1621 10.5382 11.7701 11L11.4801 11.35C11.2978 11.5675 11.0697 11.7421 10.8122 11.8614C10.5546 11.9806 10.274 12.0416 9.99014 12.04C9.70801 12.0402 9.42927 11.9785 9.17357 11.8592C8.91786 11.74 8.6914 11.5662 8.51014 11.35L8.21014 10.99C7.82342 10.5316 7.34104 10.1633 6.79687 9.91107C6.2527 9.65885 5.65992 9.52879 5.06014 9.53001H4.25014C4.0119 9.53302 3.77437 9.55644 3.54014 9.60001V4.17001ZM18.3201 17C18.3096 17.8708 17.9542 18.702 17.3318 19.3112C16.7095 19.9204 15.871 20.258 15.0001 20.25H5.00014C4.12928 20.258 3.29077 19.9204 2.66843 19.3112C2.04609 18.702 1.69069 17.8708 1.68014 17V13.62C1.68014 13.2825 1.74661 12.9483 1.87577 12.6365C2.00492 12.3247 2.19423 12.0414 2.43287 11.8027C2.67152 11.5641 2.95483 11.3748 3.26664 11.2456C3.57845 11.1165 3.91264 11.05 4.25014 11.05H5.06014C5.44107 11.0503 5.81735 11.1337 6.16277 11.2943C6.50818 11.4549 6.81442 11.6889 7.06014 11.98L7.36014 12.34C7.68527 12.7228 8.08984 13.0302 8.54573 13.2409C9.00163 13.4515 9.49792 13.5604 10.0001 13.56C10.5033 13.5599 11.0002 13.4497 11.4563 13.2373C11.9123 13.0248 12.3164 12.7151 12.6401 12.33L12.9301 11.98C13.1759 11.6889 13.4821 11.4549 13.8275 11.2943C14.1729 11.1337 14.5492 11.0503 14.9301 11.05H15.7601C16.4417 11.05 17.0954 11.3208 17.5774 11.8027C18.0594 12.2847 18.3301 12.9384 18.3301 13.62L18.3201 17ZM7.00014 5.42001C7.00273 5.22191 7.08258 5.03264 7.22267 4.89255C7.36277 4.75245 7.55203 4.6726 7.75014 4.67001H12.2501C12.449 4.67001 12.6398 4.74903 12.7805 4.88968C12.9211 5.03034 13.0001 5.2211 13.0001 5.42001C13.0001 5.61893 12.9211 5.80969 12.7805 5.95034C12.6398 6.091 12.449 6.17001 12.2501 6.17001H7.75014C7.55203 6.16742 7.36277 6.08757 7.22267 5.94748C7.08258 5.80738 7.00273 5.61812 7.00014 5.42001ZM12.0001 8.21001C12.0001 8.40893 11.9211 8.59969 11.7805 8.74034C11.6398 8.881 11.449 8.96001 11.2501 8.96001H8.65014C8.45122 8.96001 8.26046 8.881 8.11981 8.74034C7.97915 8.59969 7.90014 8.40893 7.90014 8.21001C7.90014 8.0111 7.97915 7.82034 8.11981 7.67968C8.26046 7.53903 8.45122 7.46001 8.65014 7.46001H11.2301C11.3303 7.45734 11.43 7.47477 11.5233 7.51126C11.6166 7.54775 11.7017 7.60257 11.7734 7.67249C11.8452 7.7424 11.9023 7.82598 11.9412 7.9183C11.9801 8.01063 12.0002 8.10982 12.0001 8.21001Z" fill="#050505"/>
</svg>
