<svg width="22" height="23" viewBox="0 0 22 23" fill="none" xmlns="http://www.w3.org/2000/svg">
<path d="M20.37 8.61V5.33C20.3754 4.12405 19.9028 2.96509 19.0557 2.10675C18.2086 1.2484 17.056 0.760567 15.85 0.75H4.78004C3.57239 0.757934 2.4172 1.24461 1.56795 2.10324C0.718686 2.96187 0.244721 4.12233 0.250044 5.33V12.33C0.244721 13.5377 0.718686 14.6981 1.56795 15.5568C2.4172 16.4154 3.57239 16.9021 4.78004 16.91H10.31H10.38V18.82H6.28004C6.08113 18.82 5.89037 18.899 5.74971 19.0397C5.60906 19.1803 5.53004 19.3711 5.53004 19.57C5.53004 19.7689 5.60906 19.9597 5.74971 20.1003C5.89037 20.241 6.08113 20.32 6.28004 20.32H10.35C10.3932 20.3257 10.4369 20.3257 10.48 20.32C10.6333 20.8909 10.9697 21.3958 11.4375 21.7571C11.9054 22.1184 12.4789 22.3161 13.07 22.32H19.07C19.4333 22.3177 19.7923 22.2421 20.1256 22.0978C20.4589 21.9534 20.7597 21.7433 21.0099 21.48C21.2601 21.2168 21.4546 20.9057 21.5818 20.5655C21.709 20.2252 21.7662 19.8629 21.75 19.5V10.97C21.7498 10.4896 21.6219 10.0179 21.3794 9.60323C21.137 9.18854 20.7886 8.84576 20.37 8.61ZM10.37 10.97V15.39H4.78004C3.97545 15.3742 3.20945 15.0422 2.64795 14.4657C2.08644 13.8892 1.77463 13.1147 1.78004 12.31V5.31C1.77463 4.50527 2.08644 3.7308 2.64795 3.15432C3.20945 2.57784 3.97545 2.24576 4.78004 2.23H15.85C16.2508 2.22986 16.6476 2.31002 17.0169 2.46577C17.3862 2.62151 17.7205 2.84967 18.0002 3.13677C18.2798 3.42388 18.4991 3.76411 18.6451 4.13737C18.791 4.51063 18.8607 4.90935 18.85 5.31V8.25H13.05C12.3365 8.26053 11.656 8.55206 11.1561 9.0613C10.6562 9.57055 10.3773 10.2564 10.38 10.97H10.37ZM20.25 19.5C20.2527 19.8166 20.1302 20.1213 19.9092 20.348C19.6882 20.5746 19.3866 20.7047 19.07 20.71H13.07C12.9125 20.7087 12.7567 20.6764 12.6116 20.6148C12.4665 20.5533 12.3349 20.4638 12.2244 20.3515C12.1139 20.2391 12.0266 20.1061 11.9676 19.96C11.9085 19.8139 11.8787 19.6576 11.88 19.5V10.97C11.8774 10.6508 12.0009 10.3435 12.2238 10.115C12.4467 9.88644 12.7509 9.75527 13.07 9.75H19.07C19.2276 9.7526 19.3832 9.78623 19.5278 9.84895C19.6724 9.91168 19.8032 10.0023 19.9128 10.1156C20.0223 10.2289 20.1085 10.3626 20.1664 10.5092C20.2243 10.6558 20.2527 10.8124 20.25 10.97V19.5Z" fill="#EA5E20"/>
<path d="M16.21 19.89C16.7237 19.89 17.14 19.4737 17.14 18.96C17.14 18.4464 16.7237 18.03 16.21 18.03C15.6964 18.03 15.28 18.4464 15.28 18.96C15.28 19.4737 15.6964 19.89 16.21 19.89Z" fill="#EA5E20"/>
</svg>
