<svg width="92" height="41" viewBox="0 0 92 41" fill="none" xmlns="http://www.w3.org/2000/svg">
<g clip-path="url(#clip0_4748_15654)">
<path d="M77.804 36.0253C77.8807 36.0266 78.1538 36.0312 78.0567 36.0315C81.4581 36.0814 80.7282 36.0692 77.804 36.0253ZM81.897 35.9693C81.8975 35.9694 81.9724 35.9729 81.9506 35.9744C81.9964 35.9747 82.0423 35.9748 82.0883 35.9751C82.3598 35.976 81.9346 35.97 81.897 35.9693ZM76.7355 35.729C74.0937 35.6886 71.4508 35.6645 68.8106 35.5647C73.0074 35.4792 77.1802 35.5612 81.375 35.6477C69.5052 35.3968 75.1133 35.4614 81.9578 35.6084C78.062 35.5274 63.4719 35.2012 76.6127 35.4461C65.1027 35.0868 80.391 35.4108 82.7012 35.4752C66.3239 34.9777 38.2399 35.2145 27.5907 38.7135C25.7881 39.3058 25.8543 40.8119 27.1426 40.4424C37.0447 37.6021 62.0974 36.1368 79.3457 36.0566C73.3155 35.9638 74.5849 36.0022 79.3457 36.0566C79.432 36.0579 79.5182 36.0593 79.6046 36.0606C78.8166 36.0468 78.0285 36.034 77.2403 36.0225C77.512 36.0256 77.7852 36.0319 78.0567 36.0315C73.9705 35.918 78.7986 35.9503 80.0277 35.9727C69.6726 35.7667 77.0689 35.8707 81.9122 35.9736C81.8946 35.971 81.8763 35.9701 81.8585 35.9686C80.7337 35.9439 68.6713 35.6513 76.7354 35.729H76.7355Z" fill="#898989"/>
<path d="M1.96989 10.6514V10.2034H9.14186V10.6514H8.53586C7.84972 10.6514 7.353 10.8504 7.04176 11.2445C6.84384 11.5057 6.74276 12.128 6.74276 13.115V21.1867C6.74276 22.4271 6.60395 23.4349 6.33028 24.2023C6.05662 24.9738 5.58543 25.6458 4.91192 26.218C4.24262 26.7905 3.43046 27.0768 2.47925 27.0768C1.71311 27.0768 1.10711 26.89 0.665099 26.5126C0.223244 26.1352 0 25.7037 0 25.2185C0 24.8202 0.101078 24.5216 0.307241 24.3183C0.576665 24.0654 0.888108 23.9409 1.25017 23.9409C1.51099 23.9409 1.74264 24.024 1.95304 24.1939C2.15921 24.364 2.42443 24.8162 2.74007 25.5503C2.92955 25.9858 3.16944 26.2058 3.46404 26.2058C3.68304 26.2058 3.88901 26.0729 4.08268 25.8034C4.27215 25.5378 4.36883 25.0609 4.36883 24.3807V13.1151C4.36883 12.2815 4.31417 11.7297 4.20889 11.4643C4.1289 11.2611 3.95651 11.0869 3.69129 10.9417C3.33783 10.7467 2.96732 10.6514 2.57188 10.6514H1.96989V10.6514ZM13.3886 17.5657C14.7104 16.0102 15.9688 15.2305 17.1641 15.2305C17.7786 15.2305 18.309 15.3839 18.7508 15.6867C19.1969 15.9895 19.5463 16.4914 19.8116 17.1883C19.9924 17.6777 20.0808 18.4244 20.0808 19.4281V24.1899C20.0808 24.8908 20.1397 25.3637 20.2534 25.6166C20.3418 25.8157 20.4893 25.9733 20.687 26.0853C20.889 26.1973 21.2595 26.2554 21.7981 26.2554V26.7034H16.2171V26.2554H16.4527C16.9747 26.2554 17.3409 26.1766 17.5513 26.019C17.7575 25.8614 17.9047 25.6291 17.9847 25.3263C18.0185 25.2061 18.0354 24.8244 18.0354 24.1899V19.6065C18.0354 18.5903 17.9007 17.8478 17.6355 17.3873C17.3703 16.9269 16.9242 16.6989 16.2927 16.6989C15.3206 16.6989 14.3525 17.2257 13.3886 18.2833V24.1899C13.3886 24.9406 13.4349 25.4009 13.5235 25.5794C13.6412 25.8117 13.8012 25.9818 14.0031 26.0938C14.2051 26.2015 14.6133 26.2554 15.2322 26.2554V26.7034H9.62585V26.2554H9.87423C10.4509 26.2554 10.838 26.1145 11.04 25.8282C11.2421 25.542 11.3432 24.9945 11.3432 24.1899V20.0585C11.3432 18.723 11.3137 17.9101 11.2506 17.6196C11.1873 17.3252 11.0949 17.1261 10.9687 17.0224C10.8423 16.9187 10.6697 16.8647 10.4593 16.8647C10.2278 16.8647 9.95418 16.9269 9.6343 17.0473L9.44922 16.5993L12.8584 15.2305H13.3886V17.5657Z" fill="#EA5E20"/>
<path d="M44.1632 25.0858C43.0057 25.9693 42.2775 26.4836 41.9788 26.6203C41.5367 26.8236 41.0653 26.9274 40.5646 26.9274C39.7816 26.9274 39.1378 26.6619 38.6325 26.1352C38.1275 25.6084 37.875 24.9157 37.875 24.0571C37.875 23.5136 37.997 23.0409 38.2453 22.6468C38.5822 22.0951 39.1671 21.5767 40.0006 21.0871C40.8381 20.602 42.2229 20.0088 44.1632 19.3119V18.8764C44.1632 17.7689 43.9862 17.0099 43.6286 16.5951C43.2707 16.1845 42.7532 15.977 42.0714 15.977C41.5578 15.977 41.1453 16.114 40.8425 16.3918C40.5308 16.6657 40.3751 16.981 40.3751 17.3376L40.4003 18.0428C40.4003 18.416 40.3036 18.7063 40.1099 18.9096C39.9164 19.1129 39.6596 19.2124 39.3482 19.2124C39.0408 19.2124 38.7884 19.1087 38.5949 18.8971C38.4012 18.6856 38.3044 18.3952 38.3044 18.0303C38.3044 17.3334 38.6662 16.6906 39.3904 16.1057C40.1143 15.5208 41.1328 15.2305 42.4419 15.2305C43.4477 15.2305 44.2685 15.3964 44.9123 15.7283C45.3963 15.977 45.7542 16.3711 45.9857 16.9062C46.133 17.2506 46.2087 17.964 46.2087 19.0383V22.8127C46.2087 23.8704 46.2298 24.5216 46.2718 24.7581C46.3138 24.9985 46.3813 25.1562 46.4739 25.2392C46.5708 25.318 46.6801 25.3595 46.8021 25.3595C46.9369 25.3595 47.0504 25.3305 47.1515 25.2766C47.3241 25.1687 47.6566 24.8743 48.1533 24.3889V25.0691C47.2274 26.2928 46.3435 26.9025 45.5016 26.9025C45.0974 26.9025 44.7735 26.7655 44.5336 26.4919C44.2936 26.214 44.1715 25.7453 44.1632 25.0858ZM44.1632 24.2936V20.0585C42.9131 20.5439 42.1091 20.8881 41.7431 21.0914C41.0907 21.4481 40.6235 21.8172 40.3416 22.2071C40.0595 22.597 39.9206 23.02 39.9206 23.4805C39.9206 24.0654 40.0973 24.5465 40.4551 24.9322C40.8087 25.318 41.2211 25.5089 41.684 25.5089C42.3113 25.5089 43.1361 25.1023 44.1632 24.2936ZM52.2905 17.5657C53.6121 16.0102 54.8707 15.2305 56.066 15.2305C56.6805 15.2305 57.2109 15.3839 57.6528 15.6867C58.0989 15.9895 58.4483 16.4914 58.7133 17.1882C58.8944 17.6776 58.9828 18.4244 58.9828 19.4281V24.1898C58.9828 24.8908 59.0416 25.3637 59.1553 25.6166C59.2436 25.8157 59.3912 25.9733 59.5888 26.0853C59.7909 26.1973 60.1614 26.2554 60.7001 26.2554V26.7034H55.1189V26.2554H55.3546C55.8766 26.2554 56.2427 26.1766 56.4531 26.0189C56.6594 25.8613 56.8067 25.6291 56.8867 25.3263C56.9204 25.2061 56.9373 24.8244 56.9373 24.1898V19.6065C56.9373 18.5903 56.8027 17.8478 56.5374 17.3873C56.2722 16.9269 55.8262 16.6988 55.1947 16.6988C54.2225 16.6988 53.2543 17.2256 52.2905 18.2833V24.1898C52.2905 24.9406 52.3368 25.4009 52.4254 25.5794C52.5432 25.8117 52.7031 25.9817 52.905 26.0937C53.107 26.2015 53.5153 26.2554 54.1341 26.2554V26.7034H48.5278V26.2554H48.7761C49.3527 26.2554 49.74 26.1145 49.942 25.8281C50.1441 25.542 50.2452 24.9945 50.2452 24.1898V20.0585C50.2452 18.723 50.2156 17.9101 50.1525 17.6196C50.0893 17.3252 49.9968 17.1261 49.8704 17.0224C49.7442 16.9186 49.5717 16.8647 49.3613 16.8647C49.1296 16.8647 48.8561 16.9269 48.5363 17.0473L48.3512 16.5993L51.7602 15.2305H52.2905V17.5657ZM67.9984 25.0858C66.8408 25.9693 66.1127 26.4836 65.8137 26.6203C65.3719 26.8236 64.9005 26.9274 64.3996 26.9274C63.6167 26.9274 62.9728 26.6619 62.4676 26.1352C61.9627 25.6084 61.7101 24.9157 61.7101 24.0571C61.7101 23.5136 61.8321 23.0409 62.0804 22.6468C62.4172 22.0951 63.0023 21.5767 63.8357 21.0871C64.6732 20.602 66.058 20.0088 67.9984 19.3119V18.8764C67.9984 17.7689 67.8214 17.0099 67.4637 16.5951C67.1059 16.1845 66.5883 15.977 65.9063 15.977C65.3927 15.977 64.9805 16.114 64.6774 16.3918C64.366 16.6657 64.2103 16.981 64.2103 17.3376L64.2354 18.0428C64.2354 18.416 64.1387 18.7063 63.9451 18.9096C63.7514 19.1129 63.4948 19.2124 63.1832 19.2124C62.8759 19.2124 62.6235 19.1087 62.4299 18.8971C62.2363 18.6856 62.1393 18.3952 62.1393 18.0303C62.1393 17.3334 62.5014 16.6906 63.2255 16.1057C63.9493 15.5208 64.9678 15.2305 66.2769 15.2305C67.2827 15.2305 68.1037 15.3964 68.7475 15.7283C69.2315 15.977 69.5893 16.3711 69.8206 16.9062C69.9681 17.2506 70.0438 17.964 70.0438 19.0383V22.8127C70.0438 23.8704 70.0649 24.5216 70.107 24.7581C70.1489 24.9985 70.2162 25.1562 70.3089 25.2392C70.4059 25.318 70.5152 25.3595 70.6372 25.3595C70.7718 25.3595 70.8855 25.3305 70.9866 25.2766C71.1592 25.1687 71.4917 24.8743 71.9883 24.3889V25.0691C71.0624 26.2928 70.1785 26.9025 69.3368 26.9025C68.9325 26.9025 68.6086 26.7655 68.3687 26.4919C68.1286 26.214 68.0066 25.7453 67.9984 25.0858ZM67.9984 24.2936V20.0585C66.7482 20.5439 65.9443 20.8881 65.5782 21.0914C64.9258 21.4481 64.4586 21.8172 64.1765 22.2071C63.8946 22.597 63.7558 23.02 63.7558 23.4805C63.7558 24.0654 63.9324 24.5465 64.2902 24.9322C64.6439 25.318 65.0562 25.5089 65.5192 25.5089C66.1462 25.5089 66.9712 25.1023 67.9984 24.2936ZM76.2015 17.6113C77.0181 16.7984 77.5019 16.3297 77.6494 16.2052C78.0155 15.8982 78.4111 15.6577 78.8361 15.4876C79.2613 15.3175 79.6822 15.2305 80.0989 15.2305C80.806 15.2305 81.408 15.4337 81.9171 15.8403C82.4223 16.2467 82.7631 16.8358 82.9314 17.6113C83.7817 16.6325 84.4971 15.9937 85.0824 15.6867C85.6673 15.3839 86.269 15.2305 86.8879 15.2305C87.4857 15.2305 88.0201 15.3839 88.4873 15.6867C88.9503 15.9895 89.3206 16.4873 89.5902 17.18C89.7711 17.6487 89.8635 18.387 89.8635 19.395V24.1898C89.8635 24.8825 89.9141 25.3595 90.0194 25.6166C90.0993 25.7909 90.2508 25.9443 90.4654 26.0688C90.6843 26.1933 91.0379 26.2554 91.5304 26.2554V26.7034H85.9998V26.2554H86.2355C86.7153 26.2554 87.0942 26.1641 87.3635 25.9775C87.553 25.8489 87.6876 25.6415 87.7676 25.3595C87.8011 25.2225 87.8182 24.8327 87.8182 24.1898V19.399C87.8182 18.4908 87.7085 17.852 87.4857 17.4786C87.1616 16.96 86.648 16.6988 85.9367 16.6988C85.5033 16.6988 85.0613 16.8066 84.6194 17.0224C84.1816 17.2339 83.6469 17.6362 83.02 18.2169L82.9947 18.3538L83.0451 18.8764V24.1898C83.0451 24.9447 83.0874 25.4176 83.1714 25.6041C83.2599 25.7867 83.4197 25.9443 83.6556 26.0688C83.8913 26.1933 84.2952 26.2554 84.8634 26.2554V26.7034H79.1813V26.2554C79.8001 26.2554 80.2251 26.1848 80.4568 26.0397C80.6881 25.8945 80.848 25.6747 80.9364 25.3844C80.9786 25.2475 80.9997 24.8493 80.9997 24.1898V19.399C80.9997 18.4908 80.865 17.8353 80.5954 17.433C80.2336 16.9104 79.7326 16.649 79.0846 16.649C78.6428 16.649 78.205 16.7694 77.7714 17.0057C77.0938 17.3624 76.5676 17.7689 76.2015 18.2169V24.1898C76.2015 24.9157 76.252 25.3844 76.3528 25.6041C76.4539 25.8199 76.6056 25.9817 76.8075 26.0937C77.0054 26.2015 77.4093 26.2554 78.0197 26.2554V26.7034H72.4385V26.2554C72.9565 26.2554 73.3184 26.2015 73.5247 26.0937C73.7307 25.9817 73.8866 25.8117 73.9959 25.571C74.1012 25.3345 74.1559 24.8743 74.1559 24.1898V19.9341C74.1559 18.7148 74.1179 17.9266 74.0465 17.5699C73.9877 17.3002 73.8993 17.1177 73.7729 17.0182C73.6509 16.9146 73.4824 16.8647 73.272 16.8647C73.0405 16.8647 72.7668 16.9269 72.4471 17.0473L72.2619 16.5993L75.6711 15.2305H76.2015V17.6113Z" fill="#EA5E20"/>
<path fill-rule="evenodd" clip-rule="evenodd" d="M32.7672 33.9468C32.7705 33.7129 32.7751 33.4794 32.7809 33.2465C32.7751 33.4794 32.7705 33.7129 32.7672 33.9468ZM32.781 33.2454C33.1495 18.5587 38.4191 5.97986 45.74 1.58779C41.7028 3.43207 38.7639 6.85597 36.577 10.7783C34.8429 13.8887 33.5722 17.3044 32.5833 20.7101C31.4747 24.5281 30.6842 28.4608 30.0857 32.393C30.0297 33.1279 30.586 33.7707 31.3325 33.831C32.0769 33.8911 32.7304 33.3494 32.7997 32.6185C32.7924 32.827 32.7862 33.036 32.7809 33.2454L32.781 33.2454ZM28.1526 33.5742L28.1713 33.5757C28.7902 33.6257 29.3423 33.2323 29.5054 32.6649C29.4984 32.7114 29.4916 32.7579 29.4847 32.8044C30.0952 28.6867 30.9094 24.5639 32.0705 20.5655C33.0705 17.1216 34.356 13.6704 36.1096 10.5253C37.2212 8.53134 38.5233 6.66701 40.0574 5.06322C38.3774 6.5359 36.8968 8.26983 35.5853 10.176C33.5086 13.1944 31.8977 16.567 30.596 19.9733C29.069 23.9689 27.917 28.1358 26.9961 32.3125C26.9824 32.9633 27.4854 33.5203 28.1526 33.5742ZM26.4109 32.492C27.3481 28.1926 28.525 23.9005 30.0968 19.7881C31.4136 16.3426 33.0432 12.934 35.1438 9.88096C38.1249 5.54811 41.9665 2.09516 46.994 0.5C37.6016 2.02696 27.6302 15.0475 23.647 31.8116L23.632 31.8752C23.6218 32.6197 24.1988 33.255 24.963 33.3167C25.6095 33.3689 26.1916 32.9946 26.4239 32.4325L26.4109 32.492V32.492Z" fill="#72B635"/>
<path fill-rule="evenodd" clip-rule="evenodd" d="M27.0815 39.6231L32.8081 33.7994L32.8088 33.7995L32.8105 33.7873C32.429 34.178 31.8793 34.4026 31.2891 34.3549C30.6128 34.3003 30.048 33.9017 29.7582 33.3475C29.3969 33.853 28.7822 34.1525 28.1278 34.0997L28.1091 34.0982C27.4549 34.0453 26.9072 33.6507 26.6393 33.1028C26.2354 33.6073 25.594 33.8951 24.9195 33.8406C24.3633 33.7957 23.8764 33.5271 23.5464 33.1297L27.0815 39.6231Z" fill="#FBD0A0"/>
<path fill-rule="evenodd" clip-rule="evenodd" d="M29.0736 37.5971C28.6229 37.2051 28.0436 36.9476 27.397 36.8954C26.8134 36.8483 26.2564 36.9749 25.7788 37.2312L27.0811 39.6233L29.0736 37.5971Z" fill="#5B5B5B"/>
<path fill-rule="evenodd" clip-rule="evenodd" d="M30.2026 13.3248C27.6356 8.15616 22.1138 4.74312 15.9414 5.07077C22.0784 5.91552 27.0241 10.4249 28.4283 16.2827C28.9845 15.2709 29.576 14.2828 30.2026 13.3247V13.3248Z" fill="#3B5725"/>
<path d="M37.9937 32.5995V30.2727H38.4942V32.5995H37.9937ZM42.0129 32.5995H41.377L40.3495 30.8391H40.3351C40.3557 31.1504 40.3662 31.372 40.3662 31.5045V32.5995H39.9186V30.2727H40.5503L41.5752 32.0157H41.587C41.5705 31.7131 41.5626 31.4992 41.5626 31.3742V30.2727H42.0129V32.5995ZM45.5315 32.5995H44.8957L43.8683 30.8391H43.8538C43.8744 31.1504 43.8848 31.372 43.8848 31.5045V32.5995H43.4373V30.2727H44.069L45.0939 32.0157H45.1057C45.0891 31.7131 45.0812 31.4992 45.0812 31.3742V30.2727H45.5315V32.5995ZM49.0988 31.4333C49.0988 31.819 49.0023 32.115 48.8083 32.322C48.6144 32.5289 48.3367 32.6321 47.975 32.6321C47.6135 32.6321 47.3358 32.5289 47.1418 32.322C46.9477 32.115 46.8512 31.8179 46.8512 31.4306C46.8512 31.0435 46.9482 30.7475 47.1429 30.5431C47.3369 30.3389 47.6157 30.2368 47.9783 30.2368C48.3411 30.2368 48.6188 30.3394 48.8105 30.5453C49.0029 30.7511 49.0988 31.0472 49.0988 31.4333ZM47.376 31.4333C47.376 31.6935 47.4262 31.889 47.5258 32.021C47.6261 32.1524 47.776 32.2183 47.975 32.2183C48.3745 32.2183 48.5741 31.9565 48.5741 31.4333C48.5741 30.9093 48.3756 30.6474 47.9783 30.6474C47.7787 30.6474 47.6289 30.7137 47.5275 30.8457C47.4268 30.9777 47.376 31.1738 47.376 31.4333ZM51.7323 30.2727H52.2378L51.4354 32.5995H50.8891L50.0883 30.2727H50.5937L51.0381 31.6572C51.0629 31.7391 51.0881 31.8342 51.1146 31.9429C51.1412 32.052 51.1577 32.1275 51.1641 32.1699C51.1756 32.0721 51.216 31.9015 51.2848 31.6572L51.7323 30.2727ZM54.678 32.5995L54.5065 32.0456H53.6457L53.4748 32.5995H52.9352L53.7684 30.2628H54.3803L55.217 32.5995H54.678ZM54.3869 31.6317C54.2288 31.1298 54.1395 30.8457 54.1197 30.7799C54.0997 30.7143 54.0853 30.6621 54.0773 30.6241C54.0413 30.7599 53.9393 31.0955 53.7719 31.6317H54.3869ZM57.0239 32.5995H56.5235V30.6833H55.8825V30.2727H57.6648V30.6833H57.0239V32.5995ZM58.8588 32.5995V30.2727H59.3593V32.5995H58.8588ZM62.1307 30.2727H62.6361L61.8336 32.5995H61.2874L60.4866 30.2727H60.9921L61.4363 31.6572C61.4611 31.7391 61.4864 31.8342 61.5128 31.9429C61.5394 32.052 61.5559 32.1275 61.5625 32.1699C61.5741 32.0721 61.6144 31.9015 61.6832 31.6572L62.1307 30.2727ZM65.1225 32.5995H63.7628V30.2727H65.1225V30.6767H64.2633V31.1885H65.0625V31.5925H64.2633V32.1922H65.1225V32.5995ZM69.4062 32.5995V30.2727H69.9067V32.1922H70.8645V32.5995H69.4062ZM73.4644 32.5995H72.1048V30.2727H73.4644V30.6767H72.6053V31.1885H73.4045V31.5925H72.6053V32.1922H73.4644V32.5995ZM76.2326 32.5995L76.0611 32.0456H75.2003L75.0294 32.5995H74.4899L75.3232 30.2628H75.9349L76.7716 32.5995H76.2326ZM75.9415 31.6317C75.7834 31.1298 75.6943 30.8457 75.6742 30.7799C75.6544 30.7143 75.6401 30.6621 75.6319 30.6241C75.5959 30.7599 75.4941 31.0955 75.3265 31.6317H75.9415ZM78.3995 31.3058H78.5611C78.7192 31.3058 78.836 31.2797 78.911 31.2275C78.9864 31.176 79.024 31.0939 79.024 30.9826C79.024 30.8723 78.9855 30.7935 78.9088 30.7469C78.8316 30.7002 78.7126 30.6767 78.5512 30.6767H78.3995V31.3058ZM78.3995 31.7067V32.5995H77.8989V30.2727H78.5869C78.9077 30.2727 79.1447 30.3303 79.2984 30.4454C79.4526 30.5605 79.5293 30.7354 79.5293 30.9696C79.5293 31.1064 79.4913 31.2281 79.4147 31.3351C79.3385 31.4416 79.2305 31.5252 79.0907 31.5855C79.4455 32.1084 79.677 32.4468 79.7844 32.5995H79.2289L78.6656 31.7067H78.3995ZM83.0067 32.5995H82.3708L81.3433 30.8391H81.329C81.3493 31.1504 81.3598 31.372 81.3598 31.5045V32.5995H80.9122V30.2727H81.544L82.5691 32.0157H82.5808C82.5641 31.7131 82.5564 31.4992 82.5564 31.3742V30.2727H83.0067V32.5995ZM84.4311 32.5995V30.2727H84.9315V32.5995H84.4311ZM88.4503 32.5995H87.8142L86.7869 30.8391H86.7726C86.793 31.1504 86.8034 31.372 86.8034 31.5045V32.5995H86.3559V30.2727H86.9876L88.0125 32.0157H88.0243C88.0077 31.7131 87.9999 31.4992 87.9999 31.3742V30.2727H88.4503V32.5995ZM90.7707 31.2928H91.7073V32.5001C91.555 32.5489 91.4123 32.5832 91.2782 32.6028C91.1443 32.6222 91.0072 32.6321 90.8672 32.6321C90.5112 32.6321 90.2395 32.5289 90.0516 32.3225C89.8635 32.1161 89.7698 31.8201 89.7698 31.4339C89.7698 31.0581 89.8786 30.7652 90.0967 30.5552C90.3146 30.3449 90.6165 30.2401 91.0029 30.2401C91.2454 30.2401 91.4791 30.2879 91.704 30.3834L91.5374 30.7779C91.3655 30.693 91.1862 30.6507 91 30.6507C90.7834 30.6507 90.6104 30.7224 90.4804 30.8659C90.3496 31.0087 90.2847 31.2015 90.2847 31.4431C90.2847 31.6956 90.337 31.8885 90.4422 32.0216C90.547 32.1546 90.6997 32.2215 90.8998 32.2215C91.004 32.2215 91.1104 32.2106 91.2177 32.1894V31.7034H90.7707V31.2928Z" fill="#5B5B5B"/>
</g>
<defs>
<clipPath id="clip0_4748_15654">
<rect width="91.7074" height="40" fill="white" transform="translate(0 0.5)"/>
</clipPath>
</defs>
</svg>
