<svg width="22" height="20" viewBox="0 0 22 20" fill="none" xmlns="http://www.w3.org/2000/svg">
<path d="M10.4701 2.54006H5.00005C4.13526 2.55316 3.31018 2.90524 2.70236 3.52054C2.09454 4.13584 1.75258 4.96517 1.75005 5.83006V14.1701C1.75258 15.0349 2.09454 15.8643 2.70236 16.4796C3.31018 17.0949 4.13526 17.447 5.00005 17.4601H10.2401C10.439 17.4601 10.6297 17.5391 10.7704 17.6797C10.911 17.8204 10.9901 18.0111 10.9901 18.2101C10.9901 18.409 10.911 18.5997 10.7704 18.7404C10.6297 18.881 10.439 18.9601 10.2401 18.9601H5.00005C3.73048 18.9574 2.51366 18.4519 1.61593 17.5542C0.718205 16.6565 0.212697 15.4396 0.210055 14.1701V5.83006C0.206103 5.19803 0.327011 4.57145 0.565838 3.98628C0.804666 3.4011 1.15671 2.86885 1.60177 2.42008C2.04682 1.97131 2.57612 1.61485 3.15929 1.37116C3.74246 1.12748 4.36802 1.00136 5.00005 1.00006H10.4301C10.629 1.00006 10.8197 1.07908 10.9604 1.21973C11.101 1.36038 11.1801 1.55115 11.1801 1.75006C11.1801 1.94897 11.101 2.13974 10.9604 2.28039C10.8197 2.42104 10.629 2.50006 10.4301 2.50006L10.4701 2.54006ZM21.7501 5.83006V14.1701C21.7581 15.4397 21.2627 16.6607 20.3725 17.566C19.4822 18.4712 18.2696 18.9869 17.0001 19.0001H14.5701V19.2301C14.5701 19.429 14.491 19.6197 14.3504 19.7604C14.2097 19.901 14.019 19.9801 13.8201 19.9801C13.6211 19.9801 13.4304 19.901 13.2897 19.7604C13.1491 19.6197 13.0701 19.429 13.0701 19.2301V0.810059C13.0701 0.611146 13.1491 0.420381 13.2897 0.279729C13.4304 0.139076 13.6211 0.0600586 13.8201 0.0600586C14.019 0.0600586 14.2097 0.139076 14.3504 0.279729C14.491 0.420381 14.5701 0.611146 14.5701 0.810059V1.00006H17.0001C18.2696 1.01326 19.4822 1.52891 20.3725 2.43415C21.2627 3.33938 21.7581 4.56045 21.7501 5.83006ZM20.2501 5.83006C20.2475 4.96517 19.9056 4.13584 19.2978 3.52054C18.6899 2.90524 17.8648 2.55316 17.0001 2.54006H14.5701V17.4601H17.0001C17.8718 17.4574 18.7071 17.11 19.3235 16.4935C19.9399 15.8771 20.2874 15.0418 20.2901 14.1701L20.2501 5.83006ZM3.31005 10.0001C3.31005 10.1978 3.3687 10.3912 3.47859 10.5556C3.58847 10.7201 3.74465 10.8483 3.92737 10.9239C4.1101 10.9996 4.31116 11.0194 4.50515 10.9808C4.69913 10.9423 4.87731 10.847 5.01716 10.7072C5.15701 10.5673 5.25225 10.3891 5.29084 10.1951C5.32943 10.0012 5.30962 9.8001 5.23393 9.61737C5.15825 9.43465 5.03007 9.27847 4.86562 9.16859C4.70118 9.05871 4.50784 9.00006 4.31005 9.00006C4.04484 9.00006 3.79048 9.10542 3.60295 9.29295C3.41541 9.48049 3.31005 9.73484 3.31005 10.0001ZM6.90005 10.0001C6.90005 10.1978 6.9587 10.3912 7.06858 10.5556C7.17847 10.7201 7.33465 10.8483 7.51737 10.9239C7.7001 10.9996 7.90116 11.0194 8.09514 10.9808C8.28913 10.9423 8.46731 10.847 8.60716 10.7072C8.74701 10.5673 8.84225 10.3891 8.88084 10.1951C8.91943 10.0012 8.89962 9.8001 8.82393 9.61737C8.74825 9.43465 8.62007 9.27847 8.45562 9.16859C8.29118 9.05871 8.09784 9.00006 7.90005 9.00006C7.63484 9.00006 7.38048 9.10542 7.19295 9.29295C7.00541 9.48049 6.90005 9.73484 6.90005 10.0001Z" fill="black"/>
</svg>
