<svg width="22" height="22" viewBox="0 0 22 22" fill="none" xmlns="http://www.w3.org/2000/svg">
<path d="M21.7998 15.0001V6.92012C21.7893 5.14746 21.0777 3.451 19.8204 2.20127C18.5632 0.951539 16.8625 0.250088 15.0898 0.25012H6.94983C6.06192 0.244811 5.18179 0.41578 4.36045 0.753119C3.5391 1.09046 2.79288 1.58746 2.16502 2.21531C1.53716 2.84317 1.04017 3.58939 0.702826 4.41074C0.365487 5.23208 0.194518 6.11221 0.199827 7.00012V15.0801C0.211084 16.3709 0.59444 17.6311 1.30392 18.7095C2.01341 19.7879 3.0189 20.6388 4.19983 21.1601C4.38983 21.2401 4.57983 21.3201 4.76983 21.3801H4.83983L5.42983 21.5401H5.51983C5.69983 21.5401 5.88983 21.6001 6.07983 21.6301H6.19983C6.40983 21.6301 6.62983 21.6301 6.84983 21.6301H6.99983H15.1398C15.3598 21.6301 15.5898 21.6301 15.8098 21.6301H15.9798C16.1512 21.6132 16.3215 21.5865 16.4898 21.5501H16.5798L17.1698 21.3901C17.3898 21.3201 17.6098 21.2301 17.8198 21.1401L18.4498 20.8601C18.9709 20.5551 19.4514 20.1855 19.8798 19.7601C20.4974 19.1322 20.985 18.3884 21.3145 17.5716C21.644 16.7547 21.8089 15.8809 21.7998 15.0001ZM6.84983 20.2601C6.59446 20.2588 6.33987 20.232 6.08983 20.1801C5.96472 20.1674 5.84093 20.144 5.71983 20.1101L5.48983 20.0001C5.9981 18.9759 6.78227 18.114 7.754 17.5114C8.72574 16.9088 9.84642 16.5895 10.9898 16.5895C12.1332 16.5895 13.2539 16.9088 14.2257 17.5114C15.1974 18.114 15.9816 18.9759 16.4898 20.0001L16.2698 20.0701L16.0198 20.1201C15.724 20.1841 15.4225 20.2176 15.1198 20.2201L6.99983 20.2701L6.84983 20.2601ZM17.8498 19.4201C17.2308 18.1271 16.2587 17.0354 15.0457 16.2713C13.8328 15.5072 12.4284 15.1017 10.9948 15.1017C9.56124 15.1017 8.15688 15.5072 6.94392 16.2713C5.73095 17.0354 4.75884 18.1271 4.13983 19.4201C3.41001 18.9538 2.80822 18.3126 2.3891 17.5547C1.96998 16.7968 1.7468 15.9462 1.73983 15.0801L1.69983 7.00012C1.69714 5.62086 2.24044 4.2966 3.21103 3.31664C4.18162 2.33668 5.50061 1.78069 6.87983 1.77012H15.0198C16.3956 1.77272 17.7148 2.31835 18.6904 3.28837C19.666 4.25839 20.2193 5.57436 20.2298 6.95012V15.0301C20.2355 15.7146 20.1049 16.3933 19.8456 17.0269C19.5864 17.6604 19.2037 18.236 18.7198 18.7201C18.4581 18.9866 18.1661 19.2215 17.8498 19.4201ZM10.9998 5.16012C10.1355 5.16012 9.29063 5.41642 8.57199 5.8966C7.85334 6.37678 7.29323 7.05928 6.96247 7.85779C6.63172 8.65631 6.54518 9.53497 6.7138 10.3827C6.88241 11.2304 7.29861 12.009 7.90977 12.6202C8.52093 13.2313 9.29959 13.6475 10.1473 13.8162C10.995 13.9848 11.8736 13.8982 12.6722 13.5675C13.4707 13.2367 14.1532 12.6766 14.6333 11.958C15.1135 11.2393 15.3698 10.3944 15.3698 9.53012C15.3698 8.37112 14.9094 7.2596 14.0899 6.44006C13.2703 5.62053 12.1588 5.16012 10.9998 5.16012ZM10.9998 12.4001C10.4322 12.4001 9.87731 12.2318 9.40534 11.9164C8.93337 11.6011 8.56552 11.1528 8.34829 10.6284C8.13107 10.104 8.07423 9.52694 8.18497 8.97021C8.29571 8.41349 8.56905 7.9021 8.97043 7.50072C9.37181 7.09935 9.88319 6.82601 10.4399 6.71527C10.9966 6.60453 11.5737 6.66136 12.0981 6.87859C12.6226 7.09581 13.0708 7.46366 13.3861 7.93563C13.7015 8.4076 13.8698 8.96249 13.8698 9.53012C13.8672 10.2905 13.564 11.0189 13.0263 11.5566C12.4887 12.0943 11.7602 12.3975 10.9998 12.4001Z" fill="black"/>
</svg>
